<svg xmlns="http://www.w3.org/2000/svg" width="1168" height="44" viewBox="0 0 1168 44" fill="none">
  <path d="M-1461 22.0001C-1440.15 4.62171 -1409.85 4.62171 -1389 22.0001C-1368.15 39.3785 -1337.85 39.3785 -1317 22.0001C-1296.15 4.62171 -1265.85 4.62171 -1245 22.0001C-1224.15 39.3785 -1193.85 39.3785 -1173 22.0001C-1152.15 4.62171 -1121.85 4.62171 -1101 22.0001C-1080.15 39.3785 -1049.85 39.3785 -1029 22.0001C-1008.15 4.62171 -977.854 4.62171 -957 22.0001C-936.146 39.3785 -905.854 39.3785 -885 22.0001C-864.146 4.62171 -833.854 4.62171 -813 22.0001C-792.146 39.3785 -761.854 39.3785 -741 22.0001C-720.146 4.62171 -689.854 4.62171 -669 22.0001C-648.146 39.3785 -617.854 39.3785 -597 22.0001C-576.146 4.62171 -545.854 4.62171 -525 22.0001C-504.146 39.3785 -473.854 39.3785 -453 22.0001C-432.146 4.62171 -401.854 4.62171 -381 22.0001C-360.146 39.3785 -329.854 39.3785 -309 22.0001C-288.146 4.62171 -257.854 4.62171 -237 22.0001C-216.146 39.3785 -185.854 39.3785 -165 22.0001C-144.146 4.62171 -113.854 4.62171 -93 22.0001C-72.1459 39.3785 -41.8541 39.3785 -21 22.0001C-0.145927 4.62171 30.1459 4.62171 51 22.0001C71.8541 39.3785 102.146 39.3785 123 22.0001C143.854 4.62171 174.146 4.62171 195 22.0001C215.854 39.3785 246.146 39.3785 267 22.0001C287.854 4.62171 318.146 4.62171 339 22.0001C359.854 39.3785 390.146 39.3785 411 22.0001C431.854 4.62171 462.146 4.62171 483 22.0001C503.854 39.3785 534.146 39.3785 555 22.0001C575.854 4.62171 606.146 4.62171 627 22.0001C647.854 39.3785 678.146 39.3785 699 22.0001C719.854 4.62171 750.146 4.62171 771 22.0001C791.854 39.3785 822.146 39.3785 843 22.0001C863.854 4.62171 894.146 4.62171 915 22.0001C935.854 39.3785 966.146 39.3785 987 22.0001C1007.85 4.62171 1038.15 4.62171 1059 22.0001C1079.85 39.3785 1110.15 39.3785 1131 22.0001C1147.8 8 1166 9.0001 1167 9.0001" stroke="#B2C5FF" stroke-width="16"/>
</svg>