<svg  xmlns="http://www.w3.org/2000/svg" width="2034" height="44" viewBox="0 0 2034 44" fill="none">
  <path d="M2629 22.0001C2608.15 4.62171 2577.85 4.62171 2557 22.0001C2536.15 39.3785 2505.85 39.3785 2485 22.0001C2464.15 4.62171 2433.85 4.62171 2413 22.0001C2392.15 39.3785 2361.85 39.3785 2341 22.0001C2320.15 4.62171 2289.85 4.62171 2269 22.0001C2248.15 39.3785 2217.85 39.3785 2197 22.0001C2176.15 4.62171 2145.85 4.62171 2125 22.0001C2104.15 39.3785 2073.85 39.3785 2053 22.0001C2032.15 4.62171 2001.85 4.62171 1981 22.0001C1960.15 39.3785 1929.85 39.3785 1909 22.0001C1888.15 4.62171 1857.85 4.62171 1837 22.0001C1816.15 39.3785 1785.85 39.3785 1765 22.0001C1744.15 4.62171 1713.85 4.62171 1693 22.0001C1672.15 39.3785 1641.85 39.3785 1621 22.0001C1600.15 4.62171 1569.85 4.62171 1549 22.0001C1528.15 39.3785 1497.85 39.3785 1477 22.0001C1456.15 4.62171 1425.85 4.62171 1405 22.0001C1384.15 39.3785 1353.85 39.3785 1333 22.0001C1312.15 4.62171 1281.85 4.62171 1261 22.0001C1240.15 39.3785 1209.85 39.3785 1189 22.0001C1168.15 4.62171 1137.85 4.62171 1117 22.0001C1096.15 39.3785 1065.85 39.3785 1045 22.0001C1024.15 4.62171 993.854 4.62171 973 22.0001C952.146 39.3785 921.854 39.3785 901 22.0001C880.146 4.62171 849.854 4.62171 829 22.0001C808.146 39.3785 777.854 39.3785 757 22.0001C736.146 4.62171 705.854 4.62171 685 22.0001C664.146 39.3785 633.854 39.3785 613 22.0001C592.146 4.62171 561.854 4.62171 541 22.0001C520.146 39.3785 489.854 39.3785 469 22.0001C448.146 4.62171 417.854 4.62171 397 22.0001C376.146 39.3785 345.854 39.3785 325 22.0001C304.146 4.62171 273.854 4.62171 253 22.0001C232.146 39.3785 201.854 39.3785 181 22.0001C160.146 4.62171 129.854 4.62171 109 22.0001C88.1459 39.3785 57.8541 39.3785 37 22.0001C20.1996 8 2 9.0001 1 9.0001" stroke="white" stroke-width="16"/>
</svg>