<svg width="24" height="24" viewBox="0 0 24 24" fill="none" xmlns="http://www.w3.org/2000/svg">
<path d="M6 17.1667C6 17.6667 5.6 18 5 18H3C2.5 18 2 17.6667 2 17.1667V13.8333C2 13.3333 2.5 13 3 13H5C5.6 13 6 13.3333 6 13.8333V17.1667Z" stroke="#2A59BD" stroke-width="2" stroke-miterlimit="10" stroke-linecap="round" stroke-linejoin="round"/>
<path d="M2 13.8182V12" stroke="#2A59BD" stroke-width="2" stroke-miterlimit="10" stroke-linecap="round" stroke-linejoin="round"/>
<path d="M2 12C2 6.45455 6.45455 2 12 2C17.5455 2 22 6.45455 22 12" stroke="#2A59BD" stroke-width="2" stroke-miterlimit="10" stroke-linecap="round" stroke-linejoin="round"/>
<path d="M18 17.1517C18 17.6607 18.5 18 19 18H21C21.6 18 22 17.6607 22 17.1517V13.7585C22 13.2495 21.6 12.9102 21 12.9102H19C18.5 12.9102 18 13.2495 18 13.7585V17.1517Z" stroke="#2A59BD" stroke-width="2" stroke-miterlimit="10" stroke-linecap="round" stroke-linejoin="round"/>
<path d="M22 13.8182V12" stroke="#2A59BD" stroke-width="2" stroke-miterlimit="10" stroke-linecap="round" stroke-linejoin="round"/>
<path d="M12.9091 21.0898H11.0909V21.9989H12.9091V21.0898Z" stroke="#2A59BD" stroke-width="2" stroke-miterlimit="10" stroke-linecap="round" stroke-linejoin="round"/>
<path d="M22 12.6348V19.2712L15.6364 21.9984H12.6363" stroke="#2A59BD" stroke-width="2" stroke-miterlimit="10" stroke-linecap="round" stroke-linejoin="round"/>
</svg>
