<svg width="143" height="65" viewBox="0 0 143 65" fill="none" xmlns="http://www.w3.org/2000/svg">
<g opacity="0.5" clip-path="url(#clip0_2417_14318)">
<g opacity="0.9">
<path d="M132.596 40.5894C145.601 27.5849 131.925 -7.17513 102.051 -37.0493C72.177 -66.9235 37.417 -80.599 24.4125 -67.5946C11.4081 -54.5901 25.0836 -19.8301 54.9578 10.0441C84.832 39.9183 119.592 53.5939 132.596 40.5894Z" stroke="#2A59BD" stroke-width="0.75" stroke-miterlimit="10"/>
<path d="M125.622 47.5659C138.626 34.5614 124.951 -0.198578 95.0766 -30.0727C65.2025 -59.9469 30.4425 -73.6225 17.438 -60.618C4.43349 -47.6135 18.1091 -12.8535 47.9832 17.0207C77.8574 46.8948 112.617 60.5704 125.622 47.5659Z" stroke="#2A59BD" stroke-width="0.75" stroke-miterlimit="10"/>
<path d="M136.077 37.1109C149.082 24.1064 135.406 -10.6536 105.532 -40.5278C75.6577 -70.402 40.8977 -84.0776 27.8932 -71.0731C14.8887 -58.0686 28.5643 -23.3086 58.4384 6.56559C88.3126 36.4398 123.073 50.1154 136.077 37.1109Z" stroke="#2A59BD" stroke-width="0.75" stroke-miterlimit="10"/>
<path d="M143.043 30.1265C156.048 17.122 142.372 -17.638 112.498 -47.5122C82.6239 -77.3863 47.8638 -91.0619 34.8594 -78.0574C21.8549 -65.053 35.5305 -30.2929 65.4046 -0.418768C95.2788 29.4554 130.039 43.131 143.043 30.1265Z" stroke="#2A59BD" stroke-width="0.75" stroke-miterlimit="10"/>
<path d="M146.541 26.648C159.545 13.6435 145.87 -21.1165 115.995 -50.9907C86.1213 -80.8649 51.3612 -94.5404 38.3568 -81.536C25.3523 -68.5315 39.0279 -33.7715 68.902 -3.8973C98.7762 25.9769 133.536 39.6525 146.541 26.648Z" stroke="#2A59BD" stroke-width="0.75" stroke-miterlimit="10"/>
<path d="M139.554 33.6245C152.559 20.62 138.883 -14.14 109.009 -44.0141C79.1348 -73.8883 44.3748 -87.5639 31.3703 -74.5594C18.3658 -61.5549 32.0414 -26.7949 61.9156 3.07926C91.7897 32.9534 126.55 46.629 139.554 33.6245Z" stroke="#2A59BD" stroke-width="0.75" stroke-miterlimit="10"/>
<path d="M129.099 44.0786C142.103 31.0741 128.428 -3.68587 98.5537 -33.56C68.6796 -63.4342 33.9195 -77.1098 20.915 -64.1053C7.91056 -51.1008 21.5862 -16.3408 51.4603 13.5334C81.3345 43.4075 116.094 57.0831 129.099 44.0786Z" stroke="#2A59BD" stroke-width="0.75" stroke-miterlimit="10"/>
<path d="M115.155 58.0191C128.159 45.0146 114.484 10.2546 84.6095 -19.6196C54.7354 -49.4938 19.9753 -63.1693 6.97083 -50.1649C-6.03365 -37.1604 7.64194 -2.40036 37.5161 27.4738C67.3903 57.348 102.15 71.0235 115.155 58.0191Z" stroke="#2A59BD" stroke-width="0.75" stroke-miterlimit="10"/>
<path d="M122.141 51.0435C135.146 38.039 121.47 3.27897 91.5959 -26.5952C61.7218 -56.4694 26.9618 -70.1449 13.9573 -57.1405C0.952799 -44.136 14.6284 -9.37595 44.5025 20.4982C74.3767 50.3724 109.137 64.048 122.141 51.0435Z" stroke="#2A59BD" stroke-width="0.75" stroke-miterlimit="10"/>
<path d="M118.644 54.5337C131.648 41.5292 117.973 6.76922 88.0986 -23.1049C58.2244 -52.9791 23.4644 -66.6547 10.4599 -53.6502C-2.54461 -40.6457 11.131 -5.88571 41.0052 23.9885C70.8793 53.8626 105.639 67.5382 118.644 54.5337Z" stroke="#2A59BD" stroke-width="0.75" stroke-miterlimit="10"/>
<path d="M150.021 23.1704C163.026 10.166 149.35 -24.5941 119.476 -54.4682C89.6019 -84.3424 54.8419 -98.018 41.8374 -85.0135C28.8329 -72.009 42.5085 -37.249 72.3827 -7.37484C102.257 22.4993 137.017 36.1749 150.021 23.1704Z" stroke="#2A59BD" stroke-width="0.75" stroke-miterlimit="10"/>
</g>
</g>
<defs>
<clipPath id="clip0_2417_14318">
<rect width="155.25" height="155.25" fill="white" transform="translate(0.875 -91.125)"/>
</clipPath>
</defs>
</svg>
