<svg width="95" height="120" viewBox="0 0 95 120" fill="none" xmlns="http://www.w3.org/2000/svg">
<path d="M2.51742 95.5533C2.11468 95.4564 1.7097 95.7044 1.61288 96.1072C1.51605 96.5099 1.76404 96.9149 2.16678 97.0117L2.51742 95.5533ZM46.71 47.3778L46.2031 46.825L46.2029 46.8252L46.71 47.3778ZM62.5252 82.5263L62.508 81.7765L62.5079 81.7765L62.5252 82.5263ZM74.2462 11.9501C73.9767 11.6356 73.5032 11.5991 73.1887 11.8687C72.8742 12.1382 72.8377 12.6117 73.1073 12.9262L74.2462 11.9501ZM6.1 103.952C6.33916 104.291 6.8072 104.371 7.14539 104.132C7.48358 103.892 7.56386 103.424 7.3247 103.086L6.1 103.952ZM1.49493 96.1416L0.987176 95.5896C0.709594 95.8449 0.664809 96.2667 0.882578 96.5746L1.49493 96.1416ZM8.61627 90.3542C8.89042 90.0437 8.86096 89.5698 8.55045 89.2956C8.23995 89.0214 7.76599 89.0509 7.49184 89.3614L8.61627 90.3542ZM2.3421 96.2825C2.16678 97.0117 2.16716 97.0118 2.1677 97.0119C2.16809 97.012 2.16878 97.0122 2.16956 97.0124C2.17112 97.0128 2.1733 97.0133 2.17611 97.0139C2.18173 97.0153 2.18984 97.0172 2.20043 97.0197C2.22159 97.0247 2.25262 97.0319 2.29326 97.0413C2.37453 97.0599 2.49423 97.087 2.65031 97.1212C2.96244 97.1894 3.42012 97.286 4.00682 97.4002C5.18011 97.6286 6.87016 97.9277 8.94478 98.2122C13.0918 98.7811 18.7867 99.2935 24.9684 99.0635C37.2856 98.6052 51.7735 95.1865 59.605 83.0936L58.346 82.2782C50.9287 93.7315 37.0998 97.1111 24.9126 97.5645C18.8421 97.7904 13.2378 97.2871 9.14863 96.7262C7.10519 96.4459 5.44293 96.1516 4.29343 95.9278C3.71874 95.816 3.2724 95.7218 2.97087 95.6558C2.82011 95.6228 2.70557 95.5969 2.62931 95.5794C2.59117 95.5706 2.56261 95.5639 2.54388 95.5595C2.53451 95.5573 2.5276 95.5557 2.52318 95.5546C2.52097 95.5541 2.51938 95.5537 2.51842 95.5535C2.51794 95.5534 2.51769 95.5533 2.51745 95.5533C2.51735 95.5533 2.51742 95.5533 2.3421 96.2825ZM59.605 83.0936C67.3689 71.105 66.5286 59.967 62.5064 52.8156C60.5041 49.2556 57.6965 46.6603 54.7508 45.4903C51.7817 44.3111 48.6471 44.5837 46.2031 46.825L47.217 47.9305C49.1618 46.1469 51.6609 45.8771 54.1971 46.8844C56.7567 47.901 59.326 50.2209 61.199 53.5509C64.9272 60.1795 65.8308 70.7206 58.346 82.2782L59.605 83.0936ZM46.2029 46.8252C43.8396 48.9939 42.3861 52.4125 41.8234 56.2243C41.2589 60.0485 41.5771 64.3496 42.8403 68.3757C45.3696 76.4374 51.754 83.526 62.5426 83.2761L62.5079 81.7765C52.5724 82.0067 46.6622 75.5466 44.2715 67.9267C43.0747 64.112 42.7765 60.0392 43.3073 56.4433C43.84 52.8349 45.1936 49.7872 47.2171 47.9304L46.2029 46.8252ZM62.5425 83.2761C68.0109 83.1502 72.8291 80.114 76.614 75.3635C80.3983 70.6136 83.1978 64.098 84.6562 56.8441C87.5709 42.3473 85.1663 24.6915 74.2462 11.9501L73.1073 12.9262C83.6546 25.2327 86.0338 42.3823 83.1857 56.5484C81.7627 63.6259 79.0441 69.9061 75.4408 74.4288C71.8381 78.9507 67.3992 81.6639 62.508 81.7765L62.5425 83.2761ZM7.3247 103.086L2.10728 95.7085L0.882578 96.5746L6.1 103.952L7.3247 103.086ZM1.49493 96.1416C2.00268 96.6935 2.00271 96.6935 2.00275 96.6935C2.0028 96.6934 2.00287 96.6934 2.00295 96.6933C2.00312 96.6931 2.00338 96.6929 2.00371 96.6926C2.00439 96.692 2.00538 96.6911 2.00669 96.6898C2.00932 96.6874 2.01323 96.6838 2.01838 96.6791C2.02868 96.6696 2.04394 96.6556 2.06388 96.6372C2.10375 96.6005 2.16232 96.5465 2.23724 96.4773C2.38708 96.339 2.60236 96.14 2.86433 95.897C3.3882 95.4112 4.09919 94.7494 4.84726 94.0456C6.32813 92.6523 7.99935 91.0529 8.61627 90.3542L7.49184 89.3614C6.93235 89.9951 5.32401 91.5375 3.81942 92.9531C3.07476 93.6537 2.36654 94.3129 1.84438 94.7972C1.58335 95.0392 1.36891 95.2375 1.21979 95.3751C1.14523 95.4439 1.087 95.4976 1.04745 95.5341C1.02768 95.5523 1.01257 95.5662 1.00243 95.5755C0.997358 95.5802 0.993527 95.5837 0.990972 95.5861C0.989695 95.5873 0.988737 95.5881 0.988103 95.5887C0.987786 95.589 0.98755 95.5892 0.987395 95.5894C0.987318 95.5894 0.987263 95.5895 0.987224 95.5895C0.98719 95.5896 0.987176 95.5896 1.49493 96.1416Z" fill="#B2C5FF"/>
</svg>
