<svg width="187" height="187" viewBox="0 0 187 187" fill="none" xmlns="http://www.w3.org/2000/svg">
<rect width="187" height="187" fill="white"/>
<g clip-path="url(#clip0_132_5316)">
<path d="M106.408 102.165C100.177 106.758 91.146 109.208 83.3703 109.208C72.4675 109.208 62.6521 105.176 55.2265 98.4689C54.6431 97.9415 55.1658 97.2227 55.8659 97.6334C63.8796 102.296 73.7883 105.101 84.0237 105.101C90.9266 105.101 98.5203 103.673 105.503 100.709C106.557 100.261 107.439 101.4 106.408 102.165Z" fill="#FF9900"/>
<path d="M108.998 99.2017C108.205 98.1842 103.734 98.721 101.727 98.959C101.115 99.0337 101.022 98.5016 101.573 98.1189C105.134 95.6126 110.977 96.336 111.659 97.1761C112.34 98.0209 111.481 103.878 108.135 106.674C107.622 107.103 107.131 106.875 107.36 106.305C108.112 104.429 109.796 100.224 108.998 99.2017Z" fill="#FF9900"/>
<path d="M101.867 80.425V77.9886C101.867 77.6199 102.147 77.3726 102.483 77.3726H113.39C113.74 77.3726 114.02 77.6246 114.02 77.9886V80.0749C114.016 80.425 113.722 80.8823 113.199 81.6058L107.547 89.6755C109.647 89.6241 111.864 89.9368 113.768 91.0103C114.198 91.253 114.315 91.6077 114.347 91.9578V94.5574C114.347 94.9122 113.955 95.3275 113.544 95.1129C110.189 93.3533 105.731 93.1619 102.021 95.1315C101.643 95.3369 101.246 94.9262 101.246 94.5714V92.1025C101.246 91.7057 101.251 91.029 101.647 90.4269L108.196 81.0364H102.497C102.147 81.0364 101.867 80.789 101.867 80.425Z" fill="#221F1F"/>
<path d="M62.0781 95.6266H58.7596C58.4422 95.6032 58.1902 95.3652 58.1669 95.0618V78.031C58.1669 77.6903 58.4516 77.4196 58.8063 77.4196H61.9007C62.2227 77.4336 62.4794 77.6809 62.5028 77.989V80.2153H62.5635C63.3709 78.0636 64.8878 77.0602 66.932 77.0602C69.009 77.0602 70.3065 78.0636 71.24 80.2153C72.0427 78.0636 73.8676 77.0602 75.8232 77.0602C77.2141 77.0602 78.7356 77.6343 79.6644 78.9224C80.7146 80.3553 80.4999 82.4369 80.4999 84.2618L80.4952 95.0105C80.4952 95.3512 80.2105 95.6266 79.8558 95.6266H76.542C76.2106 95.6032 75.9446 95.3372 75.9446 95.0105V85.984C75.9446 85.2652 76.0099 83.473 75.8512 82.7916C75.6039 81.6481 74.8618 81.3261 73.9003 81.3261C73.0975 81.3261 72.2574 81.8628 71.9167 82.7216C71.576 83.5804 71.6087 85.0179 71.6087 85.984V95.0105C71.6087 95.3512 71.324 95.6266 70.9693 95.6266H67.6555C67.3194 95.6032 67.0581 95.3372 67.0581 95.0105L67.0534 85.984C67.0534 84.0844 67.3661 81.2887 65.0091 81.2887C62.6241 81.2887 62.7175 84.0144 62.7175 85.984V95.0105C62.7175 95.3512 62.4328 95.6266 62.0781 95.6266Z" fill="#221F1F"/>
<path d="M123.411 77.0602C128.335 77.0602 131 81.2887 131 86.6654C131 91.8601 128.055 95.9813 123.411 95.9813C118.576 95.9813 115.943 91.7527 115.943 86.4834C115.943 81.1814 118.608 77.0602 123.411 77.0602ZM123.439 80.5373C120.993 80.5373 120.839 83.8697 120.839 85.9467C120.839 88.0283 120.807 92.4715 123.411 92.4715C125.983 92.4715 126.104 88.887 126.104 86.7028C126.104 85.2652 126.043 83.5477 125.609 82.1848C125.236 80.9994 124.494 80.5373 123.439 80.5373Z" fill="#221F1F"/>
<path d="M137.385 95.6266H134.08C133.749 95.6032 133.483 95.3372 133.483 95.0105L133.478 77.975C133.506 77.6623 133.782 77.4196 134.118 77.4196H137.194C137.483 77.4336 137.721 77.6296 137.786 77.8956V80.5H137.847C138.776 78.171 140.078 77.0602 142.37 77.0602C143.858 77.0602 145.31 77.5969 146.243 79.0671C147.112 80.4299 147.112 82.7216 147.112 84.3691V95.0898C147.074 95.3885 146.799 95.6266 146.472 95.6266H143.144C142.841 95.6032 142.589 95.3792 142.556 95.0898V85.8393C142.556 83.9771 142.771 81.2514 140.479 81.2514C139.672 81.2514 138.93 81.7928 138.561 82.6142C138.094 83.655 138.034 84.6912 138.034 85.8393V95.0105C138.029 95.3512 137.74 95.6266 137.385 95.6266Z" fill="#221F1F"/>
<path d="M93.1717 87.4916V86.7728C90.7727 86.7728 88.2383 87.2862 88.2383 90.1146C88.2383 91.5474 88.9804 92.5182 90.2546 92.5182C91.1881 92.5182 92.0235 91.9441 92.5509 91.0107C93.2043 89.8625 93.1717 88.7844 93.1717 87.4916ZM96.5181 95.5799C96.2987 95.776 95.9814 95.79 95.734 95.6593C94.6325 94.7445 94.4365 94.3198 93.8297 93.447C92.0095 95.3046 90.7213 95.86 88.3597 95.86C85.5686 95.86 83.3937 94.1377 83.3937 90.6886C83.3937 87.9956 84.8545 86.1614 86.9315 85.2653C88.7331 84.4718 91.2487 84.3318 93.1717 84.1125V83.6831C93.1717 82.8943 93.2323 81.9608 92.7703 81.2794C92.3642 80.668 91.5894 80.416 90.908 80.416C89.6432 80.416 88.5137 81.0647 88.2383 82.4089C88.1823 82.7076 87.963 83.0016 87.6643 83.0156L84.4438 82.6703C84.1731 82.6096 83.8744 82.3902 83.9491 81.9748C84.6912 78.073 88.215 76.8969 91.3701 76.8969C92.985 76.8969 95.0946 77.3262 96.3688 78.5491C97.9836 80.0566 97.8296 82.0682 97.8296 84.2571V89.4285C97.8296 90.9827 98.4737 91.6641 99.0805 92.5042C99.2951 92.8029 99.3418 93.1623 99.0711 93.3863C98.3944 93.9511 97.1902 95.0012 96.5274 95.5893L96.5181 95.5799Z" fill="#221F1F"/>
<path d="M49.6678 87.4916V86.7728C47.2688 86.7728 44.7344 87.2862 44.7344 90.1146C44.7344 91.5474 45.4765 92.5182 46.7507 92.5182C47.6841 92.5182 48.5196 91.9441 49.047 91.0107C49.7004 89.8625 49.6678 88.7844 49.6678 87.4916ZM53.0142 95.5799C52.7948 95.776 52.4775 95.79 52.2301 95.6593C51.1286 94.7445 50.9326 94.3198 50.3258 93.447C48.5056 95.3046 47.2174 95.86 44.8558 95.86C42.0647 95.86 39.8898 94.1377 39.8898 90.6886C39.8898 87.9956 41.3506 86.1614 43.4276 85.2653C45.2292 84.4718 47.7448 84.3318 49.6678 84.1125V83.6831C49.6678 82.8943 49.7284 81.9608 49.2664 81.2794C48.8603 80.668 48.0855 80.416 47.4041 80.416C46.1393 80.416 45.0098 81.0647 44.7344 82.4089C44.6784 82.7076 44.459 83.0016 44.1603 83.0156L40.9399 82.6703C40.6692 82.6096 40.3705 82.3902 40.4452 81.9748C41.1873 78.073 44.7111 76.8969 47.8662 76.8969C49.4811 76.8969 51.5907 77.3262 52.8648 78.5491C54.4797 80.0566 54.3257 82.0682 54.3257 84.2571V89.4285C54.3257 90.9827 54.9698 91.6641 55.5765 92.5042C55.7912 92.8029 55.8379 93.1623 55.5672 93.3863C54.8905 93.9511 53.6863 95.0012 53.0235 95.5893L53.0142 95.5799Z" fill="#221F1F"/>
</g>
<defs>
<clipPath id="clip0_132_5316">
<rect width="107.35" height="32.4007" fill="white" transform="translate(39.825 76.8527)"/>
</clipPath>
</defs>
</svg>
