<svg width="187" height="187" viewBox="0 0 187 187" fill="none" xmlns="http://www.w3.org/2000/svg">
<rect width="187" height="187" fill="white"/>
<g clip-path="url(#clip0_132_5250)">
<path fill-rule="evenodd" clip-rule="evenodd" d="M43.7936 93.2152C43.9949 93.2453 44.1961 93.2825 44.3981 93.3274C44.9645 93.4318 45.5171 93.5812 46.0317 93.8497C47.1957 94.4611 47.845 95.4308 48.0315 96.7216C48.2629 98.363 47.4495 100.317 45.5241 101.31C44.8376 101.668 44.0993 101.862 43.3309 101.974C42.5245 102.085 41.7111 102.108 40.9055 102.108C38.4135 102.116 35.9208 102.116 33.4289 102.116H33.2269C33.2052 102.093 33.1975 102.085 33.1975 102.085C33.1898 102.078 33.1898 102.071 33.1898 102.063C33.1828 102.034 33.175 102.003 33.175 101.974V84.9044C33.175 84.875 33.1828 84.8526 33.1828 84.8301C33.1898 84.8154 33.1975 84.8077 33.2052 84.7852C33.2493 84.7852 33.2942 84.7775 33.3469 84.7775C35.9208 84.7775 38.5025 84.7705 41.0773 84.793C41.9278 84.793 42.7783 84.8526 43.6141 84.9942C44.4275 85.1435 45.1812 85.419 45.8375 85.9267C46.7259 86.6131 47.2181 87.5155 47.3597 88.6198C47.4495 89.2916 47.4124 89.9548 47.1957 90.5971C46.8675 91.5513 46.233 92.2455 45.3229 92.6858C44.898 92.8948 44.4499 93.0217 43.9871 93.1254C43.9198 93.1409 43.8602 93.1633 43.7936 93.178C43.7936 93.1857 43.7936 93.2004 43.7936 93.2152ZM37.3014 98.9744H37.5181C38.4507 98.9744 39.3832 98.9821 40.3235 98.9744C40.7716 98.9674 41.2112 98.9373 41.6592 98.8924C42.0547 98.863 42.4355 98.7585 42.7938 98.5642C43.2264 98.3259 43.5019 97.9598 43.6141 97.4754C43.6892 97.1542 43.6892 96.8338 43.6512 96.5127C43.5692 95.6993 43.1064 95.1398 42.3155 94.9084C41.92 94.797 41.5099 94.7668 41.1067 94.7668C39.8979 94.7598 38.6968 94.7668 37.4957 94.7668C37.4361 94.7668 37.3757 94.7668 37.3014 94.7745V98.9744ZM37.3014 88.0007V91.6186C37.3835 91.6264 37.4578 91.6333 37.5251 91.6333C38.1001 91.6333 38.6666 91.6333 39.2416 91.6264C39.8313 91.6264 40.428 91.6264 41.0247 91.6117C41.4426 91.5962 41.8535 91.5296 42.2335 91.3578C42.6893 91.1489 42.995 90.7983 43.0917 90.3061C43.1366 90.0817 43.1668 89.8356 43.1513 89.6042C43.1142 88.7986 42.6963 88.2987 41.9053 88.1052C41.5849 88.0232 41.2491 88.0007 40.9132 88.0007C39.7787 88.0007 38.6449 88.0007 37.5104 88.0007H37.3014ZM153.803 102.1H150.386V100.937C150.326 100.981 150.289 100.997 150.259 101.019C150.148 101.123 150.035 101.235 149.923 101.339C148.923 102.212 147.752 102.555 146.446 102.429C145.2 102.317 144.133 101.802 143.245 100.929C142.477 100.169 141.991 99.2507 141.708 98.2137C141.477 97.3407 141.416 96.4453 141.432 95.543C141.447 94.7374 141.536 93.9387 141.745 93.1556C142.021 92.141 142.477 91.2232 143.215 90.4624C144.081 89.5671 145.14 89.0671 146.379 88.9704C147.513 88.8806 148.543 89.1569 149.49 89.776C149.655 89.8882 149.812 90.0074 149.976 90.1196C150.021 90.149 150.072 90.1862 150.154 90.2388C150.162 89.6119 150.154 89.0153 150.162 88.4186C150.162 87.8065 150.162 87.2021 150.162 86.5977V84.7852H153.803V102.1ZM150.236 95.7071C150.244 95.1251 150.207 94.5509 150.08 93.9914C149.961 93.4543 149.767 92.9466 149.408 92.514C149.087 92.1333 148.7 91.85 148.192 91.7904C147.282 91.686 146.536 91.9916 145.991 92.7454C145.76 93.0658 145.595 93.4318 145.499 93.8118C145.155 95.088 145.178 96.3633 145.483 97.6317C145.595 98.1092 145.782 98.5565 146.095 98.9373C146.595 99.5564 147.252 99.7878 148.028 99.6461C148.714 99.527 149.23 99.1462 149.603 98.5642C149.812 98.2439 149.946 97.8925 150.043 97.5272C150.199 96.9306 150.244 96.3184 150.236 95.7071ZM102.921 89.3063C101.443 90.8432 99.9884 92.3422 98.5187 93.8567C100.175 96.6024 101.832 99.3405 103.496 102.093C103.428 102.1 103.383 102.116 103.332 102.116C101.988 102.116 100.645 102.108 99.3019 102.116C99.1603 102.116 99.1007 102.048 99.0411 101.952C98.0258 100.243 97.0112 98.5341 95.9889 96.8261C95.944 96.7518 95.8991 96.6845 95.8473 96.587C95.7877 96.6396 95.7428 96.6767 95.6979 96.7139C95.2506 97.1395 94.8025 97.5644 94.3397 97.9823C94.2507 98.0721 94.2128 98.1611 94.2128 98.288C94.2128 99.4743 94.2128 100.661 94.2128 101.839V102.071C94.0712 102.123 90.8479 102.138 90.5639 102.093C90.5569 102.093 90.5569 102.085 90.5492 102.085C90.5422 102.078 90.5422 102.071 90.5422 102.071C90.5345 96.3935 90.5345 90.7085 90.5267 85.0313C90.5267 84.964 90.5345 84.8974 90.5345 84.8224C90.5345 84.8154 90.5492 84.8077 90.5569 84.7852H94.2283V93.633C94.3328 93.6408 94.3699 93.5588 94.4148 93.5139C95.1461 92.7454 95.8697 91.9769 96.601 91.2007C97.1528 90.6118 97.7123 90.0221 98.2649 89.4332C98.3616 89.3287 98.4592 89.2916 98.593 89.2916C99.959 89.2985 101.332 89.2985 102.705 89.2985C102.757 89.2985 102.817 89.3063 102.921 89.3063Z" fill="#0F3255"/>
<path fill-rule="evenodd" clip-rule="evenodd" d="M132.925 96.4607H123.785C123.777 96.5126 123.762 96.5575 123.762 96.5946C123.769 97.2284 123.911 97.8181 124.24 98.3629C124.702 99.1237 125.389 99.5269 126.254 99.6383C126.687 99.6909 127.119 99.6685 127.545 99.571C128.194 99.4294 128.731 99.109 129.164 98.6168C129.44 98.3034 129.649 97.9528 129.844 97.5945C129.873 97.5349 129.903 97.4753 129.94 97.408C130.888 97.8924 131.829 98.3629 132.784 98.8474L132.597 99.1237C132.209 99.6979 131.791 100.243 131.284 100.712C130.336 101.608 129.209 102.167 127.941 102.421C126.619 102.682 125.306 102.637 124.031 102.22C122.001 101.548 120.74 100.146 120.173 98.1014C119.904 97.1317 119.86 96.1396 119.942 95.1397C120.031 94.1182 120.262 93.133 120.725 92.2152C121.598 90.4322 123.031 89.3735 124.978 89.0152C126.15 88.7985 127.321 88.8062 128.478 89.1344C130.313 89.6645 131.575 90.8354 132.284 92.6037C132.567 93.2971 132.731 94.0207 132.806 94.7667C132.858 95.2597 132.888 95.7519 132.917 96.244C132.925 96.3036 132.925 96.371 132.925 96.4607ZM123.799 94.0957H129.022C128.971 93.5811 128.866 93.0959 128.605 92.6555C128.463 92.4172 128.284 92.2152 128.053 92.0589C127.403 91.6263 126.695 91.4692 125.926 91.6263C124.762 91.8724 123.896 92.8869 123.799 94.0957ZM81.0503 102.473C80.1843 102.473 79.1775 102.324 78.2148 101.944C76.3791 101.212 75.1556 99.9068 74.6185 98.0046C74.148 96.371 74.1627 94.7218 74.7075 93.1106C75.4241 90.9917 76.8937 89.6792 79.0506 89.1266C80.0357 88.8736 81.0356 88.8434 82.0424 88.9254C82.7962 88.9927 83.5353 89.1491 84.2364 89.4401C85.8485 90.0971 86.9373 91.2602 87.5642 92.8722C88.0045 93.9982 88.1616 95.1699 88.0571 96.371C87.9674 97.4676 87.6764 98.5046 87.1238 99.4518C86.2888 100.87 85.0498 101.765 83.4757 102.198C82.7366 102.399 81.9829 102.473 81.0503 102.473ZM78.0956 95.6992C78.1026 95.8114 78.1103 95.9902 78.125 96.1698C78.1776 96.7587 78.3045 97.3182 78.5653 97.8483C78.9314 98.5866 79.4832 99.1159 80.2888 99.3628C80.6549 99.4742 81.0426 99.5114 81.4233 99.4889C82.4534 99.4147 83.2366 98.9449 83.7442 98.0418C84.0352 97.5271 84.1768 96.9599 84.2364 96.3787C84.2891 95.8486 84.2666 95.3262 84.1993 94.8038C84.1095 94.2072 83.9532 93.6252 83.6173 93.1106C83.2064 92.4768 82.6399 92.0813 81.8931 91.932C81.3336 91.8197 80.7818 91.8724 80.2369 92.0063C79.7068 92.1409 79.2742 92.4319 78.9461 92.8645C78.7371 93.1253 78.58 93.4016 78.4539 93.7073C78.1923 94.3271 78.1103 94.9757 78.0956 95.6992ZM65.8433 102.473C64.7908 102.481 63.7608 102.317 62.7911 101.921C60.9182 101.153 59.7094 99.7954 59.2017 97.8406C58.7916 96.2812 58.8063 94.7149 59.314 93.1779C60.0376 90.97 61.5675 89.6196 63.8211 89.0895C64.7606 88.8658 65.7164 88.8511 66.6714 88.9254C67.4251 88.9927 68.1634 89.1491 68.8654 89.4401C70.5292 90.1195 71.6336 91.343 72.245 93.0139C72.6706 94.17 72.7975 95.3711 72.6629 96.5946C72.5661 97.4753 72.3347 98.3258 71.9315 99.1159C71.0888 100.765 69.7453 101.78 67.9545 102.235C67.2611 102.406 66.5522 102.473 65.8433 102.473ZM68.9025 95.7588C68.8801 95.4609 68.8654 95.1622 68.8274 94.8712C68.7678 94.3712 68.6487 93.8868 68.425 93.4318C68.0141 92.6107 67.3803 92.0891 66.4771 91.9173C65.9849 91.8275 65.4997 91.8724 65.0145 91.9691C64.3876 92.096 63.8877 92.4242 63.5077 92.9388C63.2539 93.2901 63.0673 93.6701 62.9474 94.088C62.7539 94.7443 62.6943 95.4237 62.7462 96.1024C62.7911 96.6914 62.9102 97.2586 63.1641 97.7879C63.5077 98.5123 64.0301 99.0494 64.7985 99.3249C65.194 99.4665 65.6042 99.5114 66.0221 99.4889C67.0444 99.4294 67.8276 98.9674 68.3499 98.0789C68.432 97.9303 68.507 97.7732 68.5744 97.6092C68.8127 97.0203 68.8948 96.3934 68.9025 95.7588ZM111.592 87.5603C111.412 87.5603 111.256 87.5603 111.092 87.5603C110.793 87.568 110.488 87.575 110.181 87.5827C110.159 87.5827 110.136 87.5905 110.107 87.5905C109.562 87.6423 109.331 87.8814 109.256 88.4185C109.204 88.7985 109.218 89.187 109.226 89.5894C110.07 89.5971 110.898 89.5894 111.718 89.5971C111.763 89.7388 111.771 91.5814 111.734 91.8871H109.256C109.249 91.9916 109.249 92.0736 109.249 92.1556C109.241 94.8642 109.241 97.572 109.241 100.28V101.876C109.241 101.951 109.234 102.018 109.234 102.1H105.495C105.488 101.243 105.495 100.399 105.495 99.5493C105.495 98.7058 105.495 97.8553 105.495 97.0048V91.8948H103.488V89.6041C103.555 89.6041 103.615 89.5971 103.682 89.5971C104.219 89.5971 104.749 89.5971 105.286 89.5971C105.354 89.5971 105.428 89.5894 105.518 89.5817C105.518 89.0895 105.518 88.3806 105.518 87.8962C105.518 87.486 105.555 87.0828 105.659 86.6804C105.831 86.0381 106.189 85.5459 106.749 85.1883C107.271 84.8594 107.846 84.6807 108.458 84.5909C109.167 84.4864 109.876 84.5243 110.584 84.6133C110.92 84.6582 111.248 84.7031 111.592 84.748V87.5603ZM135.156 84.7851H138.88C138.917 84.9268 138.924 101.891 138.887 102.1H135.164C135.126 101.958 135.111 84.9941 135.156 84.7851ZM50.5612 89.2837H54.2101V90.6117C54.3966 90.4701 54.546 90.3579 54.6946 90.2457C54.8517 90.1342 55.0158 90.0298 55.1798 89.933C55.3439 89.8432 55.5157 89.7535 55.6945 89.6792C55.8663 89.6041 56.0381 89.5376 56.2168 89.4849C56.3964 89.4253 56.5829 89.3735 56.7694 89.3356C56.9559 89.2915 57.1502 89.2613 57.3367 89.2241C57.5232 89.194 57.7097 89.1715 57.9186 89.1491V92.4768C57.7321 92.5062 57.5456 92.5441 57.3591 92.5658C56.7771 92.6555 56.1944 92.7453 55.6279 92.9016C55.5234 92.9318 55.419 92.969 55.3145 93.0139C54.7325 93.2151 54.4261 93.6407 54.3595 94.2443C54.3293 94.4533 54.3146 94.6622 54.3146 94.8712C54.3146 97.199 54.3146 99.5269 54.3146 101.854V102.1H50.5682C50.531 101.958 50.5163 89.4927 50.5612 89.2837ZM113.666 102.085V89.2984C113.815 89.2613 116.957 89.2466 117.344 89.2837C117.352 89.2837 117.352 89.2915 117.36 89.2915C117.36 89.2984 117.367 89.3062 117.367 89.3062C117.375 89.3356 117.382 89.358 117.382 89.3805V102.011C117.382 102.033 117.375 102.063 117.367 102.085C117.225 102.122 113.86 102.13 113.666 102.085ZM113.674 87.6501V84.755H117.352C117.389 84.8973 117.405 87.3815 117.367 87.6346C117.233 87.6725 114.121 87.6872 113.674 87.6501Z" fill="#0F3255"/>
</g>
<defs>
<clipPath id="clip0_132_5250">
<rect width="120.65" height="18.1089" fill="white" transform="translate(33.175 84.4766)"/>
</clipPath>
</defs>
</svg>
