<svg width="187" height="187" viewBox="0 0 187 187" fill="none" xmlns="http://www.w3.org/2000/svg">
<rect width="187" height="187" fill="white"/>
<path fill-rule="evenodd" clip-rule="evenodd" d="M28.7708 86.2495L33.7298 91.6987C34.6028 92.658 34.229 94.6894 33.666 95.5452L28.7407 90.1876C27.9067 89.0848 28.2836 87.2802 28.7708 86.2495Z" fill="#FDC400"/>
<path fill-rule="evenodd" clip-rule="evenodd" d="M23.5424 92.0727L30.6161 95.8697C31.6047 96.4064 31.9538 98.7418 31.9478 99.7755L24.3891 95.7871C23.4298 95.1813 23.378 93.0509 23.5424 92.0727ZM36.9368 83.4812L38.7309 90.4633C38.9907 91.4775 37.5914 92.7686 36.8497 93.3969L35.0894 86.511C34.7741 85.3069 35.9256 84.0757 36.9368 83.4812Z" fill="#E95D0F"/>
<path fill-rule="evenodd" clip-rule="evenodd" d="M20.451 100.312L28.8444 100.408C30.2279 100.425 31.4148 102.164 31.9958 103.252H23.1062C21.9186 103.132 20.8234 101.306 20.451 100.312ZM44.8745 84.8257L44.3865 91.1074C44.304 92.1568 42.4227 92.6358 41.6623 92.8535L42.1255 86.9937C42.2208 85.7873 43.8746 85.0659 44.8745 84.8257ZM34.6434 103.083H36.0149C35.3708 101.138 35.6291 99.1772 36.644 98.0872C38.8007 95.8592 41.1368 96.3074 43.831 97.6076L44.9158 96.3284C42.0301 93.7047 37.3136 93.3662 34.6825 96.4462C33.8034 97.4672 32.9424 100.576 34.6434 103.083ZM58.5917 90.2156C60.1816 90.2486 61.5261 91.1584 62.4307 92.6688L61.0224 93.5411C59.2395 91.792 57.612 91.5037 56.2068 93.2663C54.7977 95.0342 54.8157 98.398 56.1017 100.205C57.5287 102.11 59.8018 101.603 61.1305 99.7875L62.4262 100.884C61.4165 102.726 59.9557 103.388 57.9213 103.286C51.9309 102.804 51.3386 90.3807 58.5917 90.2156ZM67.8288 93.3452C66.8178 93.359 65.7694 93.6209 64.995 94.0583L65.6706 95.6723C66.8507 94.9344 68.3986 94.5725 69.4803 95.7474C69.686 95.9703 69.6222 96.2293 69.6304 96.5168V97.4551C67.1727 96.6602 65.5107 97.0783 64.4695 98.7126C63.8344 100.011 64.1895 101.695 65.0513 102.522C66.2591 103.613 68.2297 103.497 69.6492 102.26V103.01H71.3007V95.8036C71.121 94.0063 69.5138 93.3222 67.8288 93.3452ZM67.7537 98.6562C68.2892 98.6525 68.9197 98.7287 69.6304 98.919V100.533C68.0653 102.055 66.4386 101.853 65.9333 100.852C65.4007 99.5036 66.1475 98.6675 67.7537 98.6562ZM78.1319 93.6455C77.08 93.6076 76.1975 93.8808 75.6922 94.5275V93.683H73.9469V103.029H75.6922V96.3479C76.7337 94.8942 79.0194 95.1388 79.2955 96.9109V103.029H81.0408V96.6857C80.8974 94.8398 79.607 93.641 78.1319 93.6455ZM86.8398 93.3452C85.8288 93.359 84.7992 93.6209 84.0248 94.0583L84.6816 95.6723C85.8624 94.9344 87.4096 94.5725 88.4913 95.7474C88.697 95.9703 88.652 96.2293 88.6602 96.5168V97.4551C86.2032 96.6602 84.5405 97.0783 83.4993 98.7126C82.8642 100.011 83.2193 101.695 84.0811 102.522C85.2889 103.613 87.2587 103.497 88.679 102.26V103.01H90.3117V95.8036C90.1325 94.0063 88.5249 93.3222 86.8398 93.3452ZM86.7835 98.6562C87.3189 98.6525 87.9495 98.7287 88.6602 98.919V100.533C87.095 102.055 85.4676 101.853 84.9631 100.852C84.4305 99.5036 85.1773 98.6675 86.7835 98.6562ZM110.336 93.3452C109.325 93.359 108.296 93.6209 107.521 94.0583L108.178 95.6723C109.358 94.9344 110.906 94.5725 111.988 95.7474C112.193 95.9703 112.148 96.2293 112.157 96.5168V97.4551C109.7 96.6602 108.036 97.0783 106.996 98.7126C106.36 100.011 106.716 101.695 107.577 102.522C108.786 103.613 110.755 103.497 112.175 102.26V103.01H113.808V95.8036C113.628 94.0063 112.021 93.3222 110.336 93.3452ZM110.28 98.6562C110.815 98.6525 111.446 98.7287 112.157 98.919V100.533C110.591 102.055 108.965 101.853 108.459 100.852C107.927 99.5036 108.674 98.6675 110.28 98.6562ZM154.195 93.3452C153.184 93.359 152.136 93.6209 151.361 94.0583L152.018 95.6723C153.198 94.9344 154.746 94.5725 155.827 95.7474C156.033 95.9703 155.988 96.2293 155.996 96.5168V97.4551C153.539 96.6602 151.877 97.0783 150.835 98.7126C150.2 100.011 150.556 101.695 151.417 102.522C152.626 103.613 154.596 103.497 156.015 102.26V103.01H157.667V95.8036C157.487 94.0063 155.88 93.3222 154.195 93.3452ZM154.12 98.6562C154.655 98.6525 155.286 98.7287 155.996 98.919V100.533C154.431 102.055 152.805 101.853 152.299 100.852C151.767 99.5036 152.513 98.6675 154.12 98.6562ZM120.602 93.6455C119.561 93.608 118.689 93.8764 118.181 94.5088V93.683H116.417V103.029H118.181V96.3291C119.23 94.8987 121.491 95.1474 121.765 96.9109V103.029H123.511V96.6857C123.368 94.8398 122.076 93.641 120.602 93.6455ZM102.652 103.021H104.4V93.6785H102.652V103.021ZM103.579 90.1916C104.235 90.1916 104.77 90.7268 104.77 91.3829C104.77 92.0382 104.235 92.5735 103.579 92.5735C102.923 92.5735 102.388 92.0382 102.388 91.3829C102.388 90.7268 102.923 90.1916 103.579 90.1916ZM99.958 90.0797L98.2126 91.1119V95.0718C97.8184 94.0633 96.7836 93.6365 95.4914 93.683C94.0163 93.6785 92.7252 94.8961 92.5825 96.742C92.4631 98.0179 92.4907 99.1709 92.5825 100.289C92.583 100.295 92.582 100.302 92.5825 100.308C92.7327 102.143 94.0215 103.352 95.4914 103.348C96.7812 103.394 97.8167 102.964 98.2126 101.959V103.254H99.958V90.0797ZM96.1295 95.4471C96.9463 95.4508 97.8104 95.9348 98.2126 96.9109V100.12C97.3924 102.119 94.6471 102.245 94.3279 100.308C94.3269 100.302 94.3288 100.295 94.3279 100.289C94.1188 99.121 94.1166 98.011 94.3279 96.9485C94.4836 95.9486 95.2757 95.4433 96.1295 95.4471ZM163.879 93.6642C163.126 93.6891 162.421 94.0259 161.964 94.8278V93.683H160.219V103.029H161.964V96.4793C162.475 95.661 163.443 94.8638 165.136 95.7849L165.549 94.0959C165.045 93.8107 164.448 93.6454 163.879 93.6642ZM146.502 91.1179L148.249 90.0857V103.259H146.502M140.213 93.439C137.965 93.439 136.122 95.6895 136.122 98.4498C136.122 101.209 137.965 103.461 140.213 103.461C142.462 103.461 144.286 101.209 144.286 98.4498C144.286 95.6895 142.462 93.439 140.213 93.439ZM140.213 95.3908C141.588 95.3908 142.691 96.763 142.691 98.4498C142.691 100.136 141.588 101.509 140.213 101.509C138.839 101.509 137.717 100.136 137.717 98.4498C137.717 96.763 138.839 95.3908 140.213 95.3908ZM128.733 90.6645C131.028 90.0189 132.632 90.8176 133.987 92.1373L132.803 93.5149C131.189 92.0255 129.353 91.5938 128.239 93.0907C128.201 93.1425 128.183 93.1755 128.168 93.2146C128.156 93.2453 128.144 93.2799 128.135 93.3287C127.901 94.6229 128.392 95.4523 131.565 96.1347C133.483 96.7945 134.994 98.2547 134.166 101.086C133.423 102.878 131.785 103.809 129.078 103.44C127.631 103.196 126.594 102.474 125.769 101.387L127.018 100.109C128.555 101.654 130.342 102.223 131.758 101.412C133.341 99.9684 132.394 98.3192 129.914 97.6473C127.693 97.0686 126.567 96.215 126.286 94.9989C125.913 92.8024 127.06 91.2493 128.733 90.6645Z" fill="#CA041A"/>
</svg>
