<svg width="187" height="187" viewBox="0 0 187 187" fill="none" xmlns="http://www.w3.org/2000/svg">
<rect width="187" height="187" fill="white"/>
<g clip-path="url(#clip0_132_5224)">
<path d="M51.0314 82.8977H45.6672V104.04H51.0314C56.8667 104.04 61.6016 99.3077 61.6016 93.4654C61.6016 87.63 56.8665 82.8977 51.0314 82.8977Z" fill="#FEDF04"/>
<path d="M50.8551 77.229H45.6919V83.3267H50.8551C56.472 83.3267 61.029 87.8811 61.029 93.5006C61.029 99.1217 56.472 103.674 50.8551 103.674H45.6919V109.771H50.8551C59.8416 109.771 67.3267 103.188 67.3267 93.5006C67.3267 83.6871 59.8416 77.229 50.8551 77.229ZM64.0313 109.771H70.136V103.673H64.0313V109.771ZM125.059 93.5006L137.019 81.542V77.229H132.504L118.519 91.212V77.229H64.0673V83.3267H75.5336V109.771H81.93V83.3267H93.4526C91.349 86.0144 90.084 89.472 90.084 93.5006C90.084 103.188 97.5675 109.771 106.553 109.771H118.519V95.7892L132.504 109.771H141.332L125.059 93.5006ZM112.122 103.674H106.553C101.964 103.674 98.0845 100.628 96.8195 96.4499H105.851V90.5433H96.8195C98.0846 86.3693 101.967 83.3267 106.553 83.3267H112.122V103.674Z" fill="#231F20"/>
</g>
<defs>
<clipPath id="clip0_132_5224">
<rect width="95.665" height="33.3678" fill="white" transform="translate(45.6674 76.8162)"/>
</clipPath>
</defs>
</svg>
