<svg width="187" height="187" viewBox="0 0 187 187" fill="none" xmlns="http://www.w3.org/2000/svg">
<rect width="187" height="187" fill="white"/>
<path d="M116.451 101.499H112.515V96.7343H115.866V92.5798H112.515V88.4734H116.079V84.115H107.197V105.859H116.451V101.499Z" fill="#1B4A96"/>
<path d="M75.0417 88.423H76.6917V105.859H82.0091V84.0638H69.7239V105.859H75.0417V88.423Z" fill="#1B4A96"/>
<path d="M67.9074 101.094H63.5988V95.8227H67.2691V91.2619H63.5988V86.6997H67.5348V81.9351H57.7487V105.859H67.9074V101.094Z" fill="#1B4A96"/>
<path d="M123.586 96.7343H125.234V105.859H130.553V84.115H125.234V91.9205H123.586V84.115H118.268V105.859H123.586V96.7343Z" fill="#1B4A96"/>
<path d="M135.197 105.859H140.516V88.4734H143.706V84.115H132.059V88.4734H135.197V105.859Z" fill="#1B4A96"/>
<path d="M89.1434 84.115H83.8251V105.859H89.1434V84.115Z" fill="#1B4A96"/>
<path d="M105.691 101.094H104.468V81.9351H98.6181V101.094H96.8095V81.9351H90.9598V105.859H101.649V108.224H105.691V101.094Z" fill="#1B4A96"/>
<path d="M151.05 92.9654C149.499 92.9654 148.234 91.7004 148.234 90.1457C148.234 88.5931 149.499 87.3287 151.05 87.3287C152.605 87.3287 153.869 88.5931 153.869 90.1457C153.869 91.7004 152.605 92.9654 151.05 92.9654ZM156.495 87.1815C156.359 86.5326 156.094 85.9795 155.7 85.524C155.306 85.068 154.717 84.7189 153.934 84.478C153.149 84.236 152.035 84.115 150.59 84.115H145.212V105.859H150.53V97.0891H151.971C153.138 97.0891 154.083 96.9195 154.808 96.58C155.532 96.2405 156.03 95.7525 156.298 95.1174C156.566 94.4825 156.7 93.4713 156.7 92.085V90.1931C156.7 88.8343 156.632 87.83 156.495 87.1815Z" fill="#1B4A96"/>
<path d="M151.447 91.5513L150.841 90.3801V91.5513H149.946V88.7427H150.841V89.9474L151.411 88.7427H152.44L151.675 90.1294L152.547 91.5513H151.447ZM151.05 88.0047C149.871 88.0047 148.909 88.9674 148.909 90.1457C148.909 91.328 149.871 92.2874 151.05 92.2874C152.233 92.2874 153.193 91.328 153.193 90.1457C153.193 88.9674 152.233 88.0047 151.05 88.0047Z" fill="#1B4A96"/>
<path d="M158.767 85.3884C158.748 85.4163 158.722 85.4359 158.686 85.449C158.64 85.4663 158.573 85.4748 158.486 85.4748H158.113V85.1221H158.538C158.633 85.1221 158.704 85.1394 158.743 85.1727C158.778 85.2043 158.795 85.243 158.795 85.2927C158.795 85.3275 158.786 85.3586 158.767 85.3884ZM159.328 86.4358L159.044 85.9892C158.989 85.9064 158.932 85.8383 158.875 85.7803C158.953 85.7485 159.02 85.7071 159.071 85.653C159.163 85.556 159.209 85.4343 159.209 85.2927C159.209 85.1847 159.182 85.0842 159.128 84.9953C159.071 84.9021 158.993 84.8362 158.899 84.7989C158.81 84.7647 158.689 84.7488 158.529 84.7488H157.704V86.5829H158.113V85.8535H158.27C158.335 85.8535 158.361 85.8578 158.371 85.8597C158.392 85.865 158.415 85.8756 158.439 85.8905C158.454 85.9007 158.482 85.9241 158.526 85.9785C158.564 86.0279 158.616 86.1018 158.678 86.1978C158.677 86.1975 158.895 86.5387 158.895 86.5387L158.922 86.5829H159.421L159.328 86.4358Z" fill="#1B4A96"/>
<path d="M158.46 83.9773C157.524 83.9773 156.764 84.7385 156.764 85.6738C156.764 86.6086 157.524 87.3696 158.46 87.3696C159.395 87.3696 160.156 86.6086 160.156 85.6738C160.156 84.7385 159.395 83.9773 158.46 83.9773ZM159.81 85.6738C159.81 86.418 159.204 87.0241 158.46 87.0241C157.714 87.0241 157.109 86.418 157.109 85.6738C157.109 84.9284 157.714 84.3228 158.46 84.3228C159.204 84.3228 159.81 84.9284 159.81 85.6738Z" fill="#1B4A96"/>
<path d="M39.8253 105.803C33.8416 105.803 28.9734 100.935 28.9734 94.9516C28.9734 89.621 32.8378 85.1791 37.9116 84.2722V86.6476C37.9116 87.2854 38.2119 87.8719 38.7123 88.2435V90.2384H34.2413C33.7248 90.2384 33.2572 90.4995 32.9859 90.9442C32.723 91.3867 32.7075 91.9384 32.9445 92.382L38.5931 103.165C38.8468 103.649 39.3454 103.95 39.8937 103.95C40.4445 103.95 40.9427 103.648 41.1925 103.165L46.8444 92.3839C47.0825 91.9334 47.066 91.3808 46.7989 90.9376C46.5337 90.5066 46.0545 90.2384 45.5479 90.2384H41.0752V88.2446C41.5788 87.8719 41.8806 87.2847 41.8806 86.6476V84.2975C46.8846 85.2608 50.6773 89.6705 50.6773 94.9516C50.6773 100.935 45.8091 105.803 39.8253 105.803ZM41.8806 81.8383V79.6457C41.8806 78.5526 40.9893 77.664 39.8937 77.664C38.8008 77.664 37.9116 78.5526 37.9116 79.6457V81.8182C31.4965 82.7489 26.5522 88.2826 26.5522 94.9516C26.5522 102.27 32.5065 108.224 39.8253 108.224C47.1441 108.224 53.0984 102.27 53.0984 94.9516C53.0984 88.3316 48.2269 82.829 41.8806 81.8383Z" fill="#1B4A96"/>
</svg>
