<svg width="187" height="187" viewBox="0 0 187 187" fill="none" xmlns="http://www.w3.org/2000/svg">
<rect width="187" height="187" fill="white"/>
<g clip-path="url(#clip0_132_5228)">
<path fill-rule="evenodd" clip-rule="evenodd" d="M37.0658 89.1652C38.5235 91.6127 38.5757 95.4664 37.0135 97.8616C35.087 101.091 31.5453 102.809 27.7446 102.288C24.7762 101.871 21.8085 99.6843 20.7142 96.7681C19.2557 93.4354 20.2977 89.478 22.8489 87.0828C25.5047 84.4793 29.9308 83.9061 33.1598 85.5206C34.722 86.3013 36.1797 87.603 37.0658 89.1652Z" fill="#3A73B8"/>
<path fill-rule="evenodd" clip-rule="evenodd" d="M36.9612 89.9465C38.1592 92.7059 37.8987 96.4029 35.92 98.6951C33.9935 101.038 31.181 102.236 27.9529 101.871C25.2971 101.507 22.7452 99.7363 21.4434 97.3404C20.0372 94.5801 20.4014 90.6227 22.3802 88.2275C24.5149 85.6763 27.7953 84.6343 31.1288 85.2598C33.5762 85.7278 35.8677 87.7065 36.9612 89.9465Z" fill="white"/>
<path fill-rule="evenodd" clip-rule="evenodd" d="M30.9726 85.7279C29.9314 85.7279 28.6297 85.4674 28.0564 86.5086C28.0564 86.8214 28.0564 87.1341 28.3691 87.2901C29.4626 87.2901 30.1911 86.0399 31.4936 86.6131C33.8366 86.8222 36.128 88.6964 36.805 90.9356C37.2215 92.2373 37.4298 93.851 37.0133 95.1527C37.0655 94.216 37.273 92.9658 36.3363 92.4456C36.0235 92.3418 35.6593 92.4456 35.4503 92.7053C35.2943 93.695 36.4923 94.1638 36.2832 95.205C36.1272 97.5487 34.6173 99.7872 32.4818 100.725C31.0756 101.297 29.4096 101.661 27.7951 101.297C28.5766 101.453 29.6178 101.297 30.1903 100.568C30.2426 100.256 30.1388 99.8909 29.8261 99.7349C28.8363 99.7349 28.0556 100.828 26.9099 100.412C24.8266 100.203 22.8479 98.9011 21.8067 96.9755C21.0252 95.4125 20.7655 93.2778 21.338 91.5073C21.1812 92.4448 21.0775 93.642 21.8067 94.3712C21.9627 94.5795 22.2754 94.5795 22.5359 94.5272C22.8479 94.319 22.9524 93.8502 22.7442 93.5905C22.0672 92.8613 21.9635 91.8193 22.1717 90.8303C22.4845 88.7471 24.2027 86.7683 26.2337 86.0914C27.5876 85.4674 29.4626 85.4151 30.9726 85.7279Z" fill="#3A73B8"/>
<path fill-rule="evenodd" clip-rule="evenodd" d="M28.5246 89.2164C28.7336 90.5704 27.5871 91.6116 26.4936 92.2371C26.4936 92.4453 26.7018 92.5491 26.9101 92.6013C28.2641 92.7051 27.8476 90.7271 29.0971 90.8309C29.5658 91.6638 28.0036 92.0289 28.5238 92.9141C29.1968 92.5465 29.841 92.1285 30.451 91.6638C30.3465 90.5181 30.7108 89.4246 31.649 88.7999C31.961 88.6439 32.4298 88.6439 32.6903 88.8521C33.0545 89.1126 33.0022 89.6329 32.9508 89.9979C32.638 90.8309 31.961 91.1959 31.3363 91.8206C31.4408 92.8104 32.482 91.8729 32.9508 92.4453C33.1067 92.8096 32.6903 92.9656 32.4298 93.0178C31.8573 92.8618 31.3363 93.0178 30.8675 93.3821C30.295 93.8508 30.1383 94.4755 30.0345 95.1003C30.0345 96.0378 30.3988 97.0275 31.3363 97.3917C31.961 97.4432 32.482 97.3395 32.8985 96.9222C33.2635 96.6102 33.3672 96.193 33.3672 95.7765C33.315 95.36 33.2113 94.8912 32.7425 94.683C32.4305 94.5785 32.0133 94.683 31.8573 95.048C31.5445 95.569 32.638 96.0378 31.8573 96.4012C31.3885 96.3497 31.1803 95.881 31.0243 95.516C31.0243 95.0472 31.1803 94.6307 31.4408 94.3188C31.8573 94.0583 32.326 93.8492 32.847 94.006C33.5763 94.1105 33.9405 94.839 34.0973 95.5168C34.0973 96.1938 33.9928 96.8185 33.5763 97.3395C33.056 97.912 32.3791 98.0687 31.5976 98.121C30.9206 98.0165 30.2958 97.809 29.7748 97.235C29.2023 96.402 28.9418 95.048 29.4628 94.1105C29.7748 93.4858 30.2958 93.017 30.8168 92.6528C30.9213 92.5483 30.8168 92.4446 30.7123 92.3408C29.8793 92.6006 29.2023 93.3306 28.4208 93.694C28.1603 95.3085 28.0566 97.235 26.3899 97.9642C25.8696 98.121 25.3486 98.1733 24.8276 97.9128C24.3066 97.6008 24.1506 97.0275 24.2029 96.402C24.6202 94.6838 26.3899 94.1636 27.6401 93.3821C27.7446 93.2775 27.7446 93.1738 27.7446 93.0178C27.3796 92.9141 26.9631 93.3821 26.4944 93.1738C25.7137 93.0178 25.8696 91.9758 25.0881 91.9758C24.6194 91.5593 24.5671 90.8301 24.7239 90.2576C24.8276 90.1016 24.9322 89.9971 25.0881 89.9456C25.2441 90.5181 24.8276 91.4033 25.6084 91.5593C25.8689 90.4136 26.3376 89.0596 27.5871 88.6954C28.0044 88.6962 28.4731 88.7999 28.5246 89.2164Z" fill="white"/>
<path fill-rule="evenodd" clip-rule="evenodd" d="M27.8482 89.5291C27.796 90.3098 27.1712 90.9353 26.5465 91.3518C26.4943 90.6226 26.9107 89.8411 27.5877 89.4246C27.6915 89.3731 27.796 89.4254 27.8482 89.5291ZM32.2744 89.5291C32.2222 90.2061 31.7534 90.5703 31.2332 90.9354C31.2332 90.3106 31.4937 89.7374 32.0139 89.4246C32.1184 89.3731 32.2744 89.4254 32.2744 89.5291ZM27.4832 94.268C27.3787 95.466 27.0145 96.6633 25.921 97.3402C25.5045 97.3925 25.1395 97.2357 25.088 96.8715C25.1403 95.5698 26.4943 94.7883 27.4832 94.268ZM51.7886 91.3035C51.9345 89.8793 50.9564 89.898 50.0564 89.898C47.8967 89.898 47.6877 90.7224 47.3609 92.9913L47.0317 95.2781C46.673 97.7716 47.325 98.0336 48.8849 98.0336C50.4144 98.0336 50.8815 97.6023 51.1623 95.6524H49.0923L49.4675 93.0474H54.5824L54.2283 95.5035C53.5458 100.246 52.4609 101.109 48.4419 101.109C44.9025 101.109 43.2108 100.359 43.8667 95.803L44.3901 92.1669C45.0593 87.5176 47.1994 86.8235 50.4986 86.8235C53.4078 86.8235 55.3834 87.4794 54.8327 91.3035H51.7886ZM62.6205 97.7146C62.4075 99.195 61.8959 100.039 61.1503 100.526C60.4078 100.995 59.4321 101.107 58.2918 101.107C55.1876 101.107 54.6315 99.7581 55.1611 96.083C55.7063 92.2971 56.5767 91.0406 59.7417 91.0406C62.6961 91.0406 63.4324 92.0717 62.8545 96.083L62.7757 96.6266H57.6616C57.4128 98.3518 57.5501 98.8572 58.6155 98.8572C59.4102 98.8572 59.9359 98.7449 60.0849 97.7138L62.6205 97.7146ZM60.4538 94.8468C60.6652 93.3844 60.2424 93.2908 59.3736 93.2908C58.4587 93.2908 58.1358 93.5536 57.9198 94.8468H60.4538ZM66.0468 100.996H63.4675L64.8846 91.1537H67.4639L67.1995 92.9905H67.3048C67.9038 91.4345 68.7251 91.0406 69.9402 91.0406C71.6795 91.0406 72.3261 92.0717 72.0211 94.1901L71.0407 100.995H68.4615L69.3334 94.9396C69.4559 93.9834 69.3139 93.5146 68.4739 93.5146C67.3196 93.5146 66.9999 94.3772 66.8275 95.5776L66.0468 100.996ZM80.5108 97.7146C80.2979 99.195 79.7855 100.039 79.0406 100.526C78.2981 100.995 77.3224 101.107 76.1821 101.107C73.078 101.107 72.5219 99.7581 73.0514 96.083C73.5966 92.2971 74.467 91.0406 77.632 91.0406C80.5865 91.0406 81.3227 92.0717 80.7448 96.083L80.6668 96.6266H75.5527C75.3047 98.3518 75.4412 98.8572 76.5066 98.8572C77.3014 98.8572 77.827 98.7449 77.976 97.7138L80.5108 97.7146ZM78.3441 94.8468C78.5547 93.3844 78.1328 93.2908 77.2631 93.2908C76.3483 93.2908 76.0254 93.5536 75.8093 94.8468H78.3441ZM83.8919 100.996H81.3126L82.7298 91.1537H85.2342L85.0259 92.5974H85.1304C85.6374 91.4727 86.3744 91.0414 87.3345 91.0414C89.1347 91.0414 89.02 92.8782 88.7603 94.6775L88.6495 95.4465H86.3253L86.3924 94.977C86.4922 94.2837 86.6326 93.5146 85.9275 93.5146C85.1476 93.5146 84.8567 94.2836 84.7412 95.0901L83.8919 100.996ZM93.9555 99.5335C93.5671 100.884 92.3644 101.109 91.4643 101.109C89.6642 101.109 88.6932 100.565 89.0551 98.0531C89.3952 95.6914 90.4902 94.9599 92.3496 94.9599C93.0843 94.9599 94.2129 94.9411 94.3345 96.0658H94.4547L94.6785 94.5098C94.8111 93.5911 94.8493 93.0108 93.7246 93.0108C93.0796 93.0108 92.6483 93.198 92.5212 94.0793H89.9419C90.3818 91.0235 92.164 91.0422 94.0085 91.0422C96.6486 91.0422 97.6977 91.4548 97.2102 94.8475L96.3234 100.997H93.7449L94.0452 99.5342L93.9555 99.5335ZM92.9213 96.9277C92.2911 96.9277 91.7771 97.0587 91.6476 97.9587C91.494 99.0273 92.2287 99.0273 92.6187 99.0273C93.6973 99.0273 94.0522 98.858 94.2004 97.8277C94.3189 97.0018 93.7605 96.9277 92.9213 96.9277ZM100.612 100.996H98.033L100.058 86.9358H102.636L100.612 100.996ZM112.048 92.5787H116.846L116.472 95.1837H111.673L111.278 97.9213H116.497L116.054 100.996H107.835L109.86 86.9358H117.975L117.532 90.0103H112.418L112.048 92.5787ZM120.508 100.996H117.929L119.954 86.9358H122.533L120.508 100.996ZM129.991 97.7146C129.778 99.195 129.267 100.039 128.523 100.526C127.779 100.995 126.804 101.107 125.663 101.107C122.559 101.107 122.005 99.7581 122.533 96.083C123.078 92.2971 123.949 91.0406 127.113 91.0406C130.068 91.0406 130.804 92.0717 130.227 96.083L130.147 96.6266H125.033C124.785 98.3518 124.922 98.8572 125.987 98.8572C126.783 98.8572 127.307 98.7449 127.457 97.7138L129.991 97.7146ZM127.825 94.8468C128.035 93.3844 127.614 93.2908 126.744 93.2908C125.829 93.2908 125.506 93.5536 125.29 94.8468H127.825ZM138.589 97.0587C138.325 98.8955 137.874 99.8337 137.181 100.377C136.5 100.94 135.592 101.109 134.197 101.109C131.152 101.109 130.597 99.9648 131.156 96.0845C131.636 92.7479 132.422 91.0422 135.647 91.0422C137.911 91.0422 139.4 91.4361 138.909 94.8475H136.328C136.42 94.3226 136.42 94.0036 136.271 93.7977C136.12 93.5911 135.831 93.5162 135.291 93.5162C134.375 93.5162 134.06 93.8352 133.736 96.0845C133.403 98.3908 133.579 98.635 134.554 98.635C135.724 98.635 135.835 98.2785 136.01 97.0595L138.589 97.0587ZM146.148 93.5154H143.162L142.529 97.9213C142.46 98.5024 142.515 98.7465 142.995 98.7465C143.67 98.7465 143.727 98.1459 143.853 97.4713L143.944 96.9464H146L145.872 97.8277C145.486 100.508 144.606 101.108 142.505 101.108C140.856 101.108 139.529 100.845 139.886 98.3706L140.584 93.5146H139.625L139.965 91.153H140.924L141.225 89.0721H143.804L143.505 91.153H146.489L146.148 93.5154ZM148.998 100.996H146.417L147.835 91.1537H150.339L150.13 92.5974H150.235C150.742 91.4727 151.48 91.0414 152.44 91.0414C154.239 91.0414 154.124 92.8782 153.865 94.6775L153.754 95.4465H151.43L151.498 94.977C151.597 94.2837 151.738 93.5146 151.033 93.5146C150.253 93.5146 149.962 94.2836 149.847 95.0901L148.998 100.996ZM156.331 100.996H153.765L155.182 91.1537H157.747L156.331 100.996ZM157.999 89.4106H155.434L155.79 86.9358H158.355L157.999 89.4106ZM165.578 97.0587C165.314 98.8955 164.863 99.8337 164.17 100.377C163.489 100.94 162.581 101.109 161.186 101.109C158.141 101.109 157.586 99.9648 158.146 96.0845C158.625 92.7479 159.411 91.0422 162.637 91.0422C164.9 91.0422 166.389 91.4361 165.898 94.8475H163.317C163.409 94.3226 163.409 94.0036 163.26 93.7977C163.109 93.5911 162.82 93.5162 162.28 93.5162C161.364 93.5162 161.049 93.8352 160.725 96.0845C160.393 98.3908 160.568 98.635 161.543 98.635C162.713 98.635 162.825 98.2785 162.999 97.0595L165.578 97.0587Z" fill="#3A73B8"/>
</g>
<defs>
<clipPath id="clip0_132_5228">
<rect width="146" height="17.8591" fill="white" transform="translate(20 84.5706)"/>
</clipPath>
</defs>
</svg>
