<svg width="1094" height="60" viewBox="2480 0 1300 60" fill="none" xmlns="http://www.w3.org/2000/svg">
<path d="M6 30.0001C26.8541 12.6217 57.1459 12.6217 78 30.0001C98.8541 47.3785 129.146 47.3785 150 30.0001C170.854 12.6217 201.146 12.6217 222 30.0001C242.854 47.3785 273.146 47.3785 294 30.0001C314.854 12.6217 345.146 12.6217 366 30.0001C386.854 47.3785 417.146 47.3785 438 30.0001C458.854 12.6217 489.146 12.6217 510 30.0001C530.854 47.3785 561.146 47.3785 582 30.0001C602.854 12.6217 633.146 12.6217 654 30.0001C674.854 47.3785 705.146 47.3785 726 30.0001C746.854 12.6217 777.146 12.6217 798 30.0001C818.854 47.3785 849.146 47.3785 870 30.0001C890.854 12.6217 921.146 12.6217 942 30.0001C962.854 47.3785 993.146 47.3785 1014 30.0001C1034.85 12.6217 1065.15 12.6217 1086 30.0001C1106.85 47.3785 1137.15 47.3785 1158 30.0001C1178.85 12.6217 1209.15 12.6217 1230 30.0001C1250.85 47.3785 1281.15 47.3785 1302 30.0001C1322.85 12.6217 1353.15 12.6217 1374 30.0001C1394.85 47.3785 1425.15 47.3785 1446 30.0001C1466.85 12.6217 1497.15 12.6217 1518 30.0001C1538.85 47.3785 1569.15 47.3785 1590 30.0001C1610.85 12.6217 1641.15 12.6217 1662 30.0001C1682.85 47.3785 1713.15 47.3785 1734 30.0001C1754.85 12.6217 1785.15 12.6217 1806 30.0001C1826.85 47.3785 1857.15 47.3785 1878 30.0001C1898.85 12.6217 1929.15 12.6217 1950 30.0001C1970.85 47.3785 2001.15 47.3785 2022 30.0001C2042.85 12.6217 2073.15 12.6217 2094 30.0001C2114.85 47.3785 2145.15 47.3785 2166 30.0001C2186.85 12.6217 2217.15 12.6217 2238 30.0001C2258.85 47.3785 2289.15 47.3785 2310 30.0001C2330.85 12.6217 2361.15 12.6217 2382 30.0001C2402.85 47.3785 2433.15 47.3785 2454 30.0001C2474.85 12.6217 2505.15 12.6217 2526 30.0001C2546.85 47.3785 2577.15 47.3785 2598 30.0001C2614.8 16 2633 17.0001 2634 17.0001" stroke="#B2C5FF" stroke-width="16"/>
<path d="M5262 30.0001C5241.15 12.6217 5210.85 12.6217 5190 30.0001C5169.15 47.3785 5138.85 47.3785 5118 30.0001C5097.15 12.6217 5066.85 12.6217 5046 30.0001C5025.15 47.3785 4994.85 47.3785 4974 30.0001C4953.15 12.6217 4922.85 12.6217 4902 30.0001C4881.15 47.3785 4850.85 47.3785 4830 30.0001C4809.15 12.6217 4778.85 12.6217 4758 30.0001C4737.15 47.3785 4706.85 47.3785 4686 30.0001C4665.15 12.6217 4634.85 12.6217 4614 30.0001C4593.15 47.3785 4562.85 47.3785 4542 30.0001C4521.15 12.6217 4490.85 12.6217 4470 30.0001C4449.15 47.3785 4418.85 47.3785 4398 30.0001C4377.15 12.6217 4346.85 12.6217 4326 30.0001C4305.15 47.3785 4274.85 47.3785 4254 30.0001C4233.15 12.6217 4202.85 12.6217 4182 30.0001C4161.15 47.3785 4130.85 47.3785 4110 30.0001C4089.15 12.6217 4058.85 12.6217 4038 30.0001C4017.15 47.3785 3986.85 47.3785 3966 30.0001C3945.15 12.6217 3914.85 12.6217 3894 30.0001C3873.15 47.3785 3842.85 47.3785 3822 30.0001C3801.15 12.6217 3770.85 12.6217 3750 30.0001C3729.15 47.3785 3698.85 47.3785 3678 30.0001C3657.15 12.6217 3626.85 12.6217 3606 30.0001C3585.15 47.3785 3554.85 47.3785 3534 30.0001C3513.15 12.6217 3482.85 12.6217 3462 30.0001C3441.15 47.3785 3410.85 47.3785 3390 30.0001C3369.15 12.6217 3338.85 12.6217 3318 30.0001C3297.15 47.3785 3266.85 47.3785 3246 30.0001C3225.15 12.6217 3194.85 12.6217 3174 30.0001C3153.15 47.3785 3122.85 47.3785 3102 30.0001C3081.15 12.6217 3050.85 12.6217 3030 30.0001C3009.15 47.3785 2978.85 47.3785 2958 30.0001C2937.15 12.6217 2906.85 12.6217 2886 30.0001C2865.15 47.3785 2834.85 47.3785 2814 30.0001C2793.15 12.6217 2762.85 12.6217 2742 30.0001C2721.15 47.3785 2690.85 47.3785 2670 30.0001C2653.2 16 2635 17.0001 2634 17.0001" stroke="white" stroke-width="16"/>
<circle cx="3210" cy="17" r="6" fill="#2A59BD"/>
<circle cx="3498" cy="17" r="6" fill="#2A59BD"/>
<circle cx="2634" cy="17" r="6" fill="#2A59BD"/>
<g clip-path="url(#clip0_1122_30055)">
<rect x="2618" y="1" width="32" height="32" rx="16" fill="#2A59BD"/>
<path d="M2632.5 13.64L2637.77 17L2632.5 20.36V13.64ZM2630.5 10V24L2641.5 17L2630.5 10Z" fill="white"/>
</g>
<circle cx="2922" cy="17" r="6" fill="#2A59BD"/>
<defs>
<clipPath id="clip0_1122_30055">
<rect x="2618" y="1" width="32" height="32" rx="16" fill="white"/>
</clipPath>
</defs>
</svg>
