<svg width="380" height="380" viewBox="0 0 380 380" fill="none" xmlns="http://www.w3.org/2000/svg">
<g opacity="0.6" clip-path="url(#clip0_1122_29785)">
<g opacity="0.9">
<path d="M322.41 322.391C354.241 290.56 320.767 205.479 247.646 132.357C174.524 59.2352 89.4427 25.762 57.6121 57.5926C25.7815 89.4232 59.2547 174.504 132.377 247.626C205.499 320.748 290.58 354.221 322.41 322.391Z" stroke="#2A59BD" stroke-miterlimit="10"/>
<path d="M305.339 339.466C337.169 307.635 303.696 222.554 230.574 149.432C157.452 76.3104 72.3713 42.8372 40.5407 74.6678C8.71009 106.498 42.1833 191.579 115.305 264.701C188.427 337.823 273.508 371.296 305.339 339.466Z" stroke="#2A59BD" stroke-miterlimit="10"/>
<path d="M330.93 313.877C362.76 282.047 329.287 196.966 256.165 123.844C183.043 50.7221 97.9621 17.2488 66.1315 49.0794C34.3009 80.9101 67.7741 165.991 140.896 239.113C214.018 312.235 299.099 345.708 330.93 313.877Z" stroke="#2A59BD" stroke-miterlimit="10"/>
<path d="M347.98 296.781C379.811 264.951 346.338 179.87 273.216 106.748C200.094 33.6258 115.013 0.15262 83.1824 31.9832C51.3518 63.8139 84.825 148.895 157.947 222.017C231.069 295.139 316.15 328.612 347.98 296.781Z" stroke="#2A59BD" stroke-miterlimit="10"/>
<path d="M356.541 288.268C388.372 256.437 354.898 171.357 281.776 98.2346C208.654 25.1127 123.574 -8.36056 91.743 23.4701C59.9123 55.3007 93.3856 140.382 166.508 213.503C239.629 286.625 324.71 320.099 356.541 288.268Z" stroke="#2A59BD" stroke-miterlimit="10"/>
<path d="M339.441 305.344C371.271 273.513 337.798 188.432 264.676 115.31C191.554 42.1883 106.473 8.71509 74.6425 40.5457C42.8119 72.3763 76.2851 157.457 149.407 230.579C222.529 303.701 307.61 337.174 339.441 305.344Z" stroke="#2A59BD" stroke-miterlimit="10"/>
<path d="M313.85 330.933C345.68 299.102 312.207 214.021 239.085 140.899C165.963 67.7772 80.8822 34.304 49.0515 66.1346C17.2209 97.9652 50.6942 183.046 123.816 256.168C196.938 329.29 282.019 362.763 313.85 330.933Z" stroke="#2A59BD" stroke-miterlimit="10"/>
<path d="M279.719 365.055C311.549 333.224 278.076 248.143 204.954 175.021C131.832 101.899 46.7513 68.4261 14.9207 100.257C-16.9099 132.087 16.5633 217.168 89.6853 290.29C162.807 363.412 247.888 396.885 279.719 365.055Z" stroke="#2A59BD" stroke-miterlimit="10"/>
<path d="M296.819 347.979C328.65 316.148 295.177 231.068 222.055 157.946C148.933 84.8236 63.8518 51.3504 32.0212 83.181C0.190532 115.012 33.6638 200.092 106.786 273.214C179.908 346.336 264.989 379.81 296.819 347.979Z" stroke="#2A59BD" stroke-miterlimit="10"/>
<path d="M288.259 356.521C320.089 324.69 286.616 239.61 213.494 166.488C140.372 93.3656 55.2912 59.8924 23.4606 91.723C-8.37001 123.554 25.1032 208.634 98.2252 281.756C171.347 354.878 256.428 388.352 288.259 356.521Z" stroke="#2A59BD" stroke-miterlimit="10"/>
<path d="M365.06 279.755C396.891 247.925 363.418 162.844 290.296 89.7219C217.174 16.6 132.093 -16.8733 100.262 14.9574C68.4317 46.788 101.905 131.869 175.027 204.991C248.149 278.113 333.23 311.586 365.06 279.755Z" stroke="#2A59BD" stroke-miterlimit="10"/>
</g>
</g>
<defs>
<clipPath id="clip0_1122_29785">
<rect width="380" height="380" fill="white"/>
</clipPath>
</defs>
</svg>
