<svg width="187" height="187" viewBox="0 0 187 187" fill="none" xmlns="http://www.w3.org/2000/svg">
<rect width="187" height="187" fill="white"/>
<g clip-path="url(#clip0_132_5288)">
<path fill-rule="evenodd" clip-rule="evenodd" d="M126.375 83.9016H131.392V91.4923H141.554V83.9016H146.572V102.862H141.554V94.4973H131.392V102.862H126.375V83.9016ZM32.2883 83.9016H37.3072V91.4923H47.4681V83.9016H52.5179V102.862H47.4681V94.4973H37.3072V102.862H32.2883V83.9016ZM56.6688 83.9016H61.7503V102.862H56.6688V83.9016ZM150.631 83.9016H155.712V102.862H150.631V83.9016ZM63.6088 83.9016H83.3432V87.0613H75.97V102.862H70.982V87.0613H63.6088V83.9016ZM87.6797 95.6122L91.1807 87.1542L94.6507 95.6122H87.6797ZM95.9203 98.6173L97.6557 102.862H103.326L94.3721 83.9325H88.0209L79.0059 102.862H84.6438L86.4101 98.6173H95.9203ZM118.598 90.3457H123.741C123.678 86.9066 120.705 83.623 113.796 83.5611C108.654 83.5302 102.426 85.6369 102.395 93.3507C102.364 101.003 108.715 103.388 113.796 103.264C118.473 103.109 123.678 101.809 123.896 96.0463L118.722 96.0772C118.567 99.6718 115.686 100.384 113.796 100.415C111.844 100.415 107.847 100.012 107.787 93.4443C107.725 87.2485 111.38 86.3812 113.796 86.3812C116.182 86.4114 118.567 87.5271 118.598 90.3457Z" fill="#CF4044"/>
</g>
<defs>
<clipPath id="clip0_132_5288">
<rect width="123.5" height="19.7881" fill="white" transform="translate(32.25 83.5208)"/>
</clipPath>
</defs>
</svg>
