<svg width="187" height="187" viewBox="0 0 187 187" fill="none" xmlns="http://www.w3.org/2000/svg">
<rect width="187" height="187" fill="white"/>
<g clip-path="url(#clip0_132_5238)">
<path d="M135.991 99.5752V85.2345H132.578V101.836H141.187V99.5752H135.981M152.005 85.2345H148.259L141.541 101.836H145.152L146.461 98.3594H154.281L155.247 100.698C155.476 101.223 155.731 101.836 156.889 101.836H159.378L152.005 85.2345ZM147.407 95.8708C147.573 95.4239 149.724 89.7396 150.161 88.5861C150.628 89.7084 152.935 95.1691 153.226 95.8708H147.407ZM43.7583 92.8052C44.9742 92.301 46.6211 91.2048 46.6211 89.0433C46.6211 87.1466 44.9742 85.2399 41.29 85.2399H34.177V101.836H42.2411C47.4108 101.836 47.967 98.5672 47.967 97.1643C47.967 94.2704 45.3794 93.1897 43.7583 92.8052ZM37.5959 87.4949H40.3602C42.3708 87.4949 43.0878 88.5965 43.0878 89.6149C43.0878 90.763 42.2307 91.9996 40.3602 91.9996C39.2117 91.9996 38.557 92.407 38.557 93.1273C38.557 93.4599 38.7232 94.2392 40.3498 94.2546H41.1341C42.9631 94.2546 44.2883 95.3666 44.2883 96.9303C44.2883 99.2685 42.2876 99.5698 40.5418 99.5698H37.5959V87.4895M121.63 85.0005C115.498 85.0005 112.755 89.2873 112.755 93.5272C112.755 97.7775 115.498 102.059 121.63 102.059C127.719 102.059 130.494 97.637 130.494 93.5272C130.494 89.2873 127.75 85.0005 121.63 85.0005ZM121.63 99.3674C118.247 99.3674 116.299 97.2421 116.299 93.5272C116.299 89.8223 118.247 87.6974 121.63 87.6974C125.012 87.6974 126.94 89.8223 126.94 93.5272C126.94 97.2421 125.012 99.3674 121.63 99.3674ZM87.5131 85.2345H80.7896V101.83H87.0247C93.1351 101.83 96.5021 98.8894 96.5021 93.553C96.5021 88.4194 93.0624 85.2345 87.5131 85.2345ZM84.2085 87.4895H86.947C90.7712 87.4895 92.9639 89.6976 92.9639 93.5272C92.9639 97.3098 90.7346 99.5698 86.9935 99.5698H84.2085V87.4895ZM53.4643 94.3897H61.4661V92.1293H53.4643V87.4895H61.8506V85.2345H50.0454V101.83H62.0322V99.5698H53.4643V94.3897ZM27.022 101.83H30.4359V85.2345H27.022V101.83ZM74.0037 94.1715C75.2665 93.7932 77.4538 92.7062 77.4538 89.7965C77.4538 87.5257 75.651 85.2291 72.2009 85.2291H64.8227V101.83H68.2466V87.4841H70.9331C73.5256 87.4841 73.9101 89.0325 73.9101 89.947C73.9101 91.48 72.814 92.441 71.037 92.441C69.8885 92.441 69.2288 92.8933 69.2288 93.6519C69.2288 94.0726 69.499 94.6287 70.7614 94.8208C72.3306 95.066 72.9595 96.5928 73.7597 98.5257C73.7597 98.5257 74.4559 100.162 74.6895 100.687C74.9223 101.207 75.1522 101.83 76.3211 101.83H78.9868L77.8125 99.2947C76.6382 96.6809 75.6926 95.1483 74.0037 94.1715ZM107.632 94.1715C108.884 93.7932 111.082 92.7062 111.082 89.7965C111.082 87.5257 109.274 85.2291 105.813 85.2291H98.4404V101.83H101.859V87.4841H104.551C107.149 87.4841 107.533 89.0325 107.533 89.947C107.533 91.48 106.432 92.441 104.655 92.441C103.506 92.441 102.857 92.8933 102.857 93.6519C102.857 94.0726 103.115 94.6287 104.385 94.8208C105.948 95.066 106.577 96.5928 107.382 98.5257C107.382 98.5257 108.079 100.162 108.307 100.687C108.548 101.207 108.76 101.83 109.944 101.83H112.61L111.43 99.2947C110.256 96.6809 109.315 95.1483 107.632 94.1715Z" fill="#5C871A"/>
</g>
<defs>
<clipPath id="clip0_132_5238">
<rect width="133.38" height="18.1052" fill="white" transform="translate(26.51 84.4766)"/>
</clipPath>
</defs>
</svg>
