<svg width="187" height="187" viewBox="0 0 187 187" fill="none" xmlns="http://www.w3.org/2000/svg">
<rect width="187" height="187" fill="white"/>
<g clip-path="url(#clip0_132_5326)">
<path d="M73.8517 87.0824V100.138H84.3203V97.867L76.7355 97.8868V94.6672H84.3203V92.3957L76.7355 92.3759V89.3539H84.3203V87.0824H73.8517Z" fill="black"/>
<path d="M97.3764 100.138V87.0626H100.142V100.138H97.3764Z" fill="black"/>
<path d="M61.3092 87.0626L64.5682 97.2744L68.0051 87.0626H72.0543V100.138H69.4075V90.3415L65.9904 100.138H63.1263L59.9068 90.3415V100.138H57.2402V87.0626H61.3092Z" fill="black"/>
<path d="M89.3768 89.3934H85.2091V87.0626H96.4875V89.3934H92.1421V100.138H89.3768V89.3934Z" fill="black"/>
<path d="M128.782 87.0824V100.138H139.251V97.867H131.666V94.6672H139.251V92.3957L131.666 92.3759V89.3539H139.251V87.0824H128.782Z" fill="black"/>
<path d="M156.889 89.3934H152.722V87.0626H164V89.3934H159.655V100.138H156.889V89.3934Z" fill="black"/>
<path d="M110.828 96.4448L105.455 87.0626H101.979V100.138H104.803L104.685 90.2427L110.314 100.138H113.494V87.0626H110.689L110.828 96.4448Z" fill="black"/>
<path d="M121.178 96.8004L117.267 87.0626H114.126L119.834 100.138H122.699L128.13 87.0626H125.207L121.178 96.8004Z" fill="black"/>
<path d="M148.198 92.5339H144.564C143.418 92.5339 142.846 92.0599 142.846 91.1118C142.846 89.9267 143.497 89.3934 144.959 89.3934H151.754V87.0626H144.564C142.964 87.0626 141.799 87.3787 141.088 88.0305C140.337 88.6625 139.982 89.6896 139.982 91.0723C139.982 93.6796 141.325 94.8252 144.347 94.8252H147.606C149.028 94.8252 149.542 95.24 149.542 96.3263C149.542 97.3929 148.969 97.8077 147.408 97.8077H140.515V100.138H147.843C151.003 100.138 152.425 98.9138 152.425 96.2078C152.425 94.8844 152.109 93.9363 151.457 93.3833C150.786 92.8105 149.7 92.5339 148.198 92.5339Z" fill="black"/>
<path d="M44.2237 82.3418C44.2237 82.3418 42.5053 81.6308 42.2682 81.532C42.0312 81.4332 41.7942 81.4135 41.5374 81.4727C41.2806 81.532 41.1029 81.6703 41.0041 81.769C40.9053 81.8678 37.2117 85.5614 37.2117 85.5614C37.2117 85.5614 33.5576 81.9073 33.4391 81.7888C33.3206 81.6703 33.1823 81.5517 32.886 81.4727C32.5897 81.3937 32.333 81.453 32.1749 81.532C32.0169 81.5912 30.4368 82.2628 30.2195 82.3418C30.0022 82.4208 29.8047 82.5986 29.6664 82.8159C29.5677 82.9936 29.4887 83.1912 29.4887 83.4282C29.4887 83.2109 29.4887 88.5637 29.4887 88.5637L32.886 90.5192V86.0552L34.4662 87.6354C34.5847 87.7539 34.723 87.8329 34.881 87.8921C34.9995 87.9317 35.0982 87.9712 35.276 87.9712C35.4538 87.9712 39.1277 87.9712 39.1277 87.9712C39.2659 87.9712 39.4042 87.9514 39.5227 87.8921C39.661 87.8329 39.7992 87.7539 39.9573 87.5959C40.1153 87.4379 41.5177 86.0355 41.5177 86.0355V90.4994L44.915 88.544C44.915 88.544 44.915 83.9615 44.915 83.4479C44.9348 82.9146 44.6385 82.5196 44.2237 82.3418Z" fill="#ED1C24"/>
<path d="M23.8198 93.4029C23.8198 93.4029 24.0569 95.2399 24.0964 95.4967C24.1359 95.7534 24.2346 95.9707 24.4124 96.1682C24.5902 96.3658 24.8074 96.4448 24.9457 96.4843C25.084 96.5238 30.1207 97.8669 30.1207 97.8669C30.1207 97.8669 28.7776 102.864 28.7381 103.002C28.6986 103.16 28.6591 103.338 28.7381 103.635C28.8171 103.931 29.0146 104.128 29.1529 104.227C29.2911 104.326 30.654 105.373 30.8318 105.511C31.0096 105.649 31.2663 105.748 31.5231 105.748C31.7206 105.748 31.9379 105.708 32.1354 105.59C31.9379 105.708 36.5796 103.022 36.5796 103.022V99.0915L32.7082 101.324L33.2811 99.1508C33.3206 98.9928 33.3206 98.8348 33.3008 98.657C33.2811 98.5187 33.2613 98.4397 33.1625 98.2619C33.0638 98.1039 31.2268 94.9239 31.2268 94.9239C31.1478 94.8053 31.0688 94.7066 30.9701 94.6276C30.8516 94.5288 30.7133 94.4498 30.496 94.3905C30.2985 94.3313 28.3628 93.8177 28.3628 93.8177L32.2342 91.5858L28.8368 89.6303C28.8368 89.6303 24.8667 91.9215 24.4124 92.1783C23.9581 92.4746 23.7606 92.9486 23.8198 93.4029Z" fill="#ED1C24"/>
<path d="M43.5916 105.531C43.5916 105.531 45.073 104.405 45.2706 104.247C45.4681 104.089 45.6063 103.891 45.6853 103.654C45.7644 103.398 45.7248 103.18 45.7051 103.042C45.6656 102.904 44.3225 97.867 44.3225 97.867C44.3225 97.867 49.3197 96.5238 49.4777 96.4843C49.6358 96.4448 49.8135 96.3856 50.0308 96.1683C50.2481 95.951 50.3271 95.6942 50.3468 95.5165C50.3666 95.3387 50.5839 93.64 50.6234 93.4228C50.6629 93.1857 50.6234 92.929 50.4851 92.7117C50.3863 92.5339 50.2481 92.3759 50.0505 92.2574C50.2481 92.3759 45.6063 89.6896 45.6063 89.6896L42.209 91.6451L46.0804 93.8771L43.9077 94.4499C43.7496 94.4894 43.6114 94.5684 43.4731 94.6671C43.3744 94.7461 43.2953 94.8252 43.2163 94.9832C43.1176 95.1412 41.2806 98.3213 41.2806 98.3213C41.2214 98.4398 41.1621 98.5583 41.1424 98.6966C41.1226 98.8546 41.1226 99.0126 41.1819 99.2101C41.2411 99.4076 41.7547 101.343 41.7547 101.343L37.8833 99.1113V103.042C37.8833 103.042 41.8534 105.333 42.3077 105.59C42.7423 105.867 43.2361 105.807 43.5916 105.531Z" fill="#ED1C24"/>
</g>
<defs>
<clipPath id="clip0_132_5326">
<rect width="140.2" height="24.3345" fill="white" transform="translate(23.8 81.4327)"/>
</clipPath>
</defs>
</svg>
