<svg width="187" height="187" viewBox="0 0 187 187" fill="none" xmlns="http://www.w3.org/2000/svg">
<rect width="187" height="187" fill="white"/>
<g clip-path="url(#clip0_132_5258)">
<path d="M38.9272 99.3878V86.7129H49.0063V87.7202H40.0393V92.3213H48.6421V93.3292H40.0393V98.3799H49.1093V99.3878H38.9272ZM60.6352 99.3878L51.6064 88.3774V99.3878H50.4938V86.7129H51.7311L60.7605 97.725V86.7129H61.8714V99.3878H60.6352ZM63.9831 99.3878V86.7129H74.061V87.7202H65.094V92.3213H73.698V93.3287H65.094V98.3799H74.1657V99.3878H63.9831ZM81.8871 92.7532C82.2731 92.7544 83.1298 92.7515 83.8712 92.4149C84.6096 92.0736 85.2362 91.4476 85.2433 90.0908C85.2362 88.1962 83.8323 87.7396 82.0942 87.7208H76.6605V92.7538H81.8877L81.8871 92.7532ZM85.4781 99.3884L85.4333 99.3466C85.1186 99.0101 85.1038 98.2599 85.0362 96.36C85.0103 95.2986 84.8238 94.6649 84.3931 94.2948C83.9636 93.9182 83.2181 93.7593 82.0083 93.7617H76.6599V99.3884H75.549V86.7129H82.0254C83.2257 86.7135 84.2966 86.8806 85.0874 87.4013C85.8817 87.9214 86.3589 88.8099 86.3542 90.1432C86.3589 91.3423 85.6922 92.642 84.2442 93.1969C85.4692 93.5593 86.1394 94.5784 86.1471 95.801C86.1794 98.0487 86.2594 98.7677 86.4754 99.1548L86.6001 99.3884H85.4781Z" fill="#231F20"/>
<path d="M49.0198 82.2638L39.9922 71.2528V82.2638H38.8801V69.5889H40.1152L49.1457 80.5998V69.5889H50.2572V82.2638H49.0198ZM52.3683 82.2638V69.5889H62.4474V70.5962H53.4804V75.1973H62.0826V76.2046H53.4804V81.2559H62.5509V82.2638H52.3683ZM74.2545 69.5889H85.6686V70.5962H80.6821V82.2638H79.5712V70.5962H74.5846V69.5959L69.4056 75.821L74.7647 82.2638H73.2972L68.6631 76.6736L63.9766 82.2638H62.5615L67.9394 75.821L62.7539 69.5889H64.2367L68.6637 74.9537L73.1766 69.5889H74.2545Z" fill="#6EC72E"/>
<path d="M127.942 86.6212C127.942 86.6212 128.247 87.4579 128.284 88.5993L123.227 94.4932L130.224 89.2077L130.567 90.8434C130.567 90.8434 125.243 96.889 123.949 98.6001C123.949 98.6001 130.736 92.984 134.529 90.7157C132.855 87.625 129.586 85.5256 125.823 85.5256C120.359 85.5256 115.93 89.9561 115.93 95.4199C115.93 95.5717 115.945 95.7188 115.952 95.8694C118.15 93.9642 124.071 88.9388 127.942 86.6212ZM135.717 95.6582C135.717 94.6732 135.569 93.723 135.301 92.8245C133.017 94.0383 127.591 97.0438 123.696 100.183C126.978 100.635 130.241 101.218 133.476 101.93C134.929 100.163 135.721 97.9455 135.718 95.6582" fill="#2F97DA"/>
<path d="M128.132 92.2589C128.132 92.2589 122.543 96.5941 121.781 97.3167L121.021 95.9104C121.021 95.9104 124.862 91.1186 126.117 89.863C126.117 89.863 119.277 94.7319 116.135 97.6738C116.26 98.2769 116.443 98.8582 116.673 99.416C118.357 99.5502 120.062 99.7237 121.787 99.9338C121.908 99.7879 127.455 93.1244 128.132 92.2589Z" fill="#2F97DA"/>
<path d="M94.4592 99.6659C92.5481 99.6659 90.8612 99.0616 89.6521 97.9266C88.4435 96.7922 87.7216 95.1289 87.7222 93.0507C87.7222 91.5186 88.2435 89.8699 89.3496 88.5967C90.454 87.3234 92.1504 86.4349 94.4592 86.4373C97.5365 86.4279 99.8629 87.9706 100.481 90.7131L100.525 90.9061H99.4046L99.3763 90.7825C98.8762 88.5855 96.8904 87.4505 94.4592 87.444C91.0124 87.4487 88.8395 90.01 88.833 93.0513C88.8442 96.0844 90.75 98.6509 94.4592 98.6586C97.4506 98.6474 99.3646 96.8834 99.6205 93.918H94.6645V92.9107H100.753L100.746 93.076C100.694 94.1092 100.386 95.4366 100.088 96.2768C99.1263 98.558 96.8792 99.6659 94.4674 99.6659H94.4592ZM107.295 99.0957C107.079 99.0952 106.863 99.0916 106.649 99.0916L106.5 99.0934H106.342L106.341 94.0921L100.443 86.7132H101.953L106.898 93.0384L111.946 86.7132H113.354L107.454 94.0921V99.0969L107.295 99.0957Z" fill="#231F20"/>
<path d="M133.079 102.382C129.791 101.668 126.476 101.087 123.142 100.64C122.807 100.594 122.471 100.552 122.137 100.509C120.378 100.288 118.637 100.109 116.919 99.9681C113.614 99.6954 110.3 99.5587 106.984 99.5586H106.979C75.1225 99.5586 51.9318 112.149 44.1475 117.025C69.431 105.616 93.0071 102.302 111.871 102.302C128.022 102.302 140.718 104.732 148.074 106.593C143.163 104.894 138.156 103.488 133.079 102.382Z" fill="#6EC72E"/>
<path d="M88.5318 74.7005C89.0166 72.1728 90.9107 71.4714 92.2563 71.4714C93.6867 71.4714 95.6654 72.2199 96.0231 74.7005H88.5318ZM99.0527 76.2915C99.0527 72.6653 97.1599 69.2715 92.2145 69.2715C88.2588 69.2715 85.5022 71.9145 85.5022 76.0567C85.5022 79.3575 87.3744 82.6089 92.404 82.6089C96.6562 82.6089 98.1702 79.8712 98.8027 78.4902H95.6442C95.0753 79.5199 94.2339 80.2689 92.3198 80.2689C89.4367 80.2689 88.6248 78.0231 88.5318 76.7592H99.0527V76.2915ZM118.004 77.1399C118.004 79.8512 115.4 80.4996 113.857 80.4996C112.88 80.4996 111.545 80.1977 111.545 78.5756C111.545 77.5341 112.067 76.9993 114.234 76.7233C116.274 76.4674 117.17 76.3527 118.004 75.9579V77.1399ZM121.459 80.0018C121.216 79.9406 120.878 79.943 120.878 79.2704V73.4561C120.878 71.858 120.712 69.3333 114.943 69.3333C111.67 69.3333 109.526 70.3276 109.109 73.5484H111.92C112.024 72.1816 113.044 71.5103 114.943 71.5103C116.607 71.5103 118.067 71.8574 118.067 73.2707C118.067 74.2198 117.628 74.3828 113.502 74.8235C111.67 75.0082 108.545 75.3095 108.545 78.6915C108.545 81.1015 110.169 82.5371 113.045 82.5371C116.274 82.5371 117.67 81.4486 118.235 80.8467C118.317 81.3098 118.525 82.4212 120.399 82.4212C120.869 82.4212 121.687 82.3842 122.069 82.333L122.076 80.1024C121.697 80.0701 121.629 80.0442 121.459 80.0018ZM108.499 69.3909C108.113 69.3186 108.33 69.2715 107.877 69.2715C105.602 69.2715 104.379 70.6324 103.583 72.0651H103.542V69.6063H100.578V82.2606H103.542V76.1473C103.542 73.2119 105.667 72.3281 107.169 72.3281C107.393 72.3281 108.231 72.3346 108.488 72.3623L108.499 69.3909Z" fill="#2F97DA"/>
</g>
<defs>
<clipPath id="clip0_132_5258">
<rect width="109.44" height="48.2473" fill="white" transform="translate(38.8799 69.2698)"/>
</clipPath>
</defs>
</svg>
