<svg width="187" height="187" viewBox="0 0 187 187" fill="none" xmlns="http://www.w3.org/2000/svg">
<rect width="187" height="187" fill="white"/>
<path d="M50.8116 76.4727V80.2164C44.6593 81.1864 40.0157 86.2013 40.0157 92.6751C40.0157 99.8062 45.6453 105.454 53.0007 105.454C60.3561 105.454 65.987 99.8062 65.987 92.6751C65.987 86.2013 61.3435 81.1864 55.1911 80.2164V76.4727H50.8116ZM141.342 80.3444V88.7038C140.094 87.9658 138.619 87.5758 137.048 87.5758C132.03 87.5758 128.249 91.4069 128.249 96.4814C128.249 101.557 132.03 105.387 137.048 105.387C138.621 105.387 140.092 104.988 141.342 104.243V105.056H145.984V80.3444H141.342ZM98.1044 82.451V87.9072H95.3094V92.0862H98.1044V98.6122C98.1044 102.957 100.907 105.255 104.423 105.255C105.816 105.255 107.301 104.906 108.685 104.218L107.607 100.512C106.786 100.951 105.974 101.175 105.26 101.175C103.768 101.175 102.714 100.18 102.714 98.0574V92.0862H106.132L107.291 87.9072H102.714V82.451H98.1044ZM50.8131 84.8704V92.3437H55.1911V84.8704C58.6081 85.756 60.8792 88.7318 60.8792 92.6751C60.8792 97.2107 57.4867 100.643 53.0007 100.643C48.5146 100.643 45.1249 97.2107 45.1249 92.6751C45.1249 88.7318 47.395 85.756 50.8131 84.8704ZM87.6143 87.5758C83.9905 87.5758 81.2121 89.8399 81.2121 92.85C81.2121 95.6272 82.8965 97.3357 86.3455 98.0901C88.5099 98.563 89.6199 98.8121 89.6199 99.989C89.6199 100.769 88.9157 101.266 87.8049 101.266C86.0143 101.266 84.272 100.445 83.1281 99.019L80.5493 102.319C82.0913 104.184 84.9435 105.322 87.9371 105.322C91.5522 105.322 94.1643 103.057 94.1643 99.9065C94.1643 97.0207 92.3491 95.0546 89.0651 94.3749C86.6687 93.8777 85.8477 93.6712 85.8477 92.7419C85.8477 92.0622 86.5603 91.6069 87.6712 91.6069C89.0733 91.6069 90.3345 92.0946 91.5201 93.1317L93.8002 90.0721C92.199 88.4301 90.0602 87.5758 87.6143 87.5758ZM117.965 87.5758C112.857 87.5758 109.01 91.4061 109.01 96.4729C109.01 101.556 112.949 105.388 118.173 105.388C121.108 105.388 123.762 104.069 125.337 101.962L122.36 99.0275C121.465 100.297 120.171 101.175 118.173 101.175C116.088 101.175 114.424 99.8845 113.891 97.891H126.124C126.182 97.4356 126.24 96.8303 126.24 96.2254C126.24 91.3664 122.816 87.5758 117.965 87.5758ZM78.8182 87.839C77.0551 87.9079 74.9816 88.5032 73.4175 89.7165V87.9072H68.7734V105.056H73.4175V94.5029C74.6701 93.1959 77.4932 92.5241 79.5536 92.493V87.8418C79.3168 87.8304 79.0702 87.8292 78.8182 87.839ZM117.965 91.5642C119.768 91.5642 121.117 92.7444 121.596 94.5825H113.991C114.58 92.7386 116.053 91.5642 117.965 91.5642ZM137.659 91.8217C139.25 91.8151 140.565 92.4938 141.342 93.4105V99.5395C140.563 100.463 139.243 101.149 137.659 101.143C134.998 101.134 133.066 99.1274 133.058 96.4814C133.049 93.8364 134.981 91.8304 137.659 91.8217Z" fill="#009ADD"/>
</svg>
