<svg width="187" height="187" viewBox="0 0 187 187" fill="none" xmlns="http://www.w3.org/2000/svg">
<rect width="187" height="187" fill="white"/>
<g clip-path="url(#clip0_132_5268)">
<path fill-rule="evenodd" clip-rule="evenodd" d="M59.6513 106.563C59.6513 109.226 57.7423 111.399 54.9899 111.399C52.2372 111.399 50.2847 109.181 50.2847 106.52V106.475C50.2847 103.813 52.1937 101.639 54.9448 101.639C57.6976 101.639 59.6513 103.857 59.6513 106.52V106.563ZM54.9899 98.4897C50.1961 98.4897 46.7117 102.105 46.7117 106.52V106.563C46.7117 110.978 50.1513 114.55 54.9448 114.55C59.7399 114.55 63.2247 110.934 63.2247 106.52V106.475C63.2247 102.061 59.7846 98.4897 54.9899 98.4897Z" fill="#074F71"/>
<path fill-rule="evenodd" clip-rule="evenodd" d="M63.8237 98.7556H66.5425C66.7369 98.7556 66.9085 98.8821 66.9656 99.0679L70.088 109.27L73.4722 99.0149C73.532 98.8338 73.7017 98.7117 73.8924 98.7117H76.1834C76.3742 98.7117 76.5434 98.8338 76.6033 99.0149L79.9879 109.27L83.1102 99.0679C83.1669 98.8821 83.3385 98.7556 83.5329 98.7556H86.1623C86.4653 98.7556 86.6784 99.0524 86.581 99.3392L81.5768 114.095C81.5161 114.275 81.3477 114.395 81.1581 114.395H78.816C78.6273 114.395 78.4592 114.276 78.3978 114.098L74.9928 104.235L71.5895 114.098C71.5276 114.276 71.36 114.395 71.1712 114.395H68.8291C68.6395 114.395 68.4711 114.275 68.4104 114.095L63.405 99.3392C63.308 99.0528 63.5212 98.7556 63.8237 98.7556Z" fill="#074F71"/>
<path fill-rule="evenodd" clip-rule="evenodd" d="M88.8585 98.7558H99.6935C99.9378 98.7558 100.136 98.9533 100.136 99.1974V101.353C100.136 101.597 99.9378 101.795 99.6935 101.795H91.8124V104.945H98.6949C98.9392 104.945 99.1368 105.143 99.1368 105.386V107.542C99.1368 107.786 98.9392 107.984 98.6949 107.984H91.8124V111.245H99.8049C100.05 111.245 100.247 111.443 100.247 111.687V113.842C100.247 114.087 100.05 114.284 99.8049 114.284H88.8585C88.6142 114.284 88.4162 114.087 88.4162 113.842V99.1974C88.4162 98.9533 88.6142 98.7558 88.8585 98.7558Z" fill="#074F71"/>
<path fill-rule="evenodd" clip-rule="evenodd" d="M105.531 114.284H102.997C102.753 114.284 102.555 114.087 102.555 113.843V99.1978C102.555 98.9533 102.753 98.7558 102.997 98.7558H109.658C111.634 98.7558 113.166 99.3107 114.187 100.331C115.052 101.196 115.518 102.417 115.518 103.88V103.924C115.518 106.431 114.165 108.007 112.189 108.739L115.511 113.593C115.712 113.887 115.501 114.284 115.146 114.284H112.225C112.077 114.284 111.94 114.211 111.858 114.088L108.734 109.427C108.685 109.354 108.659 109.269 108.659 109.181V106.446C108.659 106.365 108.725 106.299 108.807 106.299H109.436C111.102 106.299 112.056 105.411 112.056 104.103V104.058C112.056 102.593 111.035 101.84 109.37 101.84H105.973V113.843C105.973 114.087 105.775 114.284 105.531 114.284Z" fill="#074F71"/>
<path fill-rule="evenodd" clip-rule="evenodd" d="M65.937 79.9153H60.0304C59.7861 79.9153 59.5881 80.1132 59.5881 80.3573L59.5885 95.0023C59.5885 95.2464 59.7861 95.4439 60.0304 95.4439H62.564C62.8083 95.4439 63.0062 95.2464 63.0062 95.0023V82.9993H65.6484C67.3575 82.9993 68.4228 83.8198 68.4228 85.3508V85.3947C68.4228 86.6903 67.4852 87.6924 65.7494 87.7446C65.6696 87.747 65.6045 87.8109 65.6045 87.8906L65.6037 90.6355C65.6037 90.7177 65.6716 90.7855 65.7542 90.7839C69.1683 90.7308 71.8844 88.8703 71.8844 85.3289V85.2842C71.8844 82.1117 69.6433 79.9153 65.937 79.9153Z" fill="#074F71"/>
<path fill-rule="evenodd" clip-rule="evenodd" d="M77.6108 92.3386V80.3575C77.6108 80.1138 77.4129 79.9159 77.1686 79.9159L74.635 79.9155C74.3907 79.9155 74.1927 80.1138 74.1927 80.3575V95.0025C74.1927 95.247 74.3907 95.4445 74.635 95.4445H84.556C84.6805 95.4445 84.75 95.2989 84.6698 95.2039C84.0052 94.4213 83.4896 93.4942 83.1359 92.4391C83.116 92.3793 83.0605 92.3386 82.9974 92.3386H77.6108Z" fill="#074F71"/>
<path fill-rule="evenodd" clip-rule="evenodd" d="M98.1044 79.9153H95.5708C95.3265 79.9153 95.1285 80.1132 95.1285 80.3573V88.8117C95.1285 91.2733 93.8641 92.5379 91.7771 92.5379C89.6912 92.5379 88.4256 91.2295 88.4256 88.7004V80.3573C88.4256 80.1132 88.2276 79.9153 87.9838 79.9153H85.4497C85.2059 79.9153 85.0079 80.1132 85.0079 80.3573V88.789C85.0079 93.3592 87.5603 95.688 91.7336 95.688C95.9056 95.688 98.5466 93.3811 98.5466 88.6785V80.3573C98.5466 80.1132 98.3487 79.9153 98.1044 79.9153Z" fill="#074F71"/>
<path fill-rule="evenodd" clip-rule="evenodd" d="M110.63 86.3394C110.385 86.3394 110.187 86.5372 110.187 86.7814V89.2071C110.187 89.4512 110.385 89.6491 110.629 89.6491H112.312V91.6735C111.446 92.2946 110.337 92.605 109.093 92.605C106.341 92.605 104.388 90.5199 104.388 87.6805V87.6358C104.388 84.9963 106.364 82.7999 108.85 82.7999C110.479 82.7999 111.507 83.2734 112.577 84.1055C112.766 84.2519 113.037 84.2236 113.189 84.0397L114.779 82.123C114.938 81.9315 114.908 81.6459 114.712 81.4919C113.194 80.2992 111.556 79.6501 108.96 79.6501C104.255 79.6501 100.815 83.265 100.815 87.6805V87.7244C100.815 92.3165 104.143 95.7112 108.983 95.7112C111.73 95.7112 113.875 94.6733 115.459 93.3812C115.561 93.2979 115.619 93.1718 115.619 93.0398V86.7814C115.619 86.5372 115.421 86.3394 115.177 86.3394H110.63Z" fill="#074F71"/>
<path fill-rule="evenodd" clip-rule="evenodd" d="M39.531 98.7549H33.6243C33.3801 98.7549 33.1825 98.9528 33.1825 99.1969V113.842C33.1825 114.086 33.3805 114.284 33.6247 114.284H36.1584C36.4026 114.284 36.6002 114.086 36.6002 113.842V101.839H39.2424C40.9515 101.839 42.0171 102.659 42.0171 104.191V104.234C42.0171 105.53 41.0792 106.532 39.3438 106.585C39.2636 106.587 39.1985 106.65 39.1985 106.731L39.1977 109.475C39.1977 109.557 39.2656 109.625 39.3482 109.624C42.7627 109.571 45.4788 107.71 45.4788 104.168V104.124C45.4788 100.951 43.2377 98.7549 39.531 98.7549Z" fill="#074F71"/>
<mask id="mask0_132_5268" style="mask-type:luminance" maskUnits="userSpaceOnUse" x="123" y="72" width="31" height="43">
<path d="M123.373 72.5253H153.816V114.285H123.373V72.5253Z" fill="#00BBDC"/>
</mask>
<g mask="url(#mask0_132_5268)">
<path fill-rule="evenodd" clip-rule="evenodd" d="M138.595 72.5247H131.121C130.876 72.5247 130.678 72.7225 130.678 72.967V79.825H123.816C123.571 79.825 123.373 80.0233 123.373 80.2674V113.842C123.373 114.086 123.571 114.284 123.816 114.284H134.034C134.278 114.284 134.476 114.086 134.476 113.842V106.84C134.476 106.595 134.278 106.398 134.034 106.398H131.058C130.813 106.398 130.615 106.595 130.615 106.84V110.425H127.234V83.6844H138.595C140.883 83.6844 142.734 85.5884 142.647 87.894C142.564 90.0872 140.691 91.7905 138.495 91.7905H134.54V87.5733C134.54 87.3288 134.341 87.1305 134.096 87.1305H131.121C130.876 87.1305 130.678 87.3288 130.678 87.5733V95.2075C130.678 95.4517 130.876 95.6495 131.121 95.6495H138.595C143.023 95.6495 146.615 91.9964 146.509 87.5466C146.407 83.2273 142.769 79.825 138.446 79.825H134.54V76.3837H138.595C144.918 76.3837 150.05 81.573 149.953 87.9136C149.859 94.1437 144.657 99.0913 138.422 99.0913H130.978C130.734 99.0913 130.536 99.2891 130.536 99.5337V102.508C130.536 102.752 130.734 102.95 130.978 102.95H138.401C146.781 102.95 153.734 96.2622 153.815 87.8877C153.897 79.4305 147.038 72.5247 138.595 72.5247Z" fill="#00BBDC"/>
</g>
<path fill-rule="evenodd" clip-rule="evenodd" d="M137.683 112.312C137.613 112.273 137.502 112.253 137.349 112.253H137.113V112.821H137.362C137.479 112.821 137.567 112.809 137.625 112.785C137.733 112.743 137.787 112.661 137.787 112.541C137.787 112.427 137.753 112.351 137.683 112.312ZM137.385 112.065C137.579 112.065 137.722 112.084 137.813 112.121C137.974 112.189 138.056 112.321 138.056 112.518C138.056 112.658 138.005 112.761 137.903 112.827C137.848 112.862 137.773 112.887 137.676 112.903C137.799 112.922 137.889 112.974 137.945 113.056C138.002 113.139 138.03 113.22 138.03 113.299V113.414C138.03 113.45 138.031 113.488 138.034 113.53C138.037 113.571 138.041 113.599 138.048 113.612L138.057 113.631H137.799C137.798 113.626 137.796 113.62 137.795 113.616C137.794 113.61 137.792 113.604 137.791 113.598L137.786 113.548V113.424C137.786 113.243 137.736 113.123 137.638 113.065C137.579 113.032 137.477 113.015 137.331 113.015H137.113V113.631H136.837V112.065H137.385ZM136.545 111.985C136.306 112.225 136.187 112.515 136.187 112.853C136.187 113.196 136.306 113.487 136.543 113.728C136.781 113.969 137.071 114.089 137.412 114.089C137.753 114.089 138.043 113.969 138.281 113.728C138.52 113.487 138.639 113.196 138.639 112.853C138.639 112.515 138.52 112.225 138.281 111.985C138.041 111.744 137.752 111.624 137.412 111.624C137.074 111.624 136.785 111.744 136.545 111.985ZM138.423 113.864C138.144 114.144 137.808 114.283 137.412 114.283C137.016 114.283 136.68 114.144 136.403 113.864C136.127 113.585 135.989 113.248 135.989 112.852C135.989 112.459 136.128 112.124 136.407 111.845C136.684 111.568 137.02 111.43 137.412 111.43C137.808 111.43 138.144 111.568 138.423 111.845C138.702 112.122 138.841 112.458 138.841 112.852C138.841 113.247 138.702 113.584 138.423 113.864Z" fill="#00BBDC"/>
</g>
<defs>
<clipPath id="clip0_132_5268">
<rect width="120.935" height="42.6827" fill="white" transform="translate(33.1825 72.1233)"/>
</clipPath>
</defs>
</svg>
