<svg width="358" height="193" viewBox="0 0 358 193" fill="none" xmlns="http://www.w3.org/2000/svg">
<g opacity="0.4">
<g clip-path="url(#clip0_1122_29798)">
<g opacity="0.9">
<path d="M103.709 114.274C76.2344 86.7995 105.127 13.3613 168.243 -49.7545C231.359 -112.87 304.797 -141.763 332.272 -114.288C359.747 -86.8133 330.854 -13.3751 267.738 49.7407C204.622 112.857 131.184 141.749 103.709 114.274Z" stroke="#2A59BD" stroke-miterlimit="10"/>
<path d="M118.445 129.013C90.9698 101.538 119.862 28.1 182.978 -35.0158C246.094 -98.1316 319.532 -127.024 347.007 -99.5494C374.482 -72.0746 345.589 1.36369 282.474 64.4795C219.358 127.595 145.919 156.488 118.445 129.013Z" stroke="#2A59BD" stroke-miterlimit="10"/>
<path d="M96.3556 106.926C68.8808 79.4514 97.7735 6.01312 160.889 -57.1027C224.005 -120.218 297.443 -149.111 324.918 -121.636C352.393 -94.1614 323.5 -20.7232 260.385 42.3926C197.269 105.508 123.83 134.401 96.3556 106.926Z" stroke="#2A59BD" stroke-miterlimit="10"/>
<path d="M81.638 92.1694C54.1632 64.6945 83.0558 -8.74372 146.172 -71.8595C209.287 -134.975 282.726 -163.868 310.201 -136.393C337.675 -108.918 308.783 -35.48 245.667 27.6357C182.551 90.7515 109.113 119.644 81.638 92.1694Z" stroke="#2A59BD" stroke-miterlimit="10"/>
<path d="M74.249 84.8212C46.7741 57.3464 75.6668 -16.0919 138.783 -79.2076C201.898 -142.323 275.337 -171.216 302.811 -143.741C330.286 -116.266 301.394 -42.8282 238.278 20.2876C175.162 83.4034 101.724 112.296 74.249 84.8212Z" stroke="#2A59BD" stroke-miterlimit="10"/>
<path d="M89.0093 99.5604C61.5345 72.0856 90.4272 -1.35264 153.543 -64.4684C216.659 -127.584 290.097 -156.477 317.572 -129.002C345.047 -101.527 316.154 -28.0889 253.038 35.0268C189.922 98.1426 116.484 127.035 89.0093 99.5604Z" stroke="#2A59BD" stroke-miterlimit="10"/>
<path d="M111.098 121.647C83.6235 94.1725 112.516 20.7343 175.632 -42.3815C238.748 -105.497 312.186 -134.39 339.661 -106.915C367.136 -79.4402 338.243 -6.00201 275.127 57.1138C212.011 120.23 138.573 149.122 111.098 121.647Z" stroke="#2A59BD" stroke-miterlimit="10"/>
<path d="M140.559 151.1C113.084 123.625 141.976 50.1869 205.092 -12.9289C268.208 -76.0446 341.646 -104.937 369.121 -77.4625C396.596 -49.9876 367.703 23.4506 304.588 86.5664C241.472 149.682 168.034 178.575 140.559 151.1Z" stroke="#2A59BD" stroke-miterlimit="10"/>
<path d="M125.798 136.361C98.3234 108.886 127.216 35.4482 190.332 -27.6676C253.448 -90.7834 326.886 -119.676 354.361 -92.2012C381.836 -64.7264 352.943 8.71185 289.827 71.8276C226.711 134.943 153.273 163.836 125.798 136.361Z" stroke="#2A59BD" stroke-miterlimit="10"/>
<path d="M133.187 143.734C105.712 116.259 134.605 42.8212 197.721 -20.2946C260.837 -83.4103 334.275 -112.303 361.75 -84.8282C389.225 -57.3533 360.332 16.0849 297.216 79.2007C234.1 142.316 160.662 171.209 133.187 143.734Z" stroke="#2A59BD" stroke-miterlimit="10"/>
<path d="M66.8953 77.4731C39.4205 49.9982 68.3132 -23.44 131.429 -86.5558C194.545 -149.672 267.983 -178.564 295.458 -151.089C322.933 -123.615 294.04 -50.1763 230.924 12.9394C167.808 76.0552 94.3702 104.948 66.8953 77.4731Z" stroke="#2A59BD" stroke-miterlimit="10"/>
</g>
</g>
</g>
<defs>
<clipPath id="clip0_1122_29798">
<rect width="358" height="193" rx="24" fill="white"/>
</clipPath>
</defs>
</svg>
