<svg width="187" height="187" viewBox="0 0 187 187" fill="none" xmlns="http://www.w3.org/2000/svg">
<rect width="187" height="187" fill="white"/>
<g clip-path="url(#clip0_132_5291)">
<path d="M151.239 86.0406H144.861L138.167 100.854H143.503L144.656 97.9529H151.413L152.565 100.854H157.917L151.239 86.0406ZM145.84 94.9871L148.05 89.4465L150.244 94.9871H145.84Z" fill="black"/>
<path d="M102.898 89.8376H108.646V100.854H113.374V89.8376H119.122V86.0406H102.898V89.8376Z" fill="black"/>
<path d="M91.3611 94.9219H99.7162V91.956H91.3611V89.7724H101.143V86.0406H86.6746V100.854H101.487V97.187H91.3611V94.9219Z" fill="black"/>
<path d="M84.5104 88.6806V86.0406H68.4624V89.8376H77.0941L68.3347 98.23V100.854H84.5583V97.0404H75.847L84.5104 88.6806Z" fill="black"/>
<path d="M57.7465 86.0406C51.6788 86.0406 47.8789 88.5268 47.8789 93.7917C47.8789 99.0566 51.6635 101.559 57.7465 101.559C63.8451 101.559 67.6294 99.0403 67.6294 93.7917C67.6294 88.5431 63.8451 86.0406 57.7465 86.0406ZM57.7465 97.6753C54.7126 97.6753 52.8586 96.5703 52.8586 93.7754C52.8586 90.9643 54.7126 89.8918 57.7465 89.8918C60.7647 89.8918 62.6495 90.9643 62.6495 93.7754C62.6495 96.5866 60.7647 97.6753 57.7465 97.6753Z" fill="black"/>
<path d="M46.2959 91.402C46.2959 88.2732 44.3329 86.0406 39.657 86.0406H29.5392V100.854H34.4226V96.6656H37.5664L41.0774 100.854H47.1736L43.0881 96.0463C45.1309 95.1338 46.2959 93.2108 46.2959 91.402ZM34.4226 89.528H39.2261C40.7103 89.528 41.3008 90.3428 41.3008 91.3857C41.3008 92.0865 40.8859 93.3738 39.1463 93.3738H34.4226V89.528Z" fill="black"/>
<path d="M131.929 86.0406L126.034 91.4509V86.0406H121.238V100.854H126.034V96.7633L127.837 95.1663L131.944 100.854H137.932L131.317 92.0865L138.167 86.0406H131.929Z" fill="black"/>
</g>
<defs>
<clipPath id="clip0_132_5291">
<rect width="128.535" height="16.7201" fill="white" transform="translate(29.3824 85.4399)"/>
</clipPath>
</defs>
</svg>
