<svg width="187" height="187" viewBox="0 0 187 187" fill="none" xmlns="http://www.w3.org/2000/svg">
<rect width="187" height="187" fill="white"/>
<g clip-path="url(#clip0_132_5281)">
<path d="M49.6105 81.9742C48.3084 81.3883 47.5127 81.0049 47.2234 80.824C46.8757 80.6 46.7018 80.3108 46.7018 79.9564C46.7018 79.0087 47.5634 78.5348 49.2866 78.5348C50.5108 78.5348 51.8361 78.8197 53.2627 79.3893V76.4706C51.3445 76.0973 49.8785 75.9106 48.8649 75.9106C47.0267 75.9106 45.5356 76.3048 44.3915 77.0931C43.2339 77.8888 42.6552 79.0463 42.6552 80.5657C42.6552 81.7455 43.0527 82.7221 43.8477 83.4956C44.4611 84.0821 45.779 84.791 47.8015 85.6224C48.9282 86.0858 49.6287 86.4476 49.9031 86.7079C50.0319 86.8217 50.1345 86.9621 50.2039 87.1194C50.2732 87.2767 50.3076 87.4471 50.3046 87.619C50.3046 88.5889 49.3869 89.0738 47.5513 89.0738C46.2216 89.0738 44.6935 88.8021 42.9669 88.2586V91.2924C44.5285 91.6609 46.1274 91.8484 47.7319 91.8513C49.5991 91.8513 51.1191 91.4972 52.2922 90.789C53.7396 89.9139 54.4633 88.644 54.4633 86.9793C54.4633 85.8211 54.0941 84.8768 53.3555 84.1463C52.7341 83.5309 51.4857 82.8068 49.6105 81.9742ZM56.8867 91.5406H61.1785V76.178H56.8867V91.5406ZM69.2518 84.9605H75.2325V82.4251H69.2518V78.9565H76.1224V76.178H65.1153V91.5406H76.2999V88.6057H69.2518V84.9605ZM88.5318 85.9936L84.6657 76.178H79.1016V91.5406H82.1253V80.6636L86.5443 91.697H89.2048L93.7115 80.6636V91.5406H97.7804V76.178H92.4948L88.5318 85.9936ZM105.855 84.9605H111.835V82.4251H105.855V78.9565H112.725V76.178H101.718V91.5406H112.902V88.6057H105.855V84.9605ZM125.978 86.4618L120.702 76.178H115.727V91.5406H118.751V81.1176L124.168 91.5406H129.002V76.178H125.978V86.4618ZM138.692 81.9742C137.391 81.3883 136.595 81.0049 136.305 80.824C135.958 80.6 135.784 80.3108 135.784 79.9564C135.784 79.0087 136.645 78.5348 138.368 78.5348C139.593 78.5348 140.918 78.8197 142.345 79.3893V76.4706C140.426 76.0973 138.96 75.9106 137.947 75.9106C136.109 75.9106 134.617 76.3048 133.473 77.0931C132.316 77.8888 131.737 79.0463 131.737 80.5657C131.737 81.7455 132.134 82.7221 132.929 83.4956C133.543 84.0821 134.861 84.791 136.883 85.6224C138.011 86.0858 138.711 86.4476 138.985 86.7079C139.114 86.8217 139.216 86.9621 139.286 87.1194C139.355 87.2767 139.389 87.4471 139.386 87.619C139.386 88.5889 138.469 89.0738 136.633 89.0738C135.303 89.0738 133.775 88.8021 132.049 88.2586V91.2924C133.61 91.6609 135.209 91.8484 136.814 91.8513C138.681 91.8513 140.201 91.4972 141.374 90.789C142.821 89.9139 143.545 88.644 143.545 86.9793C143.545 85.8211 143.176 84.8768 142.437 84.1463C141.816 83.5309 140.568 82.8068 138.692 81.9742Z" fill="#009999"/>
<path d="M55.1554 95.0042C53.8136 94.9285 52.4516 94.8781 51.0795 94.8781C49.7074 94.8781 48.3453 94.9285 47.0035 95.0042C45.8328 95.066 44.7302 95.5734 43.9216 96.4222C43.1131 97.2711 42.66 98.3972 42.6552 99.5695V105.825C42.66 106.997 43.1131 108.123 43.9216 108.972C44.7302 109.821 45.8328 110.328 47.0035 110.39C48.3453 110.466 49.7074 110.516 51.0795 110.516C52.4516 110.516 53.8136 110.466 55.1554 110.39C56.3261 110.328 57.4288 109.821 58.2373 108.972C59.0458 108.123 59.499 106.997 59.5038 105.825V105.472H57.5364V105.825C57.5324 106.489 57.2757 107.126 56.8184 107.608C56.3612 108.09 55.7377 108.379 55.0747 108.418C53.753 108.498 52.4213 108.549 51.0795 108.549C49.7376 108.549 48.4059 108.498 47.0842 108.418C46.4212 108.379 45.7978 108.09 45.3405 107.608C44.8832 107.126 44.6265 106.489 44.6225 105.825V99.5695C44.6265 98.9054 44.8832 98.2677 45.3405 97.7861C45.7978 97.3045 46.4212 97.015 47.0842 96.9766C48.4059 96.8959 49.7376 96.8454 51.0795 96.8454C52.4213 96.8454 53.753 96.8959 55.0747 96.9766C55.7377 97.015 56.3612 97.3045 56.8184 97.7861C57.2757 98.2677 57.5324 98.9054 57.5364 99.5695V101.688H49.4148V103.706H59.5038V99.5695C59.499 98.3972 59.0458 97.2711 58.2373 96.4222C57.4288 95.5734 56.3261 95.066 55.1554 95.0042ZM72.8263 95.0294C71.7417 94.9386 70.6319 94.8781 69.5272 94.8781C68.4224 94.8781 67.3127 94.9386 66.2291 95.0294C65.095 95.1342 64.0403 95.657 63.2701 96.496C62.4998 97.3351 62.069 98.4305 62.0613 99.5695V110.365H64.0287V99.5695C64.0328 98.9066 64.2878 98.27 64.7422 97.7874C65.1967 97.3049 65.8169 97.0123 66.4783 96.9685C67.4811 96.8989 68.4981 96.8454 69.5272 96.8454C70.5563 96.8454 71.5742 96.8959 72.5771 96.9685C73.2383 97.0126 73.8583 97.3053 74.3125 97.7878C74.7668 98.2703 75.0216 98.9068 75.0257 99.5695V110.365H76.993V99.5695C76.9854 98.4307 76.5547 97.3354 75.7847 96.4963C75.0147 95.6573 73.9602 95.1345 72.8263 95.0294ZM91.9903 95.0042C90.6485 94.9285 89.2865 94.8781 87.9144 94.8781C86.5423 94.8781 85.1803 94.9285 83.8384 95.0042C82.6678 95.066 81.5651 95.5734 80.7565 96.4222C79.948 97.2711 79.4949 98.3972 79.4901 99.5695V105.825C79.4949 106.997 79.948 108.123 80.7565 108.972C81.5651 109.821 82.6678 110.328 83.8384 110.39C85.1803 110.466 86.5423 110.516 87.9144 110.516C89.2865 110.516 90.6485 110.466 91.9903 110.39C93.161 110.328 94.2637 109.821 95.0722 108.972C95.8808 108.123 96.3339 106.997 96.3387 105.825V105.472H94.3713V105.825C94.3673 106.489 94.1106 107.126 93.6534 107.608C93.1961 108.09 92.5726 108.379 91.9096 108.418C90.588 108.498 89.2562 108.549 87.9144 108.549C86.5725 108.549 85.2408 108.498 83.9191 108.418C83.2561 108.379 82.6327 108.09 82.1754 107.608C81.7182 107.126 81.4614 106.489 81.4574 105.825V99.5695C81.4614 98.9054 81.7182 98.2677 82.1754 97.7861C82.6327 97.3045 83.2561 97.015 83.9191 96.9766C85.2408 96.8959 86.5725 96.8454 87.9144 96.8454C89.2562 96.8454 90.588 96.8959 91.9096 96.9766C92.5726 97.015 93.1961 97.3045 93.6534 97.7861C94.1106 98.2677 94.3673 98.9054 94.3713 99.5695V101.688H86.2497V103.706H96.3387V99.5695C96.3339 98.3972 95.8808 97.2711 95.0722 96.4222C94.2637 95.5734 93.161 95.066 91.9903 95.0042ZM99.1122 99.5684V110.364H101.08V99.5684C101.08 98.1893 102.211 96.9957 103.579 96.9957H107.587V95.0274H103.51C101.367 95.0294 99.1122 96.8878 99.1122 99.5684ZM121.501 95.0042C120.159 94.9285 118.797 94.8781 117.425 94.8781C116.053 94.8781 114.691 94.9285 113.349 95.0042C112.178 95.066 111.075 95.5734 110.267 96.4222C109.458 97.2711 109.005 98.3972 109 99.5695V105.825C109.005 106.997 109.458 108.123 110.267 108.972C111.075 109.821 112.178 110.328 113.349 110.39C114.691 110.466 116.053 110.516 117.425 110.516C118.797 110.516 120.159 110.466 121.501 110.39C122.671 110.328 123.774 109.821 124.583 108.972C125.391 108.123 125.844 106.997 125.849 105.825V101.688H115.76V103.706H123.882V105.825C123.878 106.489 123.621 107.126 123.164 107.608C122.706 108.09 122.083 108.379 121.42 108.418C120.098 108.498 118.767 108.549 117.425 108.549C116.083 108.549 114.751 108.498 113.429 108.418C112.766 108.379 112.143 108.09 111.686 107.608C111.228 107.126 110.972 106.489 110.968 105.825V99.5695C110.972 98.9054 111.228 98.2677 111.686 97.7861C112.143 97.3045 112.766 97.015 113.429 96.9766C114.751 96.8959 116.083 96.8454 117.425 96.8454C118.767 96.8454 120.098 96.8959 121.42 96.9766C122.083 97.015 122.706 97.3045 123.164 97.7861C123.621 98.2677 123.878 98.9054 123.882 99.5695V99.9226H125.849V99.5695C125.844 98.3972 125.391 97.2711 124.583 96.4222C123.774 95.5734 122.671 95.066 121.501 95.0042ZM143.545 95.0294H141.081L134.397 103.898C133.802 104.685 133.481 105.645 133.483 106.632V110.365H135.451V106.632C135.45 106.072 135.632 105.527 135.97 105.081L143.545 95.0294ZM128.641 95.0294H126.072L133.08 103.38L134.295 101.767L128.641 95.0294Z" fill="#641E8C"/>
</g>
<defs>
<clipPath id="clip0_132_5281">
<rect width="100.89" height="34.6054" fill="white" transform="translate(42.655 75.9106)"/>
</clipPath>
</defs>
</svg>
