<svg width="187" height="187" viewBox="0 0 187 187" fill="none" xmlns="http://www.w3.org/2000/svg">
<rect width="187" height="187" fill="white"/>
<g clip-path="url(#clip0_132_5285)">
<path d="M29.3964 84.5383C29.772 86.0033 31.0403 87.5006 32.7805 87.8758H38.04L38.3083 87.9817V101.253H41.5925V87.9817L41.8909 87.8758H47.155C48.9146 87.4225 50.1557 86.0033 50.5248 84.5383V84.5059H29.3964V84.5383Z" fill="#E82127"/>
<path d="M61.9018 101.291H74.3963C76.1346 100.945 77.4266 99.4137 77.7888 97.9311H58.5093C58.8691 99.4141 60.1801 100.945 61.9018 101.291Z" fill="#E82127"/>
<path d="M61.9018 94.4831H74.3963C76.1346 94.1404 77.4266 92.6083 77.7888 91.1239H58.5093C58.8691 92.6088 60.1801 94.1404 61.9018 94.4831Z" fill="#E82127"/>
<path d="M61.9018 87.858H74.3963C76.1346 87.5116 77.4266 85.9809 77.7888 84.4974H58.5093C58.8691 85.9809 60.1801 87.5116 61.9018 87.858Z" fill="#E82127"/>
<path d="M90.3975 87.8262H101.941C103.681 87.3206 105.142 85.9948 105.498 84.5252H87.1618V94.4313H102.17V97.9075L90.3975 97.9168C88.5528 98.4312 86.9884 99.6699 86.208 101.306L87.1618 101.288H105.394V91.1377H90.3975V87.8262Z" fill="#E82127"/>
<path d="M129.68 101.293C131.319 100.598 132.2 99.396 132.538 97.9898H117.959L117.968 84.5205L114.7 84.5297V101.293H129.68Z" fill="#E82127"/>
<path d="M142.412 87.8713H154.911C156.647 87.5263 157.938 85.9942 158.302 84.5121H139.022C139.382 85.9947 140.692 87.5263 142.412 87.8713Z" fill="#E82127"/>
<path d="M139.524 91.1501V101.286H142.775V94.5376H154.605V101.286H157.853V91.1677L139.524 91.1501Z" fill="#E82127"/>
</g>
<defs>
<clipPath id="clip0_132_5285">
<rect width="129.058" height="17.1153" fill="white" transform="translate(29.3962 84.4504)"/>
</clipPath>
</defs>
</svg>
