<svg width="187" height="187" viewBox="0 0 187 187" fill="none" xmlns="http://www.w3.org/2000/svg">
<rect width="187" height="187" fill="white"/>
<path d="M136.829 86.4991C134.155 86.4991 132.485 87.9844 131.679 91.2156L131.186 93.1841C130.38 96.415 131.301 97.9379 133.974 97.9379H139.597C140.451 97.9379 140.86 98.3834 140.684 99.0892L140.407 100.203C140.23 100.909 139.599 101.354 138.746 101.354H129.266L128.581 104.102H141.467C144.438 104.102 146.248 102.803 146.896 100.203L147.845 96.4168C148.493 93.8175 147.331 92.5175 144.36 92.5175H138.998C138.219 92.5175 137.93 92.1835 138.106 91.4777L138.4 90.2869C138.576 89.5816 139.031 89.2472 139.81 89.2472H149.587L150.271 86.4995L136.829 86.4991Z" fill="#104277"/>
<path d="M82.6812 86.4991C80.007 86.4991 78.3367 87.9844 77.5313 91.2156L77.0378 93.1841C76.2324 96.415 77.153 97.9379 79.8265 97.9379H85.4492C86.3037 97.9379 86.7123 98.3834 86.5366 99.0892L86.259 100.203C86.083 100.909 85.4514 101.354 84.5976 101.354H75.1184L74.433 104.102H87.3187C90.2901 104.102 92.1002 102.803 92.7477 100.203L93.697 96.4168C94.3456 93.8175 93.1836 92.5175 90.2126 92.5175H84.8501C84.0705 92.5175 83.7815 92.1835 83.9583 91.4777L84.2518 90.2869C84.4286 89.5816 84.8833 89.2472 85.6625 89.2472H95.4389L96.1236 86.4995L82.6812 86.4991Z" fill="#104277"/>
<path d="M99.1617 85.9299L95.8626 99.163C95.0095 102.58 96.2642 104.102 98.8649 104.102H105.592L106.277 101.354H103.55C102.399 101.354 102.037 101.021 102.398 99.5716L104.973 89.2467H108.664L109.349 86.4991H105.658L106.724 82.2258L99.1617 85.9299Z" fill="#104277"/>
<path d="M45.4077 104.103L58.8305 82.7954H55.2047L44.8954 99.7535H44.8614L42.732 82.7954H35.1781L38.1476 104.103H45.4077Z" fill="#104277"/>
<path d="M63.1019 90.5099C63.3329 89.5812 63.6766 89.2468 64.5303 89.2468H67.2293C68.0838 89.2468 68.4924 89.6923 68.3163 90.398L67.1595 95.0389H61.972L63.1019 90.5099ZM61.8458 86.4991C58.8755 86.4991 57.1023 87.9475 56.2973 91.178L54.2409 99.4236C53.4355 102.654 54.4856 104.102 57.457 104.102H71.5369L72.2227 101.354H61.7738C60.9193 101.354 60.5107 100.909 60.6864 100.203L61.2873 97.7881H73.1122L74.7603 91.1784C75.5657 87.9479 74.5152 86.4995 71.5442 86.4995L61.8458 86.4991Z" fill="#104277"/>
<path d="M114.831 100.204L115.775 96.4172C115.952 95.7114 116.583 95.2667 117.437 95.2667H121.247L119.73 101.355H115.918C115.064 101.355 114.656 100.909 114.831 100.204ZM112.211 86.4995L111.527 89.2472L121.375 89.2475C122.23 89.2475 122.639 89.6927 122.463 90.3988L121.932 92.5175H114.568C111.596 92.5175 109.787 93.8164 109.139 96.4168L108.19 100.203C107.542 102.803 108.703 104.102 111.674 104.102H125.683L128.908 91.178C129.713 87.9475 128.662 86.4991 125.692 86.4991L112.211 86.4995Z" fill="#104277"/>
<path d="M148.635 102.169H148.969C149.192 102.169 149.277 102.31 149.277 102.448C149.277 102.585 149.188 102.726 148.965 102.726H148.634V102.169H148.635ZM148.46 101.99V103.45H148.635V102.904H148.965H148.995L149.24 103.45H149.441L149.173 102.867C149.359 102.796 149.455 102.633 149.455 102.451C149.455 102.21 149.292 101.99 148.969 101.99H148.46ZM147.724 102.729C147.724 102.061 148.244 101.519 148.909 101.519C149.574 101.519 150.094 102.061 150.094 102.729C150.094 103.398 149.574 103.937 148.909 103.937C148.244 103.937 147.724 103.398 147.724 102.729ZM147.546 102.729C147.546 103.487 148.151 104.104 148.909 104.104C149.667 104.104 150.272 103.487 150.272 102.729C150.272 101.972 149.667 101.355 148.909 101.355C148.151 101.356 147.546 101.972 147.546 102.729Z" fill="#104277"/>
<mask id="mask0_132_5241" style="mask-type:luminance" maskUnits="userSpaceOnUse" x="147" y="101" width="4" height="4">
<path d="M149.43 103.079L149.141 103.246C148.948 103.358 148.803 103.278 148.734 103.159C148.666 103.04 148.672 102.873 148.865 102.762L149.152 102.596L149.43 103.079L149.43 103.079ZM149.671 103.146L148.941 101.883L148.789 101.97L149.062 102.443L148.776 102.608L148.75 102.623L148.265 102.273L148.091 102.373L148.615 102.744C148.489 102.898 148.487 103.088 148.578 103.245C148.699 103.454 148.95 103.562 149.229 103.401L149.671 103.146ZM149.938 102.139C150.272 102.717 150.093 103.447 149.517 103.779C148.941 104.112 148.22 103.902 147.886 103.323C147.552 102.745 147.732 102.018 148.308 101.685C148.884 101.353 149.604 101.56 149.938 102.139ZM150.092 102.049C149.713 101.393 148.881 101.162 148.225 101.541C147.568 101.92 147.353 102.756 147.732 103.412C148.111 104.068 148.943 104.3 149.599 103.921C150.255 103.542 150.471 102.705 150.092 102.049Z" fill="white"/>
</mask>
<g mask="url(#mask0_132_5241)">
<path d="M148.231 105.285L151.465 103.418L149.593 100.177L146.359 102.044L148.231 105.285Z" fill="#104277"/>
</g>
</svg>
