<svg width="40" height="40" viewBox="0 0 40 40" fill="none" xmlns="http://www.w3.org/2000/svg">
<path d="M7.50001 36.6668V28.3335M7.50001 11.6668V3.3335M3.33334 7.50016H11.6667M3.33334 32.5002H11.6667M21.6667 5.00016L18.7764 12.5149C18.3064 13.737 18.0714 14.348 17.7059 14.862C17.382 15.3175 16.984 15.7155 16.5285 16.0394C16.0145 16.4048 15.4035 16.6398 14.1814 17.1099L6.66668 20.0002L14.1814 22.8905C15.4035 23.3605 16.0145 23.5955 16.5285 23.9609C16.984 24.2848 17.382 24.6828 17.7059 25.1384C18.0714 25.6523 18.3064 26.2633 18.7764 27.4854L21.6667 35.0002L24.557 27.4854C25.027 26.2633 25.262 25.6523 25.6275 25.1384C25.9514 24.6828 26.3494 24.2848 26.8049 23.9609C27.3188 23.5955 27.9299 23.3605 29.1519 22.8905L36.6667 20.0002L29.1519 17.1099C27.9299 16.6398 27.3188 16.4048 26.8049 16.0394C26.3493 15.7155 25.9514 15.3175 25.6275 14.862C25.262 14.348 25.027 13.737 24.557 12.5149L21.6667 5.00016Z" stroke="white" stroke-width="2" stroke-linecap="round" stroke-linejoin="round"/>
</svg>
