<svg width="40" height="40" viewBox="0 0 40 40" fill="none" xmlns="http://www.w3.org/2000/svg">
<path d="M15 3.3335V6.66683M25 3.3335V6.66683M15 33.3335V36.6668M25 33.3335V36.6668M33.3333 15.0002H36.6667M33.3333 23.3335H36.6667M3.33333 15.0002H6.66667M3.33333 23.3335H6.66667M14.6667 33.3335H25.3333C28.1336 33.3335 29.5337 33.3335 30.6033 32.7885C31.5441 32.3092 32.309 31.5443 32.7884 30.6034C33.3333 29.5339 33.3333 28.1338 33.3333 25.3335V14.6668C33.3333 11.8666 33.3333 10.4664 32.7884 9.39688C32.309 8.45607 31.5441 7.69116 30.6033 7.2118C29.5337 6.66683 28.1336 6.66683 25.3333 6.66683H14.6667C11.8664 6.66683 10.4663 6.66683 9.39671 7.2118C8.4559 7.69116 7.691 8.45607 7.21163 9.39688C6.66667 10.4664 6.66667 11.8666 6.66667 14.6668V25.3335C6.66667 28.1338 6.66667 29.5339 7.21163 30.6034C7.691 31.5443 8.4559 32.3092 9.39671 32.7885C10.4663 33.3335 11.8664 33.3335 14.6667 33.3335ZM17.6667 25.0002H22.3333C23.2668 25.0002 23.7335 25.0002 24.09 24.8185C24.4036 24.6587 24.6586 24.4038 24.8183 24.0901C25 23.7336 25 23.2669 25 22.3335V17.6668C25 16.7334 25 16.2667 24.8183 15.9102C24.6586 15.5966 24.4036 15.3416 24.09 15.1818C23.7335 15.0002 23.2668 15.0002 22.3333 15.0002H17.6667C16.7332 15.0002 16.2665 15.0002 15.91 15.1818C15.5964 15.3416 15.3414 15.5966 15.1817 15.9102C15 16.2667 15 16.7334 15 17.6668V22.3335C15 23.2669 15 23.7336 15.1817 24.0901C15.3414 24.4038 15.5964 24.6587 15.91 24.8185C16.2665 25.0002 16.7332 25.0002 17.6667 25.0002Z" stroke="#2A59BD" stroke-width="2" stroke-linecap="round" stroke-linejoin="round"/>
</svg>
