<svg width="40" height="40" viewBox="0 0 40 40" fill="none" xmlns="http://www.w3.org/2000/svg">
<path d="M33.3333 20.8335V11.3335C33.3333 8.53323 33.3333 7.1331 32.7884 6.06354C32.309 5.12273 31.5441 4.35783 30.6033 3.87846C29.5337 3.3335 28.1336 3.3335 25.3333 3.3335H14.6667C11.8664 3.3335 10.4663 3.3335 9.39672 3.87846C8.45591 4.35783 7.69101 5.12273 7.21164 6.06354C6.66667 7.1331 6.66667 8.53323 6.66667 11.3335V28.6668C6.66667 31.4671 6.66667 32.8672 7.21164 33.9368C7.69101 34.8776 8.45591 35.6425 9.39672 36.1219C10.4663 36.6668 11.8664 36.6668 14.6667 36.6668H20M23.3333 18.3335H13.3333M16.6667 25.0002H13.3333M26.6667 11.6668H13.3333M24.1667 31.6668L27.5 35.0002L35 27.5002" stroke="#2A59BD" stroke-width="2" stroke-linecap="round" stroke-linejoin="round"/>
</svg>
