<svg width="200" height="54" viewBox="0 0 200 54" fill="none" xmlns="http://www.w3.org/2000/svg">
<g id="id-gov-ua-diia 1" clip-path="url(#clip0_4114_34870)">
<g id="&#208;&#168;&#208;&#176;&#209;&#128; 2">
<g id="Layer 1">
<path id="rect882" d="M118.789 0H64.9301C50.0573 0 38.0005 12.0883 38.0005 27C38.0005 41.9117 50.0573 54 64.9301 54H118.789C133.662 54 145.719 41.9117 145.719 27C145.719 12.0883 133.662 0 118.789 0Z" fill="black"/>
<path id="path884" d="M91.8598 39C89.4926 39 87.1786 38.2962 85.2104 36.9776C83.2421 35.6591 81.7081 33.7849 80.8022 31.5922C79.8963 29.3995 79.6593 26.9867 80.1211 24.6589C80.5829 22.3312 81.7228 20.193 83.3967 18.5147C85.0705 16.8365 87.2031 15.6936 89.5248 15.2306C91.8465 14.7676 94.2531 15.0052 96.44 15.9135C98.627 16.8217 100.496 18.3598 101.811 20.3332C103.127 22.3066 103.829 24.6266 103.829 27C103.825 30.1815 102.563 33.2317 100.319 35.4813C98.0752 37.731 95.033 38.9964 91.8598 39ZM91.8598 19.5C90.3803 19.5 88.9341 19.9399 87.7039 20.764C86.4738 21.5881 85.515 22.7594 84.9488 24.1299C84.3826 25.5003 84.2345 27.0083 84.5231 28.4632C84.8118 29.918 85.5242 31.2544 86.5704 32.3033C87.6165 33.3522 88.9494 34.0665 90.4005 34.3559C91.8515 34.6453 93.3556 34.4968 94.7225 33.9291C96.0893 33.3614 97.2576 32.4002 98.0796 31.1668C98.9015 29.9334 99.3403 28.4834 99.3403 27C99.3379 25.0116 98.549 23.1053 97.1467 21.6993C95.7443 20.2933 93.843 19.5024 91.8598 19.5Z" fill="white"/>
<path id="path886" d="M163.522 39C160.349 38.9964 157.307 37.731 155.063 35.4813C152.819 33.2317 151.557 30.1815 151.554 27V17.25C151.554 16.6533 151.79 16.081 152.211 15.659C152.632 15.2371 153.203 15 153.798 15C154.393 15 154.964 15.2371 155.385 15.659C155.806 16.081 156.042 16.6533 156.042 17.25V27C156.042 28.9891 156.83 30.8968 158.233 32.3033C159.636 33.7098 161.538 34.5 163.522 34.5C165.506 34.5 167.409 33.7098 168.812 32.3033C170.215 30.8968 171.003 28.9891 171.003 27V17.25C171.003 16.6533 171.239 16.081 171.66 15.659C172.081 15.2371 172.652 15 173.247 15C173.842 15 174.413 15.2371 174.834 15.659C175.255 16.081 175.491 16.6533 175.491 17.25V27C175.488 30.1815 174.225 33.2317 171.982 35.4813C169.738 37.731 166.696 38.9964 163.522 39Z" fill="black"/>
<path id="path888" d="M117.443 38.9998C117.02 38.9997 116.606 38.8799 116.248 38.654C115.89 38.4282 115.603 38.1056 115.42 37.7233L106.444 18.9733C106.218 18.441 106.206 17.842 106.409 17.3007C106.613 16.7595 107.016 16.3175 107.536 16.0666C108.055 15.8157 108.652 15.7751 109.2 15.9533C109.749 16.1314 110.209 16.5146 110.483 17.0233L117.443 31.5508L124.397 17.0263C124.515 16.7461 124.69 16.493 124.909 16.2823C125.128 16.0715 125.387 15.9075 125.671 15.8002C125.955 15.6929 126.258 15.6445 126.562 15.658C126.865 15.6714 127.162 15.7465 127.436 15.8785C127.709 16.0106 127.953 16.1969 128.153 16.4262C128.353 16.6556 128.504 16.9231 128.597 17.2128C128.691 17.5024 128.725 17.808 128.697 18.1111C128.669 18.4142 128.581 18.7086 128.436 18.9763L119.46 37.7263C119.277 38.1071 118.99 38.4285 118.634 38.6537C118.277 38.8789 117.864 38.9989 117.443 38.9998Z" fill="white"/>
<g id="Vector">
<path d="M197.757 39.0001C197.334 39.0006 196.919 38.881 196.561 38.6551C196.202 38.4293 195.915 38.1063 195.732 37.7236L188.779 23.1991L181.825 37.7236C181.551 38.2323 181.092 38.6155 180.543 38.7937C179.994 38.9718 179.398 38.9312 178.878 38.6803C178.358 38.4294 177.955 37.9875 177.751 37.4462C177.548 36.905 177.56 36.306 177.786 35.7736L186.762 17.0236C186.946 16.6432 187.233 16.3224 187.59 16.0979C187.948 15.8735 188.361 15.7544 188.782 15.7544C189.204 15.7544 189.617 15.8735 189.974 16.0979C190.331 16.3224 190.618 16.6432 190.802 17.0236L199.778 35.7736C199.943 36.1166 200.019 36.4959 199.997 36.8759C199.976 37.256 199.859 37.6245 199.657 37.9469C199.455 38.2692 199.175 38.5349 198.843 38.7192C198.51 38.9034 198.137 39 197.757 39.0001Z" fill="black"/>
<path d="M182.092 31.0577H195.159H182.092Z" fill="black"/>
</g>
<path id="path892" d="M64.6309 39C62.6626 38.9999 60.7248 38.5132 58.989 37.5829C57.2532 36.6526 55.773 35.3075 54.6796 33.6666C53.5861 32.0258 52.9131 30.1399 52.7202 28.1761C52.5273 26.2122 52.8205 24.2309 53.5737 22.4077C54.3269 20.5846 55.517 18.9758 57.0384 17.7239C58.5599 16.472 60.3658 15.6156 62.2962 15.2306C64.2266 14.8456 66.2219 14.9438 68.1054 15.5167C69.9889 16.0895 71.7024 17.1191 73.0942 18.5145C73.3086 18.7221 73.4795 18.9703 73.5971 19.2448C73.7148 19.5194 73.7767 19.8146 73.7793 20.1133C73.7818 20.4121 73.7251 20.7084 73.6122 20.9849C73.4994 21.2614 73.3328 21.5126 73.1221 21.7239C72.9113 21.9351 72.6608 22.1022 72.385 22.2153C72.1092 22.3285 71.8137 22.3854 71.5157 22.3828C71.2177 22.3802 70.9233 22.3182 70.6495 22.2002C70.3757 22.0823 70.128 21.9109 69.921 21.696C68.7664 20.5383 67.2656 19.7912 65.6478 19.5688C64.03 19.3464 62.3841 19.6608 60.9612 20.4642C59.5383 21.2675 58.4167 22.5155 57.7676 24.0178C57.1184 25.5201 56.9774 27.1941 57.366 28.7842C57.7547 30.3744 58.6516 31.7934 59.9199 32.8246C61.1883 33.8558 62.7583 34.4426 64.3904 34.4954C66.0225 34.5482 67.627 34.0641 68.9589 33.1169C70.2909 32.1698 71.2772 30.8117 71.7672 29.25H64.6309C64.0357 29.25 63.4649 29.0129 63.044 28.591C62.6232 28.169 62.3867 27.5967 62.3867 27C62.3867 26.4033 62.6232 25.831 63.044 25.409C63.4649 24.9871 64.0357 24.75 64.6309 24.75H74.3554C74.9506 24.75 75.5214 24.9871 75.9423 25.409C76.3631 25.831 76.5996 26.4033 76.5996 27C76.596 30.1815 75.3339 33.2317 73.0901 35.4813C70.8463 37.731 67.8041 38.9964 64.6309 39Z" fill="white"/>
<path id="path894" d="M21.0947 15H11.3701C10.7749 15 10.2041 15.2371 9.78327 15.659C9.36241 16.081 9.12598 16.6533 9.12598 17.25V36.75C9.12598 37.3467 9.36241 37.919 9.78327 38.341C10.2041 38.7629 10.7749 39 11.3701 39H21.0947C24.269 39 27.3133 37.7357 29.5578 35.4853C31.8024 33.2348 33.0634 30.1826 33.0634 27C33.0634 23.8174 31.8024 20.7652 29.5578 18.5147C27.3133 16.2643 24.269 15 21.0947 15ZM21.0947 34.5H13.6142V19.5H21.0947C23.0786 19.5 24.9813 20.2902 26.3841 21.6967C27.787 23.1032 28.5751 25.0109 28.5751 27C28.5751 28.9891 27.787 30.8968 26.3841 32.3033C24.9813 33.7098 23.0786 34.5 21.0947 34.5Z" fill="black"/>
<path id="path896" d="M2.24413 15C1.64895 15 1.07815 15.2371 0.657291 15.659C0.236435 16.081 0 16.6533 0 17.25L0 36.75C0 37.3467 0.236435 37.919 0.657291 38.341C1.07815 38.7629 1.64895 39 2.24413 39C2.83931 39 3.41012 38.7629 3.83097 38.341C4.25183 37.919 4.48826 37.3467 4.48826 36.75V17.25C4.48826 16.6533 4.25183 16.081 3.83097 15.659C3.41012 15.2371 2.83931 15 2.24413 15Z" fill="black"/>
</g>
</g>
<path id="path1562-6 (Stroke)" fill-rule="evenodd" clip-rule="evenodd" d="M195.159 33.0627H182.092V29.0522H195.159V33.0627Z" fill="black"/>
</g>
<defs>
<clipPath id="clip0_4114_34870">
<rect width="200" height="54" fill="white"/>
</clipPath>
</defs>
</svg>
