<svg width="66" height="24" viewBox="0 0 66 24" fill="none" xmlns="http://www.w3.org/2000/svg">
<path d="M20.0742 0V24H15.6914L5.25 8.89453H5.07422V24H0V0H4.45312L14.8125 15.0938H15.0234V0H20.0742Z" fill="#21005D"/>
<path d="M32.1144 24H23.6066V0H32.1847C34.5988 0 36.6769 0.480469 38.4191 1.44141C40.1613 2.39453 41.5011 3.76562 42.4386 5.55469C43.3839 7.34375 43.8566 9.48438 43.8566 11.9766C43.8566 14.4766 43.3839 16.625 42.4386 18.4219C41.5011 20.2188 40.1535 21.5977 38.3957 22.5586C36.6457 23.5195 34.5519 24 32.1144 24ZM28.6808 19.6523H31.9035C33.4035 19.6523 34.6652 19.3867 35.6886 18.8555C36.7199 18.3164 37.4933 17.4844 38.0089 16.3594C38.5324 15.2266 38.7941 13.7656 38.7941 11.9766C38.7941 10.2031 38.5324 8.75391 38.0089 7.62891C37.4933 6.50391 36.7238 5.67578 35.7004 5.14453C34.6769 4.61328 33.4152 4.34766 31.9152 4.34766H28.6808V19.6523Z" fill="#21005D"/>
<path d="M46.9554 24V0H56.4241C58.2445 0 59.7952 0.347656 61.0765 1.04297C62.3577 1.73047 63.3343 2.6875 64.0062 3.91406C64.6859 5.13281 65.0257 6.53906 65.0257 8.13281C65.0257 9.72656 64.682 11.1328 63.9945 12.3516C63.307 13.5703 62.3109 14.5195 61.0062 15.1992C59.7093 15.8789 58.139 16.2188 56.2952 16.2188H50.2601V12.1523H55.4749C56.4515 12.1523 57.2562 11.9844 57.889 11.6484C58.5296 11.3047 59.0062 10.832 59.3187 10.2305C59.639 9.62109 59.7991 8.92188 59.7991 8.13281C59.7991 7.33594 59.639 6.64062 59.3187 6.04687C59.0062 5.44531 58.5296 4.98047 57.889 4.65234C57.2484 4.31641 56.4359 4.14844 55.4515 4.14844H52.0296V24H46.9554Z" fill="#21005D"/>
</svg>
