<svg width="92" height="84" viewBox="0 0 92 84" fill="none" xmlns="http://www.w3.org/2000/svg">
<g filter="url(#filter0_dd_7372_7199)">
<rect x="18" y="10" width="48" height="48" rx="6" fill="white"/>
<path d="M44 24.2695V28.4C44 28.9601 44 29.2401 44.109 29.454C44.2049 29.6422 44.3578 29.7951 44.546 29.891C44.7599 30 45.0399 30 45.6 30H49.7305M50 31.9882V39.2C50 40.8802 50 41.7202 49.673 42.362C49.3854 42.9265 48.9265 43.3854 48.362 43.673C47.7202 44 46.8802 44 45.2 44H38.8C37.1198 44 36.2798 44 35.638 43.673C35.0735 43.3854 34.6146 42.9265 34.327 42.362C34 41.7202 34 40.8802 34 39.2V28.8C34 27.1198 34 26.2798 34.327 25.638C34.6146 25.0735 35.0735 24.6146 35.638 24.327C36.2798 24 37.1198 24 38.8 24H42.0118C42.7455 24 43.1124 24 43.4577 24.0829C43.7638 24.1564 44.0564 24.2776 44.3249 24.4421C44.6276 24.6276 44.887 24.887 45.4059 25.4059L48.5941 28.5941C49.113 29.113 49.3724 29.3724 49.5579 29.6751C49.7224 29.9436 49.8436 30.2362 49.9171 30.5423C50 30.8876 50 31.2545 50 31.9882Z" stroke="#4872D8" stroke-width="2" stroke-linecap="round" stroke-linejoin="round"/>
<g filter="url(#filter1_d_7372_7199)">
<path fill-rule="evenodd" clip-rule="evenodd" d="M60.6727 42.8478C61.16 42.6624 62.1213 42.7759 62.3751 43.3404C62.5913 43.8215 62.777 44.6327 62.7872 44.4598C62.8116 44.0756 62.7628 43.2446 62.9263 42.8103C63.045 42.4937 63.2785 42.1959 63.6226 42.0907C63.9119 42.0012 64.252 41.9699 64.5525 42.0335C64.8702 42.1001 65.2042 42.3323 65.329 42.5531C65.6965 43.2019 65.7026 44.5306 65.7198 44.4598C65.7848 44.1766 65.7909 43.18 66.0071 42.8103C66.1502 42.5656 66.5116 42.3469 66.7045 42.3115C67.0029 42.2574 67.3704 42.2407 67.683 42.3032C67.9358 42.3542 68.2779 42.6614 68.3703 42.8103C68.5926 43.1685 68.7174 44.1807 68.755 44.5369C68.7712 44.6837 68.8301 44.1276 69.0524 43.7704C69.4646 43.105 70.9243 42.9759 70.9791 44.4359C71.0055 45.1169 70.9994 45.0857 70.9994 45.5439C70.9994 46.0812 70.9872 46.4061 70.9588 46.7956C70.9283 47.2111 70.841 48.1535 70.7142 48.6096C70.6269 48.9231 70.3375 49.6281 70.0513 50.0509C70.0513 50.0509 68.9611 51.3526 68.8423 51.9378C68.7235 52.5241 68.7631 52.5283 68.7388 52.9427C68.7154 53.3582 68.8616 53.9039 68.8616 53.9039C68.8616 53.9039 68.0485 54.0122 67.6089 53.9393C67.212 53.8747 66.7207 53.0646 66.5938 52.8167C66.4192 52.4751 66.0467 52.5408 65.9015 52.7928C65.6742 53.1916 65.1818 53.907 64.8357 53.9518C64.1566 54.0393 62.7496 53.983 61.6482 53.9726C61.6482 53.9726 61.836 52.9198 61.4178 52.5585C61.1082 52.2877 60.5753 51.742 60.2565 51.4546L59.412 50.4955C59.1247 50.1206 58.3948 49.5281 58.1502 48.4284C57.934 47.4537 57.9553 46.9757 58.1878 46.5852C58.4233 46.1885 58.8679 45.9719 59.0547 45.9344C59.2658 45.8906 59.7571 45.8938 59.9429 45.9989C60.1692 46.127 60.2606 46.1645 60.4382 46.4061C60.6717 46.7258 60.755 46.881 60.6545 46.5321C60.5773 46.2593 60.3276 45.9125 60.2139 45.522C60.1033 45.1461 59.8068 44.54 59.8282 43.9329C59.8363 43.7028 59.9327 43.13 60.6727 42.8478Z" fill="white"/>
<path fill-rule="evenodd" clip-rule="evenodd" d="M60.6727 42.8478C61.16 42.6624 62.1213 42.7759 62.3751 43.3404C62.5913 43.8215 62.777 44.6327 62.7872 44.4598C62.8116 44.0756 62.7628 43.2446 62.9263 42.8103C63.045 42.4937 63.2785 42.1959 63.6226 42.0907C63.9119 42.0012 64.252 41.9699 64.5525 42.0335C64.8702 42.1001 65.2042 42.3323 65.329 42.5531C65.6965 43.2019 65.7026 44.5306 65.7198 44.4598C65.7848 44.1766 65.7909 43.18 66.0071 42.8103C66.1502 42.5656 66.5116 42.3469 66.7045 42.3115C67.0029 42.2574 67.3704 42.2407 67.683 42.3032C67.9358 42.3542 68.2779 42.6614 68.3703 42.8103C68.5926 43.1685 68.7174 44.1807 68.755 44.5369C68.7712 44.6837 68.8301 44.1276 69.0524 43.7704C69.4646 43.105 70.9243 42.9759 70.9791 44.4359C71.0055 45.1169 70.9994 45.0857 70.9994 45.5439C70.9994 46.0812 70.9872 46.4061 70.9588 46.7956C70.9283 47.2111 70.841 48.1535 70.7142 48.6096C70.6269 48.9231 70.3375 49.6281 70.0513 50.0509C70.0513 50.0509 68.9611 51.3526 68.8423 51.9378C68.7235 52.5241 68.7631 52.5283 68.7388 52.9427C68.7154 53.3582 68.8616 53.9039 68.8616 53.9039C68.8616 53.9039 68.0485 54.0122 67.6089 53.9393C67.212 53.8747 66.7207 53.0646 66.5938 52.8167C66.4192 52.4751 66.0467 52.5408 65.9015 52.7928C65.6742 53.1916 65.1818 53.907 64.8357 53.9518C64.1566 54.0393 62.7496 53.983 61.6482 53.9726C61.6482 53.9726 61.836 52.9198 61.4178 52.5585C61.1082 52.2877 60.5753 51.742 60.2565 51.4546L59.412 50.4955C59.1247 50.1206 58.3948 49.5281 58.1502 48.4284C57.934 47.4537 57.9553 46.9757 58.1878 46.5852C58.4233 46.1885 58.8679 45.9719 59.0547 45.9344C59.2658 45.8906 59.7571 45.8938 59.9429 45.9989C60.1692 46.127 60.2606 46.1645 60.4382 46.4061C60.6717 46.7258 60.755 46.881 60.6545 46.5321C60.5773 46.2593 60.3276 45.9125 60.2139 45.522C60.1033 45.1461 59.8068 44.54 59.8282 43.9329C59.8363 43.7028 59.9327 43.13 60.6727 42.8478Z" stroke="#101828" stroke-width="0.75" stroke-linecap="round" stroke-linejoin="round"/>
</g>
<path fill-rule="evenodd" clip-rule="evenodd" d="M64 47.5C64 47.2239 63.7761 47 63.5 47C63.2239 47 63 47.2239 63 47.5V50.5C63 50.7761 63.2239 51 63.5 51C63.7761 51 64 50.7761 64 50.5V47.5ZM65.5 47C65.7761 47 66 47.2239 66 47.5V50.5C66 50.7761 65.7761 51 65.5 51C65.2239 51 65 50.7761 65 50.5V47.5C65 47.2239 65.2239 47 65.5 47ZM67.5 47C67.7761 47 68 47.2239 68 47.5V50.5C68 50.7761 67.7761 51 67.5 51C67.2239 51 67 50.7761 67 50.5V47.5C67 47.2239 67.2239 47 67.5 47Z" fill="#101828"/>
</g>
<defs>
<filter id="filter0_dd_7372_7199" x="0" y="0" width="92" height="84" filterUnits="userSpaceOnUse" color-interpolation-filters="sRGB">
<feFlood flood-opacity="0" result="BackgroundImageFix"/>
<feColorMatrix in="SourceAlpha" type="matrix" values="0 0 0 0 0 0 0 0 0 0 0 0 0 0 0 0 0 0 127 0" result="hardAlpha"/>
<feOffset dy="4"/>
<feGaussianBlur stdDeviation="2"/>
<feColorMatrix type="matrix" values="0 0 0 0 0 0 0 0 0 0 0 0 0 0 0 0 0 0 0.12 0"/>
<feBlend mode="normal" in2="BackgroundImageFix" result="effect1_dropShadow_7372_7199"/>
<feColorMatrix in="SourceAlpha" type="matrix" values="0 0 0 0 0 0 0 0 0 0 0 0 0 0 0 0 0 0 127 0" result="hardAlpha"/>
<feMorphology radius="6" operator="dilate" in="SourceAlpha" result="effect2_dropShadow_7372_7199"/>
<feOffset dy="8"/>
<feGaussianBlur stdDeviation="6"/>
<feColorMatrix type="matrix" values="0 0 0 0 0 0 0 0 0 0 0 0 0 0 0 0 0 0 0.08 0"/>
<feBlend mode="normal" in2="effect1_dropShadow_7372_7199" result="effect2_dropShadow_7372_7199"/>
<feBlend mode="normal" in="SourceGraphic" in2="effect2_dropShadow_7372_7199" result="shape"/>
</filter>
<filter id="filter1_d_7372_7199" x="55.625" y="40.625" width="17.75" height="16.75" filterUnits="userSpaceOnUse" color-interpolation-filters="sRGB">
<feFlood flood-opacity="0" result="BackgroundImageFix"/>
<feColorMatrix in="SourceAlpha" type="matrix" values="0 0 0 0 0 0 0 0 0 0 0 0 0 0 0 0 0 0 127 0" result="hardAlpha"/>
<feOffset dy="1"/>
<feGaussianBlur stdDeviation="1"/>
<feColorMatrix type="matrix" values="0 0 0 0 0.027451 0 0 0 0 0.12549 0 0 0 0 0.239216 0 0 0 0.24 0"/>
<feBlend mode="normal" in2="BackgroundImageFix" result="effect1_dropShadow_7372_7199"/>
<feBlend mode="normal" in="SourceGraphic" in2="effect1_dropShadow_7372_7199" result="shape"/>
</filter>
</defs>
</svg>
