<svg width="48" height="64" viewBox="0 0 48 64" fill="none" xmlns="http://www.w3.org/2000/svg">
<path fill-rule="evenodd" clip-rule="evenodd" d="M8.38538 0H29.8043L47.9299 18.9197V55.6613C47.9299 60.2628 44.2161 64 39.6146 64H8.38538C3.80727 64 0.0700684 60.2628 0.0700684 55.6613V8.31531C0.0699875 3.7372 3.80727 0 8.38538 0Z" fill="#6750A4"/>
<path opacity="0.302" fill-rule="evenodd" clip-rule="evenodd" d="M29.781 0V18.7562H47.9299L29.781 0Z" fill="white"/>
<path d="M9.51491 46V34.3636H13.8786C14.7725 34.3636 15.5225 34.5303 16.1286 34.8636C16.7384 35.197 17.1986 35.6553 17.5092 36.2386C17.8236 36.8182 17.9808 37.4773 17.9808 38.2159C17.9808 38.9621 17.8236 39.625 17.5092 40.2045C17.1948 40.7841 16.7308 41.2405 16.1172 41.5739C15.5036 41.9034 14.7479 42.0682 13.8501 42.0682H10.9581V40.3352H13.5661C14.0888 40.3352 14.5168 40.2443 14.8501 40.0625C15.1835 39.8807 15.4297 39.6307 15.5888 39.3125C15.7517 38.9943 15.8331 38.6288 15.8331 38.2159C15.8331 37.803 15.7517 37.4394 15.5888 37.125C15.4297 36.8106 15.1816 36.5663 14.8445 36.392C14.5111 36.214 14.0812 36.125 13.5547 36.125H11.6229V46H9.51491ZM23.755 46H19.8118V34.3636H23.8345C24.9898 34.3636 25.9822 34.5966 26.8118 35.0625C27.6451 35.5246 28.2853 36.1894 28.7322 37.0568C29.1792 37.9242 29.4027 38.9621 29.4027 40.1705C29.4027 41.3826 29.1773 42.4242 28.7266 43.2955C28.2796 44.1667 27.6338 44.8352 26.7891 45.3011C25.9482 45.767 24.9368 46 23.755 46ZM21.9197 44.1761H23.6527C24.4633 44.1761 25.1394 44.0284 25.6811 43.733C26.2228 43.4337 26.63 42.9886 26.9027 42.3977C27.1754 41.803 27.3118 41.0606 27.3118 40.1705C27.3118 39.2803 27.1754 38.5417 26.9027 37.9545C26.63 37.3636 26.2266 36.9223 25.6925 36.6307C25.1622 36.3352 24.5031 36.1875 23.7152 36.1875H21.9197V44.1761ZM31.4055 46V34.3636H38.8601V36.1307H33.5135V39.2898H38.3487V41.0568H33.5135V46H31.4055Z" fill="white"/>
</svg>
