<svg version="1.1" id="Layer_1" xmlns="http://www.w3.org/2000/svg" x="0" y="0" viewBox="0 0 151 91" xml:space="preserve"><style>.st1{fill:#bdc5cb}</style><path fill="#f7f8f9" stroke="#d2d2d2" stroke-miterlimit="10" d="M.5.5h150v90H.5z"/><path class="st1" d="M17.5 33h26v25h-26zM47.5 33h26v25h-26zM77.5 33h26v25h-26zM107.5 33h26v25h-26zM11.5 45.5l3.2-3.2c.1-.1.1-.2.1-.3s0-.2-.1-.3l-.3-.3c-.1-.1-.2-.1-.3-.1s-.2 0-.3.1l-3.9 3.9c-.1.1-.1.2-.1.3s0 .2.1.3l3.9 3.9c.1.1.2.1.3.1s.2 0 .3-.1l.3-.3c.2-.2.2-.5 0-.7l-3.2-3.3zM139.5 45.5l-3.2 3.2c-.1.1-.1.2-.1.3s0 .2.1.3l.3.3c.1.1.2.1.3.1s.2 0 .3-.1l3.9-3.9c.1-.1.1-.2.1-.3s0-.2-.1-.3l-3.9-3.9c-.1-.1-.2-.1-.3-.1s-.2 0-.3.1l-.3.3c-.2.2-.2.5 0 .7l3.2 3.3z"/><g><circle class="st1" cx="70.5" cy="63.4" r="1.8"/><circle class="st1" cx="75.5" cy="63.4" r="1.8"/><circle class="st1" cx="80.5" cy="63.4" r="1.8"/></g></svg>