<svg width="25" height="24" viewBox="0 0 25 24" fill="none" xmlns="http://www.w3.org/2000/svg">
<g id="Icon">
<mask id="mask0_719_25723" style="mask-type:alpha" maskUnits="userSpaceOnUse" x="0" y="0" width="25" height="24">
<rect id="Bounding box" x="0.75" width="24" height="24" fill="#D9D9D9"/>
</mask>
<g mask="url(#mask0_719_25723)">
<path id="balance" d="M2.75 21V19H11.75V7.825C11.3167 7.675 10.9417 7.44167 10.625 7.125C10.3083 6.80833 10.075 6.43333 9.925 6H6.75L9.75 13C9.75 13.8333 9.40833 14.5417 8.725 15.125C8.04167 15.7083 7.21667 16 6.25 16C5.28333 16 4.45833 15.7083 3.775 15.125C3.09167 14.5417 2.75 13.8333 2.75 13L5.75 6H3.75V4H9.925C10.125 3.41667 10.4833 2.9375 11 2.5625C11.5167 2.1875 12.1 2 12.75 2C13.4 2 13.9833 2.1875 14.5 2.5625C15.0167 2.9375 15.375 3.41667 15.575 4H21.75V6H19.75L22.75 13C22.75 13.8333 22.4083 14.5417 21.725 15.125C21.0417 15.7083 20.2167 16 19.25 16C18.2833 16 17.4583 15.7083 16.775 15.125C16.0917 14.5417 15.75 13.8333 15.75 13L18.75 6H15.575C15.425 6.43333 15.1917 6.80833 14.875 7.125C14.5583 7.44167 14.1833 7.675 13.75 7.825V19H22.75V21H2.75ZM17.375 13H21.125L19.25 8.65L17.375 13ZM4.375 13H8.125L6.25 8.65L4.375 13ZM12.75 6C13.0333 6 13.2708 5.90417 13.4625 5.7125C13.6542 5.52083 13.75 5.28333 13.75 5C13.75 4.71667 13.6542 4.47917 13.4625 4.2875C13.2708 4.09583 13.0333 4 12.75 4C12.4667 4 12.2292 4.09583 12.0375 4.2875C11.8458 4.47917 11.75 4.71667 11.75 5C11.75 5.28333 11.8458 5.52083 12.0375 5.7125C12.2292 5.90417 12.4667 6 12.75 6Z" fill="#2A59BD"/>
</g>
</g>
</svg>
