<svg width="18" height="18" viewBox="0 0 18 18" fill="none" xmlns="http://www.w3.org/2000/svg">
<g id="light-bulb">
<path id="Icon" d="M7.2476 12.75H10.7523M8.99996 2.25V3M13.7729 4.22703L13.2426 4.75736M15.75 8.99996H15M3 8.99996H2.25M4.75732 4.75736L4.22699 4.22703M6.34831 11.6517C4.88384 10.1872 4.88384 7.81283 6.34831 6.34837C7.81278 4.8839 10.1871 4.8839 11.6516 6.34837C13.1161 7.81283 13.1161 10.1872 11.6516 11.6517L11.2413 12.062C10.7666 12.5367 10.5 13.1804 10.5 13.8517V14.25C10.5 15.0784 9.82839 15.75 8.99996 15.75C8.17153 15.75 7.49996 15.0784 7.49996 14.25V13.8517C7.49996 13.1804 7.2333 12.5367 6.75863 12.062L6.34831 11.6517Z" stroke="#77777A" stroke-width="1.5" stroke-linecap="round" stroke-linejoin="round"/>
</g>
</svg>
