<svg width="62" height="60" viewBox="0 0 62 60" fill="none" xmlns="http://www.w3.org/2000/svg">
<g clip-path="url(#clip0_1331_12850)">
<g opacity="0.9">
<path d="M56.1775 57.0706C56.1775 55.6139 57.373 54.4331 58.8477 54.4331C60.3224 54.4331 61.5179 55.6139 61.5179 57.0706C61.5179 58.5272 60.3224 59.7081 58.8477 59.7081C57.373 59.7081 56.1775 58.5272 56.1775 57.0706Z" fill="white"/>
<path d="M56.4435 50.0037C56.4435 48.6923 57.52 47.6289 58.8477 47.6289C60.1754 47.6289 61.2519 48.6923 61.2519 50.0037C61.2519 51.3151 60.1754 52.3785 58.8477 52.3785C57.52 52.3785 56.4435 51.3151 56.4435 50.0037Z" fill="white"/>
<path d="M56.7099 42.9363C56.7099 41.7701 57.667 40.8247 58.8477 40.8247C60.0284 40.8247 60.9855 41.7701 60.9855 42.9363C60.9855 44.1025 60.0284 45.0479 58.8477 45.0479C57.667 45.0479 56.7099 44.1025 56.7099 42.9363Z" fill="white"/>
<path d="M56.9759 35.8694C56.9759 34.8484 57.8146 34.02 58.8482 34.02C59.8814 34.02 60.7195 34.8484 60.7195 35.8694C60.7195 36.8899 59.8814 37.7183 58.8482 37.7183C57.8146 37.7183 56.9759 36.8899 56.9759 35.8694Z" fill="white"/>
<path d="M57.2423 28.802C57.2423 27.9262 57.961 27.2163 58.8477 27.2163C59.7344 27.2163 60.4531 27.9262 60.4531 28.802C60.4531 29.6778 59.7344 30.3877 58.8477 30.3877C57.961 30.3877 57.2423 29.6778 57.2423 28.802Z" fill="white"/>
<path d="M57.5083 21.7351C57.5083 21.0045 58.1081 20.4121 58.8477 20.4121C59.5873 20.4121 60.1871 21.0045 60.1871 21.7351C60.1871 22.4657 59.5873 23.0582 58.8477 23.0582C58.1081 23.0582 57.5083 22.4657 57.5083 21.7351Z" fill="white"/>
<path d="M57.7742 14.6682C57.7742 14.0829 58.2546 13.6084 58.8472 13.6084C59.4403 13.6084 59.9212 14.0829 59.9212 14.6682C59.9212 15.2536 59.4403 15.7276 58.8472 15.7276C58.2546 15.7276 57.7742 15.2536 57.7742 14.6682Z" fill="white"/>
<path d="M58.0407 7.60085C58.0407 7.16069 58.4021 6.80371 58.8477 6.80371C59.2933 6.80371 59.6547 7.16069 59.6547 7.60085C59.6547 8.04102 59.2933 8.398 58.8477 8.398C58.4021 8.398 58.0407 8.04102 58.0407 7.60085Z" fill="white"/>
<path d="M58.3071 0.53395C58.3071 0.238992 58.5491 0 58.8482 0C59.1468 0 59.3888 0.238992 59.3888 0.53395C59.3888 0.828907 59.1468 1.0684 58.8482 1.0684C58.5491 1.0684 58.3071 0.828907 58.3071 0.53395Z" fill="white"/>
<path d="M48.169 57.0706C48.169 55.6139 49.3645 54.4331 50.8392 54.4331C52.3139 54.4331 53.5094 55.6139 53.5094 57.0706C53.5094 58.5272 52.3139 59.7081 50.8392 59.7081C49.3645 59.7081 48.169 58.5272 48.169 57.0706Z" fill="white"/>
<path d="M48.435 50.0037C48.435 48.6923 49.5115 47.6289 50.8392 47.6289C52.1669 47.6289 53.2434 48.6923 53.2434 50.0037C53.2434 51.3151 52.1669 52.3785 50.8392 52.3785C49.5115 52.3785 48.435 51.3151 48.435 50.0037Z" fill="white"/>
<path d="M48.7014 42.9363C48.7014 41.7701 49.6585 40.8247 50.8392 40.8247C52.0199 40.8247 52.977 41.7701 52.977 42.9363C52.977 44.1025 52.0199 45.0479 50.8392 45.0479C49.6585 45.0479 48.7014 44.1025 48.7014 42.9363Z" fill="white"/>
<path d="M48.9674 35.8694C48.9674 34.8484 49.8061 34.02 50.8397 34.02C51.8729 34.02 52.711 34.8484 52.711 35.8694C52.711 36.8899 51.8729 37.7183 50.8397 37.7183C49.8061 37.7183 48.9674 36.8899 48.9674 35.8694Z" fill="white"/>
<path d="M49.2338 28.802C49.2338 27.9262 49.9525 27.2163 50.8392 27.2163C51.7259 27.2163 52.4446 27.9262 52.4446 28.802C52.4446 29.6778 51.7259 30.3877 50.8392 30.3877C49.9525 30.3877 49.2338 29.6778 49.2338 28.802Z" fill="white"/>
<path d="M49.4998 21.7351C49.4998 21.0045 50.0996 20.4121 50.8392 20.4121C51.5788 20.4121 52.1786 21.0045 52.1786 21.7351C52.1786 22.4657 51.5788 23.0582 50.8392 23.0582C50.0996 23.0582 49.4998 22.4657 49.4998 21.7351Z" fill="white"/>
<path d="M49.7657 14.6682C49.7657 14.0829 50.2461 13.6084 50.8387 13.6084C51.4318 13.6084 51.9127 14.0829 51.9127 14.6682C51.9127 15.2536 51.4318 15.7276 50.8387 15.7276C50.2461 15.7276 49.7657 15.2536 49.7657 14.6682Z" fill="white"/>
<path d="M50.0322 7.60085C50.0322 7.16069 50.3936 6.80371 50.8392 6.80371C51.2848 6.80371 51.6462 7.16069 51.6462 7.60085C51.6462 8.04102 51.2848 8.398 50.8392 8.398C50.3936 8.398 50.0322 8.04102 50.0322 7.60085Z" fill="white"/>
<path d="M50.2981 0.53395C50.2981 0.238992 50.5401 0 50.8387 0C51.1378 0 51.3798 0.238992 51.3798 0.53395C51.3798 0.828907 51.1378 1.0684 50.8387 1.0684C50.5401 1.0684 50.2981 0.828907 50.2981 0.53395Z" fill="white"/>
<path d="M40.1606 57.0706C40.1606 55.6139 41.356 54.4331 42.8307 54.4331C44.3054 54.4331 45.5009 55.6139 45.5009 57.0706C45.5009 58.5272 44.3054 59.7081 42.8307 59.7081C41.356 59.7081 40.1606 58.5272 40.1606 57.0706Z" fill="white"/>
<path d="M40.4265 50.0037C40.4265 48.6923 41.5031 47.6289 42.8307 47.6289C44.1584 47.6289 45.235 48.6923 45.235 50.0037C45.235 51.3151 44.1584 52.3785 42.8307 52.3785C41.5031 52.3785 40.4265 51.3151 40.4265 50.0037Z" fill="white"/>
<path d="M40.693 42.9363C40.693 41.7701 41.6501 40.8247 42.8308 40.8247C44.0114 40.8247 44.9685 41.7701 44.9685 42.9363C44.9685 44.1025 44.0114 45.0479 42.8308 45.0479C41.6501 45.0479 40.693 44.1025 40.693 42.9363Z" fill="white"/>
<path d="M40.9589 35.8694C40.9589 34.8484 41.7976 34.02 42.8313 34.02C43.8644 34.02 44.7026 34.8484 44.7026 35.8694C44.7026 36.8899 43.8644 37.7183 42.8313 37.7183C41.7976 37.7183 40.9589 36.8899 40.9589 35.8694Z" fill="white"/>
<path d="M41.2254 28.802C41.2254 27.9262 41.9441 27.2163 42.8307 27.2163C43.7174 27.2163 44.4361 27.9262 44.4361 28.802C44.4361 29.6778 43.7174 30.3877 42.8307 30.3877C41.9441 30.3877 41.2254 29.6778 41.2254 28.802Z" fill="white"/>
<path d="M41.4913 21.7351C41.4913 21.0045 42.0911 20.4121 42.8307 20.4121C43.5704 20.4121 44.1702 21.0045 44.1702 21.7351C44.1702 22.4657 43.5704 23.0582 42.8307 23.0582C42.0911 23.0582 41.4913 22.4657 41.4913 21.7351Z" fill="white"/>
<path d="M41.7572 14.6682C41.7572 14.0829 42.2376 13.6084 42.8302 13.6084C43.4234 13.6084 43.9042 14.0829 43.9042 14.6682C43.9042 15.2536 43.4234 15.7276 42.8302 15.7276C42.2376 15.7276 41.7572 15.2536 41.7572 14.6682Z" fill="white"/>
<path d="M42.0237 7.60085C42.0237 7.16069 42.3851 6.80371 42.8308 6.80371C43.2764 6.80371 43.6378 7.16069 43.6378 7.60085C43.6378 8.04102 43.2764 8.398 42.8308 8.398C42.3851 8.398 42.0237 8.04102 42.0237 7.60085Z" fill="white"/>
<path d="M42.2897 0.53395C42.2897 0.238992 42.5316 0 42.8308 0C43.1294 0 43.3713 0.238992 43.3713 0.53395C43.3713 0.828907 43.1294 1.0684 42.8308 1.0684C42.5316 1.0684 42.2897 0.828907 42.2897 0.53395Z" fill="white"/>
<path d="M32.1521 57.0706C32.1521 55.6139 33.3475 54.4331 34.8222 54.4331C36.2969 54.4331 37.4924 55.6139 37.4924 57.0706C37.4924 58.5272 36.2969 59.7081 34.8222 59.7081C33.3475 59.7081 32.1521 58.5272 32.1521 57.0706Z" fill="white"/>
<path d="M32.418 50.0037C32.418 48.6923 33.4946 47.6289 34.8222 47.6289C36.1499 47.6289 37.2265 48.6923 37.2265 50.0037C37.2265 51.3151 36.1499 52.3785 34.8222 52.3785C33.4946 52.3785 32.418 51.3151 32.418 50.0037Z" fill="white"/>
<path d="M32.6845 42.9363C32.6845 41.7701 33.6416 40.8247 34.8223 40.8247C36.0029 40.8247 36.96 41.7701 36.96 42.9363C36.96 44.1025 36.0029 45.0479 34.8223 45.0479C33.6416 45.0479 32.6845 44.1025 32.6845 42.9363Z" fill="white"/>
<path d="M32.9504 35.8694C32.9504 34.8484 33.7891 34.02 34.8228 34.02C35.8559 34.02 36.6941 34.8484 36.6941 35.8694C36.6941 36.8899 35.8559 37.7183 34.8228 37.7183C33.7891 37.7183 32.9504 36.8899 32.9504 35.8694Z" fill="white"/>
<path d="M33.2164 28.802C33.2164 27.9262 33.9351 27.2163 34.8217 27.2163C35.7084 27.2163 36.4271 27.9262 36.4271 28.802C36.4271 29.6778 35.7084 30.3877 34.8217 30.3877C33.9351 30.3877 33.2164 29.6778 33.2164 28.802Z" fill="white"/>
<path d="M33.4828 21.7351C33.4828 21.0045 34.0826 20.4121 34.8222 20.4121C35.5619 20.4121 36.1617 21.0045 36.1617 21.7351C36.1617 22.4657 35.5619 23.0582 34.8222 23.0582C34.0826 23.0582 33.4828 22.4657 33.4828 21.7351Z" fill="white"/>
<path d="M33.7487 14.6682C33.7487 14.0829 34.2291 13.6084 34.8217 13.6084C35.4149 13.6084 35.8957 14.0829 35.8957 14.6682C35.8957 15.2536 35.4149 15.7276 34.8217 15.7276C34.2291 15.7276 33.7487 15.2536 33.7487 14.6682Z" fill="white"/>
<path d="M34.0152 7.60085C34.0152 7.16069 34.3766 6.80371 34.8223 6.80371C35.2679 6.80371 35.6293 7.16069 35.6293 7.60085C35.6293 8.04102 35.2679 8.398 34.8223 8.398C34.3766 8.398 34.0152 8.04102 34.0152 7.60085Z" fill="white"/>
<path d="M34.2812 0.53395C34.2812 0.238992 34.5231 0 34.8223 0C35.1209 0 35.3628 0.238992 35.3628 0.53395C35.3628 0.828907 35.1209 1.0684 34.8223 1.0684C34.5231 1.0684 34.2812 0.828907 34.2812 0.53395Z" fill="white"/>
<path d="M24.1436 57.0706C24.1436 55.6139 25.3391 54.4331 26.8138 54.4331C28.2885 54.4331 29.484 55.6139 29.484 57.0706C29.484 58.5272 28.2885 59.7081 26.8138 59.7081C25.3391 59.7081 24.1436 58.5272 24.1436 57.0706Z" fill="white"/>
<path d="M24.409 50.0037C24.409 48.6923 25.4856 47.6289 26.8132 47.6289C28.1409 47.6289 29.2175 48.6923 29.2175 50.0037C29.2175 51.3151 28.1409 52.3785 26.8132 52.3785C25.4856 52.3785 24.409 51.3151 24.409 50.0037Z" fill="white"/>
<path d="M24.6755 42.9363C24.6755 41.7701 25.6326 40.8247 26.8133 40.8247C27.9939 40.8247 28.951 41.7701 28.951 42.9363C28.951 44.1025 27.9939 45.0479 26.8133 45.0479C25.6326 45.0479 24.6755 44.1025 24.6755 42.9363Z" fill="white"/>
<path d="M24.9414 35.8694C24.9414 34.8484 25.7801 34.02 26.8138 34.02C27.8469 34.02 28.6851 34.8484 28.6851 35.8694C28.6851 36.8899 27.8469 37.7183 26.8138 37.7183C25.7801 37.7183 24.9414 36.8899 24.9414 35.8694Z" fill="white"/>
<path d="M25.2079 28.802C25.2079 27.9262 25.9266 27.2163 26.8132 27.2163C27.6999 27.2163 28.4186 27.9262 28.4186 28.802C28.4186 29.6778 27.6999 30.3877 26.8132 30.3877C25.9266 30.3877 25.2079 29.6778 25.2079 28.802Z" fill="white"/>
<path d="M25.4743 21.7351C25.4743 21.0045 26.0741 20.4121 26.8138 20.4121C27.5534 20.4121 28.1532 21.0045 28.1532 21.7351C28.1532 22.4657 27.5534 23.0582 26.8138 23.0582C26.0741 23.0582 25.4743 22.4657 25.4743 21.7351Z" fill="white"/>
<path d="M25.7403 14.6682C25.7403 14.0829 26.2206 13.6084 26.8133 13.6084C27.4064 13.6084 27.8873 14.0829 27.8873 14.6682C27.8873 15.2536 27.4064 15.7276 26.8133 15.7276C26.2206 15.7276 25.7403 15.2536 25.7403 14.6682Z" fill="white"/>
<path d="M26.0068 7.60085C26.0068 7.16069 26.3682 6.80371 26.8138 6.80371C27.2594 6.80371 27.6208 7.16069 27.6208 7.60085C27.6208 8.04102 27.2594 8.398 26.8138 8.398C26.3682 8.398 26.0068 8.04102 26.0068 7.60085Z" fill="white"/>
<path d="M26.2727 0.53395C26.2727 0.238992 26.5147 0 26.8138 0C27.1124 0 27.3544 0.238992 27.3544 0.53395C27.3544 0.828907 27.1124 1.0684 26.8138 1.0684C26.5147 1.0684 26.2727 0.828907 26.2727 0.53395Z" fill="white"/>
<path d="M16.1346 57.0706C16.1346 55.6139 17.3301 54.4331 18.8048 54.4331C20.2795 54.4331 21.475 55.6139 21.475 57.0706C21.475 58.5272 20.2795 59.7081 18.8048 59.7081C17.3301 59.7081 16.1346 58.5272 16.1346 57.0706Z" fill="white"/>
<path d="M16.4005 50.0037C16.4005 48.6923 17.4771 47.6289 18.8048 47.6289C20.1325 47.6289 21.209 48.6923 21.209 50.0037C21.209 51.3151 20.1325 52.3785 18.8048 52.3785C17.4771 52.3785 16.4005 51.3151 16.4005 50.0037Z" fill="white"/>
<path d="M16.667 42.9363C16.667 41.7701 17.6241 40.8247 18.8048 40.8247C19.9855 40.8247 20.9426 41.7701 20.9426 42.9363C20.9426 44.1025 19.9855 45.0479 18.8048 45.0479C17.6241 45.0479 16.667 44.1025 16.667 42.9363Z" fill="white"/>
<path d="M16.933 35.8694C16.933 34.8484 17.7716 34.02 18.8053 34.02C19.8385 34.02 20.6766 34.8484 20.6766 35.8694C20.6766 36.8899 19.8385 37.7183 18.8053 37.7183C17.7716 37.7183 16.933 36.8899 16.933 35.8694Z" fill="white"/>
<path d="M17.1994 28.802C17.1994 27.9262 17.9181 27.2163 18.8048 27.2163C19.6914 27.2163 20.4101 27.9262 20.4101 28.802C20.4101 29.6778 19.6914 30.3877 18.8048 30.3877C17.9181 30.3877 17.1994 29.6778 17.1994 28.802Z" fill="white"/>
<path d="M17.4659 21.7351C17.4659 21.0045 18.0656 20.4121 18.8053 20.4121C19.5449 20.4121 20.1447 21.0045 20.1447 21.7351C20.1447 22.4657 19.5449 23.0582 18.8053 23.0582C18.0656 23.0582 17.4659 22.4657 17.4659 21.7351Z" fill="white"/>
<path d="M17.7313 14.6682C17.7313 14.0829 18.2116 13.6084 18.8043 13.6084C19.3974 13.6084 19.8783 14.0829 19.8783 14.6682C19.8783 15.2536 19.3974 15.7276 18.8043 15.7276C18.2116 15.7276 17.7313 15.2536 17.7313 14.6682Z" fill="white"/>
<path d="M17.9978 7.60085C17.9978 7.16069 18.3592 6.80371 18.8048 6.80371C19.2504 6.80371 19.6118 7.16069 19.6118 7.60085C19.6118 8.04102 19.2504 8.398 18.8048 8.398C18.3592 8.398 17.9978 8.04102 17.9978 7.60085Z" fill="white"/>
<path d="M18.2642 0.53395C18.2642 0.238992 18.5062 0 18.8053 0C19.1039 0 19.3459 0.238992 19.3459 0.53395C19.3459 0.828907 19.1039 1.0684 18.8053 1.0684C18.5062 1.0684 18.2642 0.828907 18.2642 0.53395Z" fill="white"/>
<path d="M8.12611 57.0706C8.12611 55.6139 9.32159 54.4331 10.7963 54.4331C12.271 54.4331 13.4665 55.6139 13.4665 57.0706C13.4665 58.5272 12.271 59.7081 10.7963 59.7081C9.32159 59.7081 8.12611 58.5272 8.12611 57.0706Z" fill="white"/>
<path d="M8.39206 50.0037C8.39206 48.6923 9.4686 47.6289 10.7963 47.6289C12.1235 47.6289 13.2005 48.6923 13.2005 50.0037C13.2005 51.3151 12.1235 52.3785 10.7963 52.3785C9.4686 52.3785 8.39206 51.3151 8.39206 50.0037Z" fill="white"/>
<path d="M8.65852 42.9363C8.65852 41.7701 9.61562 40.8247 10.7963 40.8247C11.977 40.8247 12.9341 41.7701 12.9341 42.9363C12.9341 44.1025 11.977 45.0479 10.7963 45.0479C9.61562 45.0479 8.65852 44.1025 8.65852 42.9363Z" fill="white"/>
<path d="M8.92447 35.8694C8.92447 34.8484 9.76314 34.02 10.7968 34.02C11.83 34.02 12.6681 34.8484 12.6681 35.8694C12.6681 36.8899 11.83 37.7183 10.7968 37.7183C9.76314 37.7183 8.92447 36.8899 8.92447 35.8694Z" fill="white"/>
<path d="M9.19041 28.8025C9.19041 27.9267 9.90913 27.2168 10.7958 27.2168C11.6824 27.2168 12.4022 27.9267 12.4022 28.8025C12.4022 29.6783 11.6824 30.3882 10.7958 30.3882C9.90913 30.3882 9.19041 29.6783 9.19041 28.8025Z" fill="white"/>
<path d="M9.45686 21.7351C9.45686 21.0045 10.0566 20.4121 10.7963 20.4121C11.5359 20.4121 12.1357 21.0045 12.1357 21.7351C12.1357 22.4657 11.5359 23.0582 10.7963 23.0582C10.0566 23.0582 9.45686 22.4657 9.45686 21.7351Z" fill="white"/>
<path d="M9.72279 14.6682C9.72279 14.0829 10.2031 13.6084 10.7958 13.6084C11.3889 13.6084 11.8698 14.0829 11.8698 14.6682C11.8698 15.2536 11.3889 15.7276 10.7958 15.7276C10.2031 15.7276 9.72279 15.2536 9.72279 14.6682Z" fill="white"/>
<path d="M9.98927 7.60085C9.98927 7.16069 10.3507 6.80371 10.7963 6.80371C11.2419 6.80371 11.6033 7.16069 11.6033 7.60085C11.6033 8.04102 11.2419 8.398 10.7963 8.398C10.3507 8.398 9.98927 8.04102 9.98927 7.60085Z" fill="white"/>
<path d="M10.2558 0.53395C10.2558 0.238992 10.4977 0 10.7963 0C11.0954 0 11.3374 0.238992 11.3374 0.53395C11.3374 0.828907 11.0954 1.0684 10.7963 1.0684C10.4977 1.0684 10.2558 0.828907 10.2558 0.53395Z" fill="white"/>
<path d="M0.117645 57.0706C0.117645 55.6139 1.31312 54.4331 2.78782 54.4331C4.26252 54.4331 5.458 55.6139 5.458 57.0706C5.458 58.5272 4.26252 59.7081 2.78782 59.7081C1.31312 59.7081 0.117645 58.5272 0.117645 57.0706Z" fill="white"/>
<path d="M0.383591 50.0037C0.383591 48.6923 1.46013 47.6289 2.78782 47.6289C4.11551 47.6289 5.19205 48.6923 5.19205 50.0037C5.19205 51.3151 4.11551 52.3785 2.78782 52.3785C1.46013 52.3785 0.383591 51.3151 0.383591 50.0037Z" fill="white"/>
<path d="M0.650055 42.9363C0.650055 41.7701 1.60715 40.8247 2.78783 40.8247C3.9685 40.8247 4.9256 41.7701 4.9256 42.9363C4.9256 44.1025 3.9685 45.0479 2.78783 45.0479C1.60715 45.0479 0.650055 44.1025 0.650055 42.9363Z" fill="white"/>
<path d="M0.916 35.8694C0.916 34.8484 1.75467 34.02 2.78834 34.02C3.82149 34.02 4.65966 34.8484 4.65966 35.8694C4.65966 36.8899 3.82149 37.7183 2.78834 37.7183C1.75467 37.7183 0.916 36.8899 0.916 35.8694Z" fill="white"/>
<path d="M1.18245 28.802C1.18245 27.9262 1.90117 27.2163 2.78782 27.2163C3.67448 27.2163 4.39319 27.9262 4.39319 28.802C4.39319 29.6778 3.67448 30.3877 2.78782 30.3877C1.90117 30.3877 1.18245 29.6778 1.18245 28.802Z" fill="white"/>
<path d="M1.44839 21.7351C1.44839 21.0045 2.04818 20.4121 2.78782 20.4121C3.52747 20.4121 4.12725 21.0045 4.12725 21.7351C4.12725 22.4657 3.52747 23.0582 2.78782 23.0582C2.04818 23.0582 1.44839 22.4657 1.44839 21.7351Z" fill="white"/>
<path d="M1.71434 14.6682C1.71434 14.0829 2.19468 13.6084 2.78731 13.6084C3.38097 13.6084 3.8613 14.0829 3.8613 14.6682C3.8613 15.2536 3.38097 15.7276 2.78731 15.7276C2.19468 15.7276 1.71434 15.2536 1.71434 14.6682Z" fill="white"/>
<path d="M1.9808 7.60085C1.9808 7.16069 2.3422 6.80371 2.78783 6.80371C3.23345 6.80371 3.59485 7.16069 3.59485 7.60085C3.59485 8.04102 3.23345 8.398 2.78783 8.398C2.3422 8.398 1.9808 8.04102 1.9808 7.60085Z" fill="white"/>
<path d="M2.24675 0.53395C2.24675 0.238992 2.4887 0 2.78783 0C3.08644 0 3.3284 0.238992 3.3284 0.53395C3.3284 0.828907 3.08644 1.0684 2.78783 1.0684C2.4887 1.0684 2.24675 0.828907 2.24675 0.53395Z" fill="white"/>
</g>
</g>
<defs>
<clipPath id="clip0_1331_12850">
<rect width="61.7647" height="60" fill="white" transform="translate(0.117645)"/>
</clipPath>
</defs>
</svg>
