<svg width="40" height="40" viewBox="0 0 40 40" fill="none" xmlns="http://www.w3.org/2000/svg">
<path d="M28.3333 24.1666V19.1573C28.3333 18.8582 28.3333 18.7086 28.2878 18.5766C28.2475 18.4598 28.1818 18.3535 28.0953 18.2652C27.9976 18.1654 27.8638 18.0985 27.5963 17.9648L20 14.1666M6.66666 15.8333V27.1776C6.66666 27.7975 6.66666 28.1074 6.76336 28.3788C6.84884 28.6187 6.98816 28.8358 7.17063 29.0134C7.37702 29.2144 7.65878 29.3436 8.22225 29.6018L18.8889 34.4907C19.2976 34.678 19.502 34.7717 19.7149 34.8087C19.9036 34.8414 20.0964 34.8414 20.2851 34.8087C20.498 34.7717 20.7024 34.678 21.1111 34.4907L31.7777 29.6018C32.3412 29.3436 32.623 29.2144 32.8294 29.0134C33.0118 28.8358 33.1512 28.6187 33.2366 28.3788C33.3333 28.1074 33.3333 27.7975 33.3333 27.1776V15.8333M3.33333 14.1666L19.4037 6.13142C19.6223 6.0221 19.7317 5.96744 19.8463 5.94593C19.9479 5.92688 20.0521 5.92688 20.1537 5.94593C20.2683 5.96744 20.3776 6.0221 20.5963 6.13142L36.6667 14.1666L20.5963 22.2018C20.3776 22.3111 20.2683 22.3658 20.1537 22.3873C20.0521 22.4063 19.9479 22.4063 19.8463 22.3873C19.7317 22.3658 19.6223 22.3111 19.4037 22.2018L3.33333 14.1666Z" stroke="white" stroke-width="2" stroke-linecap="round" stroke-linejoin="round"/>
</svg>
