<svg width="68" height="44" viewBox="0 0 68 44" fill="none" xmlns="http://www.w3.org/2000/svg">
<rect width="68" height="44" rx="22" fill="#DAE2FF"/>
<path d="M30.7525 11.9062C30.7525 11.9062 24 22.1052 24 26.3822C24 30.6592 28.1801 31.9752 30.7525 31.9752" stroke="#2A59BD" stroke-width="2" stroke-miterlimit="10" stroke-linecap="round" stroke-linejoin="round"/>
<path d="M30.7525 11.9062C30.7525 11.9062 37.505 22.1052 37.505 26.3822C37.505 30.6592 33.3249 31.9752 30.7525 31.9752" stroke="#2A59BD" stroke-width="2" stroke-miterlimit="10" stroke-linecap="round" stroke-linejoin="round"/>
<path d="M43.9999 17.3672C43.9999 17.3672 39.3054 18.2885 35.3825 19.736" stroke="#2A59BD" stroke-width="2" stroke-miterlimit="10" stroke-linecap="round" stroke-linejoin="round"/>
<path d="M43.9999 17.3672C43.9999 17.3672 42.0066 27.9611 39.4342 30.6589C36.8619 33.2909 33.4533 31.5142 31.8455 29.8692C29.3375 27.2372 29.5303 24.4078 31.4596 21.9732" stroke="#2A59BD" stroke-width="2" stroke-miterlimit="10" stroke-linecap="round" stroke-linejoin="round"/>
</svg>
